<svg xmlns="http://www.w3.org/2000/svg" viewBox="0 0 400 400">
  <defs>
    <linearGradient id="bg" x1="0" y1="0" x2="1" y2="1">
      <stop offset="0" stop-color="#ffe3ea"/><stop offset="1" stop-color="#ffc2d1"/>
    </linearGradient>
  </defs>
  <rect width="400" height="400" fill="url(#bg)"/>
  
  <path d="M140 240 L200 385 L260 240 Q200 270 140 240 Z" fill="#d9a066"/>
  <path d="M140 240 L200 385 L200 262 Q168 262 140 240 Z" fill="#b88857"/>
  <path d="M197 330 h6 l10 40 h-26 Z" fill="#987047"/><path transform="translate(224.4865876548995 118.76336008584782) rotate(286.27016647718847)"
    d="M0 0 C 26.104567049071193 -23.494110344164074, 46.98822068832815 -10.441826819628478, 52.209134098142385 0 C 46.98822068832815 10.441826819628478, 26.104567049071193 23.494110344164074, 0 0 Z"
    fill="#3e7d4f"/><path transform="translate(168.6014662761242 120.60637154938608) rotate(248.94579808227718)"
    d="M0 0 C 26.68632735707797 -24.017694621370175, 48.03538924274035 -10.67453094283119, 53.37265471415594 0 C 48.03538924274035 10.67453094283119, 26.68632735707797 24.017694621370175, 0 0 Z"
    fill="#549b63"/><path transform="translate(286.8535018104983 192.70411539339406) rotate(6.4106613490730515)"
    d="M0 0 C 21.676130686188117 -19.508517617569307, 39.017035235138614 -8.670452274475247, 43.35226137237623 0 C 39.017035235138614 8.670452274475247, 21.676130686188117 19.508517617569307, 0 0 Z"
    fill="#2f6b41"/><path transform="translate(172.67715617610958 250.5416383735635) rotate(108.21709549985826)"
    d="M0 0 C 18.21748968027532 -16.39574071224779, 32.79148142449558 -7.286995872110129, 36.43497936055064 0 C 32.79148142449558 7.286995872110129, 18.21748968027532 16.39574071224779, 0 0 Z"
    fill="#3e7d4f"/><path transform="translate(204.0988229504626 116.07591953467367) rotate(272.68800258636475)"
    d="M0 0 C 24.70517738419585 -22.234659645776265, 44.46931929155253 -9.88207095367834, 49.4103547683917 0 C 44.46931929155253 9.88207095367834, 24.70517738419585 22.234659645776265, 0 0 Z"
    fill="#549b63"/><path transform="translate(144.96351050165933 131.3986039859029) rotate(230.9714087191969)"
    d="M0 0 C 19.025300234323367 -17.12277021089103, 34.24554042178206 -7.610120093729347, 38.050600468646735 0 C 34.24554042178206 7.610120093729347, 19.025300234323367 17.12277021089103, 0 0 Z"
    fill="#2f6b41"/><path transform="translate(253.7956280539474 130.6191271070246) rotate(307.98903211019933)"
    d="M0 0 C 22.505982767557725 -20.255384490801955, 40.51076898160391 -9.00239310702309, 45.01196553511545 0 C 40.51076898160391 9.00239310702309, 22.505982767557725 20.255384490801955, 0 0 Z"
    fill="#3e7d4f"/><path transform="translate(118.14116568886949 160.82236042677405) rotate(200.51181793212893)"
    d="M0 0 C 17.475959453498945 -15.72836350814905, 31.4567270162981 -6.990383781399578, 34.95191890699789 0 C 31.4567270162981 6.990383781399578, 17.475959453498945 15.72836350814905, 0 0 Z"
    fill="#549b63"/><g>
    <circle cx="153.7" cy="134.1" r="21.885977275669575" fill="#b82b4b"/>
    <circle cx="164.5" cy="139.3" r="12.0" fill="#e0355c"/><circle cx="160.5" cy="144.0" r="12.0" fill="#e0355c"/><circle cx="150.7" cy="145.8" r="12.0" fill="#e0355c"/><circle cx="141.8" cy="136.1" r="12.0" fill="#e0355c"/><circle cx="146.0" cy="124.9" r="12.0" fill="#e0355c"/><circle cx="154.2" cy="122.1" r="12.0" fill="#e0355c"/><circle cx="162.4" cy="125.7" r="12.0" fill="#e0355c"/>
    <circle cx="153.7" cy="134.1" r="13.6" fill="#fb3b67"/>
    <circle cx="153.7" cy="134.1" r="7.4" fill="#c52f51"/>
    <circle cx="150.41710340864955" cy="130.81710340864956" r="2.8" fill="#ff487c"/>
  </g><g>
    <circle cx="169.8" cy="137.2" r="25.235538587439805" fill="#a41831"/>
    <circle cx="183.2" cy="140.7" r="13.9" fill="#c81d3c"/><circle cx="177.4" cy="148.8" r="13.9" fill="#c81d3c"/><circle cx="161.8" cy="148.6" r="13.9" fill="#c81d3c"/><circle cx="156.0" cy="138.9" r="13.9" fill="#c81d3c"/><circle cx="159.7" cy="127.7" r="13.9" fill="#c81d3c"/><circle cx="168.1" cy="123.4" r="13.9" fill="#c81d3c"/><circle cx="182.1" cy="130.7" r="13.9" fill="#c81d3c"/>
    <circle cx="169.8" cy="137.2" r="15.6" fill="#e02043"/>
    <circle cx="169.8" cy="137.2" r="8.6" fill="#b01a35"/>
    <circle cx="166.01466921188404" cy="133.41466921188402" r="3.3" fill="#ff2751"/>
  </g><g>
    <circle cx="260.9" cy="147.3" r="31.270429393276572" fill="#c55771"/>
    <circle cx="277.6" cy="151.4" r="17.2" fill="#f06a8a"/><circle cx="271.3" cy="161.0" r="17.2" fill="#f06a8a"/><circle cx="253.8" cy="163.0" r="17.2" fill="#f06a8a"/><circle cx="243.9" cy="149.6" r="17.2" fill="#f06a8a"/><circle cx="249.6" cy="134.3" r="17.2" fill="#f06a8a"/><circle cx="262.9" cy="130.2" r="17.2" fill="#f06a8a"/><circle cx="274.2" cy="136.4" r="17.2" fill="#f06a8a"/>
    <circle cx="260.9" cy="147.3" r="19.4" fill="#ff779b"/>
    <circle cx="260.9" cy="147.3" r="10.6" fill="#d35d79"/>
    <circle cx="256.2094355910085" cy="142.60943559100852" r="4.1" fill="#ff8fba"/>
  </g><g>
    <circle cx="200.3" cy="150.7" r="20.44924269616604" fill="#8a1027"/>
    <circle cx="211.3" cy="153.1" r="11.2" fill="#a8142f"/><circle cx="205.5" cy="160.7" r="11.2" fill="#a8142f"/><circle cx="193.5" cy="159.6" r="11.2" fill="#a8142f"/><circle cx="189.9" cy="154.9" r="11.2" fill="#a8142f"/><circle cx="190.2" cy="145.7" r="11.2" fill="#a8142f"/><circle cx="199.2" cy="139.5" r="11.2" fill="#a8142f"/><circle cx="209.8" cy="144.7" r="11.2" fill="#a8142f"/>
    <circle cx="200.3" cy="150.7" r="12.7" fill="#bc1635"/>
    <circle cx="200.3" cy="150.7" r="7.0" fill="#941229"/>
    <circle cx="197.23261359557512" cy="147.6326135955751" r="2.7" fill="#e31b3f"/>
  </g><g>
    <circle cx="245.2" cy="182" r="31.407806809991598" fill="#b82b4b"/>
    <circle cx="262.5" cy="182.2" r="17.3" fill="#e0355c"/><circle cx="250.7" cy="198.4" r="17.3" fill="#e0355c"/><circle cx="238.8" cy="198.1" r="17.3" fill="#e0355c"/><circle cx="228.7" cy="187.2" r="17.3" fill="#e0355c"/><circle cx="234.2" cy="168.7" r="17.3" fill="#e0355c"/><circle cx="249.0" cy="165.2" r="17.3" fill="#e0355c"/><circle cx="259.4" cy="172.1" r="17.3" fill="#e0355c"/>
    <circle cx="245.2" cy="182" r="19.5" fill="#fb3b67"/>
    <circle cx="245.2" cy="182" r="10.7" fill="#c52f51"/>
    <circle cx="240.48882897850126" cy="177.28882897850127" r="4.1" fill="#ff487c"/>
  </g><g>
    <circle cx="109.8" cy="182.3" r="25.738956285174936" fill="#a41831"/>
    <circle cx="123.9" cy="183.0" r="14.2" fill="#c81d3c"/><circle cx="112.8" cy="196.1" r="14.2" fill="#c81d3c"/><circle cx="104.5" cy="195.4" r="14.2" fill="#c81d3c"/><circle cx="96.1" cy="185.8" r="14.2" fill="#c81d3c"/><circle cx="97.5" cy="175.3" r="14.2" fill="#c81d3c"/><circle cx="107.4" cy="168.4" r="14.2" fill="#c81d3c"/><circle cx="120.2" cy="172.7" r="14.2" fill="#c81d3c"/>
    <circle cx="109.8" cy="182.3" r="16.0" fill="#e02043"/>
    <circle cx="109.8" cy="182.3" r="8.8" fill="#b01a35"/>
    <circle cx="105.93915655722375" cy="178.43915655722378" r="3.3" fill="#ff2751"/>
  </g><g>
    <circle cx="200" cy="185" r="24.58409276884049" fill="#c55771"/>
    <circle cx="213.5" cy="185.5" r="13.5" fill="#f06a8a"/><circle cx="208.0" cy="195.9" r="13.5" fill="#f06a8a"/><circle cx="195.9" cy="197.9" r="13.5" fill="#f06a8a"/><circle cx="186.7" cy="187.5" r="13.5" fill="#f06a8a"/><circle cx="192.1" cy="174.0" r="13.5" fill="#f06a8a"/><circle cx="203.2" cy="171.9" r="13.5" fill="#f06a8a"/><circle cx="208.8" cy="174.8" r="13.5" fill="#f06a8a"/>
    <circle cx="200" cy="185" r="15.2" fill="#ff779b"/>
    <circle cx="200" cy="185" r="8.4" fill="#d35d79"/>
    <circle cx="196.31238608467393" cy="181.31238608467393" r="3.2" fill="#ff8fba"/>
  </g><g>
    <circle cx="119.1" cy="204.2" r="29.93560613039881" fill="#8a1027"/>
    <circle cx="134.5" cy="210.1" r="16.5" fill="#a8142f"/><circle cx="122.6" cy="220.3" r="16.5" fill="#a8142f"/><circle cx="110.1" cy="218.0" r="16.5" fill="#a8142f"/><circle cx="103.0" cy="207.5" r="16.5" fill="#a8142f"/><circle cx="105.0" cy="195.7" r="16.5" fill="#a8142f"/><circle cx="120.0" cy="187.8" r="16.5" fill="#a8142f"/><circle cx="132.0" cy="194.0" r="16.5" fill="#a8142f"/>
    <circle cx="119.1" cy="204.2" r="18.6" fill="#bc1635"/>
    <circle cx="119.1" cy="204.2" r="10.2" fill="#941229"/>
    <circle cx="114.60965908044017" cy="199.70965908044016" r="3.9" fill="#e31b3f"/>
  </g><g>
    <circle cx="187.1" cy="222.8" r="22.67529989592731" fill="#b82b4b"/>
    <circle cx="198.3" cy="228.2" r="12.5" fill="#e0355c"/><circle cx="192.8" cy="233.9" r="12.5" fill="#e0355c"/><circle cx="181.6" cy="234.0" r="12.5" fill="#e0355c"/><circle cx="174.9" cy="225.5" r="12.5" fill="#e0355c"/><circle cx="179.5" cy="212.9" r="12.5" fill="#e0355c"/><circle cx="187.7" cy="210.3" r="12.5" fill="#e0355c"/><circle cx="198.2" cy="217.1" r="12.5" fill="#e0355c"/>
    <circle cx="187.1" cy="222.8" r="14.1" fill="#fb3b67"/>
    <circle cx="187.1" cy="222.8" r="7.7" fill="#c52f51"/>
    <circle cx="183.6987050156109" cy="219.39870501561091" r="2.9" fill="#ff487c"/>
  </g><g>
    <circle cx="246.9" cy="239.6" r="23.617638664785773" fill="#a41831"/>
    <circle cx="258.7" cy="245.1" r="13.0" fill="#c81d3c"/><circle cx="254.6" cy="250.1" r="13.0" fill="#c81d3c"/><circle cx="242.9" cy="252.0" r="13.0" fill="#c81d3c"/><circle cx="233.9" cy="239.0" r="13.0" fill="#c81d3c"/><circle cx="236.7" cy="231.5" r="13.0" fill="#c81d3c"/><circle cx="248.7" cy="226.7" r="13.0" fill="#c81d3c"/><circle cx="256.9" cy="231.3" r="13.0" fill="#c81d3c"/>
    <circle cx="246.9" cy="239.6" r="14.6" fill="#e02043"/>
    <circle cx="246.9" cy="239.6" r="8.0" fill="#b01a35"/>
    <circle cx="243.35735420028215" cy="236.05735420028213" r="3.1" fill="#ff2751"/>
  </g><g>
    <circle cx="214.6" cy="249.8" r="24.256557220593095" fill="#c55771"/>
    <circle cx="227.8" cy="251.6" r="13.3" fill="#f06a8a"/><circle cx="222.6" cy="260.5" r="13.3" fill="#f06a8a"/><circle cx="206.2" cy="260.2" r="13.3" fill="#f06a8a"/><circle cx="201.3" cy="249.1" r="13.3" fill="#f06a8a"/><circle cx="204.6" cy="241.0" r="13.3" fill="#f06a8a"/><circle cx="215.5" cy="236.5" r="13.3" fill="#f06a8a"/><circle cx="224.7" cy="241.0" r="13.3" fill="#f06a8a"/>
    <circle cx="214.6" cy="249.8" r="15.0" fill="#ff779b"/>
    <circle cx="214.6" cy="249.8" r="8.2" fill="#d35d79"/>
    <circle cx="210.96151641691102" cy="246.16151641691104" r="3.2" fill="#ff8fba"/>
  </g><circle cx="251.7" cy="112.8" r="4.0" fill="#ffffff" opacity="0.60"/><circle cx="68.3" cy="77.4" r="1.5" fill="#ffffff" opacity="0.67"/><circle cx="254.0" cy="174.3" r="3.5" fill="#ffffff" opacity="0.72"/><circle cx="70.8" cy="197.6" r="1.8" fill="#ffffff" opacity="0.44"/><circle cx="135.9" cy="84.8" r="1.8" fill="#ffffff" opacity="0.51"/><circle cx="331.4" cy="77.3" r="3.6" fill="#ffffff" opacity="0.37"/><circle cx="260.5" cy="210.6" r="2.6" fill="#ffffff" opacity="0.54"/><circle cx="81.9" cy="138.8" r="2.8" fill="#ffffff" opacity="0.67"/><circle cx="344.8" cy="57.2" r="2.5" fill="#ffffff" opacity="0.70"/><circle cx="357.5" cy="226.0" r="3.0" fill="#ffffff" opacity="0.37"/>
</svg>