<svg xmlns="http://www.w3.org/2000/svg" viewBox="0 0 400 400">
  <defs>
    <linearGradient id="bg" x1="0" y1="0" x2="1" y2="1">
      <stop offset="0" stop-color="#f3e8ff"/><stop offset="1" stop-color="#ffe3f0"/>
    </linearGradient>
  </defs>
  <rect width="400" height="400" fill="url(#bg)"/>
  
  <path d="M140 240 L200 385 L260 240 Q200 270 140 240 Z" fill="#d9a066"/>
  <path d="M140 240 L200 385 L200 262 Q168 262 140 240 Z" fill="#b88857"/>
  <path d="M197 330 h6 l10 40 h-26 Z" fill="#987047"/><path transform="translate(116.85832270380035 206.27512929571205) rotate(162.04106904566288)"
    d="M0 0 C 24.297139073489234 -21.86742516614031, 43.73485033228062 -9.718855629395694, 48.59427814697847 0 C 43.73485033228062 9.718855629395694, 24.297139073489234 21.86742516614031, 0 0 Z"
    fill="#3e7d4f"/><path transform="translate(121.5479991905923 215.41312057511976) rotate(153.84698823094368)"
    d="M0 0 C 21.839486724464223 -19.6555380520178, 39.3110761040356 -8.73579468978569, 43.678973448928446 0 C 39.3110761040356 8.73579468978569, 21.839486724464223 19.6555380520178, 0 0 Z"
    fill="#549b63"/><path transform="translate(183.4035905148418 252.7445670613536) rotate(100.94638047739863)"
    d="M0 0 C 24.40012354031205 -21.960111186280848, 43.920222372561696 -9.760049416124822, 48.8002470806241 0 C 43.920222372561696 9.760049416124822, 24.40012354031205 21.960111186280848, 0 0 Z"
    fill="#2f6b41"/><path transform="translate(141.10973681305884 134.01505292760675) rotate(227.6388404611498)"
    d="M0 0 C 23.805228292243555 -21.4247054630192, 42.8494109260384 -9.522091316897422, 47.61045658448711 0 C 42.8494109260384 9.522091316897422, 23.805228292243555 21.4247054630192, 0 0 Z"
    fill="#3e7d4f"/><path transform="translate(265.1598837440106 139.01392331470277) rotate(318.20519467815757)"
    d="M0 0 C 18.68696953379549 -16.818272580415943, 33.636545160831886 -7.474787813518197, 37.37393906759098 0 C 33.636545160831886 7.474787813518197, 18.68696953379549 16.818272580415943, 0 0 Z"
    fill="#549b63"/><path transform="translate(273.3963249023544 147.53750220793074) rotate(327.11635560728604)"
    d="M0 0 C 20.738055921159685 -18.664250329043718, 37.328500658087435 -8.295222368463874, 41.47611184231937 0 C 37.328500658087435 8.295222368463874, 20.738055921159685 18.664250329043718, 0 0 Z"
    fill="#2f6b41"/><path transform="translate(287.35599955685063 182.81081617537995) rotate(358.1818543933332)"
    d="M0 0 C 24.634044972481206 -22.170640475233085, 44.34128095046617 -9.853617988992482, 49.26808994496241 0 C 44.34128095046617 9.853617988992482, 24.634044972481206 22.170640475233085, 0 0 Z"
    fill="#3e7d4f"/><path transform="translate(261.3883951563299 135.88594845018392) rotate(314.61861787363887)"
    d="M0 0 C 25.99449197179638 -23.39504277461674, 46.79008554923348 -10.397796788718551, 51.98898394359276 0 C 46.79008554923348 10.397796788718551, 25.99449197179638 23.39504277461674, 0 0 Z"
    fill="#549b63"/><g>
    <circle cx="188.9" cy="136" r="30.564904741942883" fill="#cba4b1"/>
    <circle cx="204.1" cy="143.3" r="16.8" fill="#f7c8d8"/><circle cx="193.3" cy="152.2" r="16.8" fill="#f7c8d8"/><circle cx="183.5" cy="151.9" r="16.8" fill="#f7c8d8"/><circle cx="172.8" cy="140.7" r="16.8" fill="#f7c8d8"/><circle cx="178.6" cy="122.7" r="16.8" fill="#f7c8d8"/><circle cx="189.0" cy="119.2" r="16.8" fill="#f7c8d8"/><circle cx="203.1" cy="127.1" r="16.8" fill="#f7c8d8"/>
    <circle cx="188.9" cy="136" r="19.0" fill="#ffe0f2"/>
    <circle cx="188.9" cy="136" r="10.4" fill="#d9b0be"/>
    <circle cx="184.31526428870856" cy="131.41526428870856" r="4.0" fill="#ffffff"/>
  </g><g>
    <circle cx="220.7" cy="141" r="22.753692829515785" fill="#9889b8"/>
    <circle cx="233.2" cy="141.7" r="12.5" fill="#b9a7e0"/><circle cx="226.1" cy="152.3" r="12.5" fill="#b9a7e0"/><circle cx="216.5" cy="152.8" r="12.5" fill="#b9a7e0"/><circle cx="208.8" cy="144.9" r="12.5" fill="#b9a7e0"/><circle cx="211.3" cy="132.7" r="12.5" fill="#b9a7e0"/><circle cx="219.0" cy="128.6" r="12.5" fill="#b9a7e0"/><circle cx="231.3" cy="134.3" r="12.5" fill="#b9a7e0"/>
    <circle cx="220.7" cy="141" r="14.1" fill="#cfbbfb"/>
    <circle cx="220.7" cy="141" r="7.7" fill="#a393c5"/>
    <circle cx="217.28694607557262" cy="137.58694607557263" r="3.0" fill="#fae1ff"/>
  </g><g>
    <circle cx="171.7" cy="158.3" r="33.51222489029169" fill="#d1a586"/>
    <circle cx="190.1" cy="158.8" r="18.4" fill="#ffc9a3"/><circle cx="182.7" cy="173.1" r="18.4" fill="#ffc9a3"/><circle cx="164.5" cy="175.3" r="18.4" fill="#ffc9a3"/><circle cx="153.3" cy="157.5" r="18.4" fill="#ffc9a3"/><circle cx="159.8" cy="144.3" r="18.4" fill="#ffc9a3"/><circle cx="174.4" cy="140.1" r="18.4" fill="#ffc9a3"/><circle cx="184.6" cy="145.1" r="18.4" fill="#ffc9a3"/>
    <circle cx="171.7" cy="158.3" r="20.8" fill="#ffe1b7"/>
    <circle cx="171.7" cy="158.3" r="11.4" fill="#e0b18f"/>
    <circle cx="166.67316626645624" cy="153.27316626645626" r="4.4" fill="#ffffdc"/>
  </g><g>
    <circle cx="231.3" cy="160.1" r="30.037115779239684" fill="#c889a0"/>
    <circle cx="245.9" cy="167.8" r="16.5" fill="#f4a7c3"/><circle cx="236.8" cy="175.7" r="16.5" fill="#f4a7c3"/><circle cx="224.6" cy="175.2" r="16.5" fill="#f4a7c3"/><circle cx="215.8" cy="165.8" r="16.5" fill="#f4a7c3"/><circle cx="218.1" cy="150.2" r="16.5" fill="#f4a7c3"/><circle cx="230.1" cy="143.6" r="16.5" fill="#f4a7c3"/><circle cx="246.1" cy="152.8" r="16.5" fill="#f4a7c3"/>
    <circle cx="231.3" cy="160.1" r="18.6" fill="#ffbbda"/>
    <circle cx="231.3" cy="160.1" r="10.2" fill="#d793ac"/>
    <circle cx="226.79443263311407" cy="155.59443263311405" r="3.9" fill="#ffe1ff"/>
  </g><g>
    <circle cx="255.8" cy="176.1" r="28.10900266142562" fill="#cba4b1"/>
    <circle cx="269.9" cy="182.5" r="15.5" fill="#f7c8d8"/><circle cx="264.6" cy="188.8" r="15.5" fill="#f7c8d8"/><circle cx="252.2" cy="191.1" r="15.5" fill="#f7c8d8"/><circle cx="241.2" cy="181.2" r="15.5" fill="#f7c8d8"/><circle cx="244.2" cy="165.9" r="15.5" fill="#f7c8d8"/><circle cx="255.1" cy="160.7" r="15.5" fill="#f7c8d8"/><circle cx="266.9" cy="165.4" r="15.5" fill="#f7c8d8"/>
    <circle cx="255.8" cy="176.1" r="17.4" fill="#ffe0f2"/>
    <circle cx="255.8" cy="176.1" r="9.6" fill="#d9b0be"/>
    <circle cx="251.58364960078617" cy="171.88364960078616" r="3.7" fill="#ffffff"/>
  </g><g>
    <circle cx="120.3" cy="179.5" r="33.81432391703129" fill="#9889b8"/>
    <circle cx="138.7" cy="181.9" r="18.6" fill="#b9a7e0"/><circle cx="125.1" cy="197.5" r="18.6" fill="#b9a7e0"/><circle cx="108.9" cy="194.2" r="18.6" fill="#b9a7e0"/><circle cx="103.2" cy="186.8" r="18.6" fill="#b9a7e0"/><circle cx="108.9" cy="164.8" r="18.6" fill="#b9a7e0"/><circle cx="122.6" cy="161.0" r="18.6" fill="#b9a7e0"/><circle cx="133.8" cy="166.7" r="18.6" fill="#b9a7e0"/>
    <circle cx="120.3" cy="179.5" r="21.0" fill="#cfbbfb"/>
    <circle cx="120.3" cy="179.5" r="11.5" fill="#a393c5"/>
    <circle cx="115.2278514124453" cy="174.4278514124453" r="4.4" fill="#fae1ff"/>
  </g><g>
    <circle cx="200" cy="185" r="28.852630628738552" fill="#d1a586"/>
    <circle cx="214.4" cy="191.7" r="15.9" fill="#ffc9a3"/><circle cx="204.7" cy="200.2" r="15.9" fill="#ffc9a3"/><circle cx="189.7" cy="197.0" r="15.9" fill="#ffc9a3"/><circle cx="184.3" cy="187.1" r="15.9" fill="#ffc9a3"/><circle cx="188.7" cy="173.9" r="15.9" fill="#ffc9a3"/><circle cx="203.2" cy="169.5" r="15.9" fill="#ffc9a3"/><circle cx="211.9" cy="174.5" r="15.9" fill="#ffc9a3"/>
    <circle cx="200" cy="185" r="17.9" fill="#ffe1b7"/>
    <circle cx="200" cy="185" r="9.8" fill="#e0b18f"/>
    <circle cx="195.67210540568922" cy="180.67210540568922" r="3.8" fill="#ffffdc"/>
  </g><g>
    <circle cx="191.6" cy="218.1" r="20.55248896451667" fill="#c889a0"/>
    <circle cx="201.9" cy="222.9" r="11.3" fill="#f4a7c3"/><circle cx="197.7" cy="227.6" r="11.3" fill="#f4a7c3"/><circle cx="185.6" cy="227.7" r="11.3" fill="#f4a7c3"/><circle cx="181.4" cy="222.9" r="11.3" fill="#f4a7c3"/><circle cx="181.8" cy="212.5" r="11.3" fill="#f4a7c3"/><circle cx="189.5" cy="207.0" r="11.3" fill="#f4a7c3"/><circle cx="201.8" cy="213.2" r="11.3" fill="#f4a7c3"/>
    <circle cx="191.6" cy="218.1" r="12.7" fill="#ffbbda"/>
    <circle cx="191.6" cy="218.1" r="7.0" fill="#d793ac"/>
    <circle cx="188.5171266553225" cy="215.0171266553225" r="2.7" fill="#ffe1ff"/>
  </g><g>
    <circle cx="228.4" cy="232" r="32.15049407444894" fill="#cba4b1"/>
    <circle cx="246.1" cy="232.8" r="17.7" fill="#f7c8d8"/><circle cx="234.7" cy="248.5" r="17.7" fill="#f7c8d8"/><circle cx="221.7" cy="248.4" r="17.7" fill="#f7c8d8"/><circle cx="211.4" cy="236.8" r="17.7" fill="#f7c8d8"/><circle cx="217.2" cy="218.3" r="17.7" fill="#f7c8d8"/><circle cx="230.1" cy="214.4" r="17.7" fill="#f7c8d8"/><circle cx="240.7" cy="219.2" r="17.7" fill="#f7c8d8"/>
    <circle cx="228.4" cy="232" r="19.9" fill="#ffe0f2"/>
    <circle cx="228.4" cy="232" r="10.9" fill="#d9b0be"/>
    <circle cx="223.57742588883266" cy="227.17742588883266" r="4.2" fill="#ffffff"/>
  </g><g>
    <circle cx="133.5" cy="233" r="31.029604732524604" fill="#9889b8"/>
    <circle cx="149.7" cy="238.5" r="17.1" fill="#b9a7e0"/><circle cx="143.4" cy="246.9" r="17.1" fill="#b9a7e0"/><circle cx="122.4" cy="246.0" r="17.1" fill="#b9a7e0"/><circle cx="116.7" cy="235.8" r="17.1" fill="#b9a7e0"/><circle cx="119.6" cy="223.1" r="17.1" fill="#b9a7e0"/><circle cx="133.3" cy="215.9" r="17.1" fill="#b9a7e0"/><circle cx="147.7" cy="223.6" r="17.1" fill="#b9a7e0"/>
    <circle cx="133.5" cy="233" r="19.2" fill="#cfbbfb"/>
    <circle cx="133.5" cy="233" r="10.6" fill="#a393c5"/>
    <circle cx="128.84555929012132" cy="228.34555929012132" r="4.0" fill="#fae1ff"/>
  </g><g>
    <circle cx="182.6" cy="251.4" r="31.304721639025956" fill="#d1a586"/>
    <circle cx="198.8" cy="257.1" r="17.2" fill="#ffc9a3"/><circle cx="189.8" cy="267.1" r="17.2" fill="#ffc9a3"/><circle cx="172.5" cy="265.3" r="17.2" fill="#ffc9a3"/><circle cx="165.4" cy="251.5" r="17.2" fill="#ffc9a3"/><circle cx="167.9" cy="242.4" r="17.2" fill="#ffc9a3"/><circle cx="184.2" cy="234.3" r="17.2" fill="#ffc9a3"/><circle cx="198.4" cy="244.6" r="17.2" fill="#ffc9a3"/>
    <circle cx="182.6" cy="251.4" r="19.4" fill="#ffe1b7"/>
    <circle cx="182.6" cy="251.4" r="10.6" fill="#e0b18f"/>
    <circle cx="177.9042917541461" cy="246.7042917541461" r="4.1" fill="#ffffdc"/>
  </g><circle cx="278.0" cy="89.9" r="1.7" fill="#ffffff" opacity="0.64"/><circle cx="291.5" cy="76.6" r="1.6" fill="#ffffff" opacity="0.62"/><circle cx="107.9" cy="219.5" r="2.0" fill="#ffffff" opacity="0.46"/><circle cx="159.2" cy="213.8" r="4.0" fill="#ffffff" opacity="0.64"/><circle cx="285.9" cy="36.4" r="3.0" fill="#ffffff" opacity="0.58"/><circle cx="223.5" cy="85.7" r="1.7" fill="#ffffff" opacity="0.43"/><circle cx="47.1" cy="86.5" r="3.5" fill="#ffffff" opacity="0.74"/><circle cx="174.6" cy="224.8" r="3.8" fill="#ffffff" opacity="0.63"/><circle cx="306.8" cy="221.8" r="2.1" fill="#ffffff" opacity="0.42"/><circle cx="69.1" cy="218.0" r="3.2" fill="#ffffff" opacity="0.55"/>
</svg>