<svg xmlns="http://www.w3.org/2000/svg" viewBox="0 0 400 400">
  <defs>
    <linearGradient id="bg" x1="0" y1="0" x2="1" y2="1">
      <stop offset="0" stop-color="#2b1230"/><stop offset="1" stop-color="#571c4b"/>
    </linearGradient>
  </defs>
  <rect width="400" height="400" fill="url(#bg)"/>
  
    <ellipse cx="200" cy="345" rx="105" ry="18" fill="rgba(0,0,0,0.12)"/>
    <rect x="110" y="320" width="180" height="22" rx="8" fill="#6b4a2f"/>
    <path d="M120 320 v-140 a80 90 0 0 1 160 0 v140 Z" fill="rgba(255,255,255,0.22)" stroke="rgba(255,255,255,0.65)" stroke-width="3"/>
    <circle cx="200" cy="168" r="9" fill="rgba(255,255,255,0.7)"/>
    <path d="M200 310 q-6 -48 0 -95" stroke="#3e7d4f" stroke-width="6" fill="none"/>
    <path transform="translate(196 265) rotate(-140)"
    d="M0 0 C 15 -13.5, 27 -6, 30 0 C 27 6, 15 13.5, 0 0 Z"
    fill="#3e7d4f"/>
    <g>
    <circle cx="200" cy="205" r="34" fill="#b82b4b"/>
    <circle cx="218.3" cy="208.8" r="18.7" fill="#e0355c"/><circle cx="206.2" cy="222.7" r="18.7" fill="#e0355c"/><circle cx="190.7" cy="221.2" r="18.7" fill="#e0355c"/><circle cx="181.3" cy="204.8" r="18.7" fill="#e0355c"/><circle cx="187.7" cy="190.9" r="18.7" fill="#e0355c"/><circle cx="204.9" cy="187.0" r="18.7" fill="#e0355c"/><circle cx="216.4" cy="196.0" r="18.7" fill="#e0355c"/>
    <circle cx="200" cy="205" r="21.1" fill="#fb3b67"/>
    <circle cx="200" cy="205" r="11.6" fill="#c52f51"/>
    <circle cx="194.9" cy="199.9" r="4.4" fill="#ff487c"/>
  </g>
    <circle cx="174.9" cy="276.8" r="3.3" fill="#ffffff" opacity="0.55"/><circle cx="201.2" cy="205.8" r="3.8" fill="#ffffff" opacity="0.37"/><circle cx="200.0" cy="242.9" r="3.1" fill="#ffffff" opacity="0.53"/><circle cx="188.7" cy="270.5" r="2.7" fill="#ffffff" opacity="0.49"/><circle cx="210.9" cy="175.6" r="2.2" fill="#ffffff" opacity="0.72"/><circle cx="149.2" cy="222.7" r="3.8" fill="#ffffff" opacity="0.50"/><circle cx="229.5" cy="255.9" r="2.7" fill="#ffffff" opacity="0.50"/><circle cx="229.2" cy="126.1" r="2.5" fill="#ffffff" opacity="0.60"/><circle cx="188.2" cy="187.9" r="2.6" fill="#ffffff" opacity="0.70"/><circle cx="199.8" cy="190.2" r="1.7" fill="#ffffff" opacity="0.45"/><circle cx="207.1" cy="256.2" r="2.6" fill="#ffffff" opacity="0.72"/><circle cx="188.1" cy="278.8" r="3.3" fill="#ffffff" opacity="0.50"/>
</svg>