<svg xmlns="http://www.w3.org/2000/svg" viewBox="0 0 400 400">
  <defs>
    <linearGradient id="bg" x1="0" y1="0" x2="1" y2="1">
      <stop offset="0" stop-color="#fdf6ec"/><stop offset="1" stop-color="#f7e6d8"/>
    </linearGradient>
  </defs>
  <rect width="400" height="400" fill="url(#bg)"/>
  
  <path d="M140 240 L200 385 L260 240 Q200 270 140 240 Z" fill="#d9a066"/>
  <path d="M140 240 L200 385 L200 262 Q168 262 140 240 Z" fill="#b88857"/>
  <path d="M197 330 h6 l10 40 h-26 Z" fill="#987047"/><path transform="translate(286.6910733090558 193.77054484261) rotate(7.302584191784262)"
    d="M0 0 C 25.732642863644287 -23.15937857727986, 46.31875715455972 -10.293057145457716, 51.465285727288574 0 C 46.31875715455972 10.293057145457716, 25.732642863644287 23.15937857727986, 0 0 Z"
    fill="#3e7d4f"/><path transform="translate(287.21572075767386 180.52165510209477) rotate(356.27868477255106)"
    d="M0 0 C 27.58970717410557 -24.830736456695014, 49.66147291339003 -11.03588286964223, 55.17941434821114 0 C 49.66147291339003 11.03588286964223, 27.58970717410557 24.830736456695014, 0 0 Z"
    fill="#549b63"/><path transform="translate(116.6515762126345 164.23518739590776) rotate(197.5140291731805)"
    d="M0 0 C 27.01235394529067 -24.311118550761602, 48.622237101523204 -10.804941578116269, 54.02470789058134 0 C 48.622237101523204 10.804941578116269, 27.01235394529067 24.311118550761602, 0 0 Z"
    fill="#2f6b41"/><path transform="translate(184.99970516203197 117.02383483908632) rotate(260.11750699952245)"
    d="M0 0 C 25.371344533748925 -22.83421008037403, 45.66842016074806 -10.148537813499571, 50.74268906749785 0 C 45.66842016074806 10.148537813499571, 25.371344533748925 22.83421008037403, 0 0 Z"
    fill="#3e7d4f"/><path transform="translate(137.35643185476914 136.8839048744406) rotate(224.2135567869991)"
    d="M0 0 C 20.40222615818493 -18.362003542366438, 36.724007084732875 -8.160890463273972, 40.80445231636986 0 C 36.724007084732875 8.160890463273972, 20.40222615818493 18.362003542366438, 0 0 Z"
    fill="#549b63"/><path transform="translate(218.0146728682243 117.48162040879735) rotate(281.8949265126139)"
    d="M0 0 C 23.128609359962866 -20.81574842396658, 41.63149684793316 -9.251443743985147, 46.25721871992573 0 C 41.63149684793316 9.251443743985147, 23.128609359962866 20.81574842396658, 0 0 Z"
    fill="#2f6b41"/><path transform="translate(174.33583526318222 250.95820249313633) rotate(107.07602343522014)"
    d="M0 0 C 25.711749809095636 -23.14057482818607, 46.28114965637214 -10.284699923638255, 51.42349961819127 0 C 46.28114965637214 10.284699923638255, 25.711749809095636 23.14057482818607, 0 0 Z"
    fill="#3e7d4f"/><path transform="translate(262.7206965155252 136.94656997732983) rotate(315.8589981403202)"
    d="M0 0 C 18.941581011982635 -17.047422910784373, 34.09484582156875 -7.576632404793054, 37.88316202396527 0 C 34.09484582156875 7.576632404793054, 18.941581011982635 17.047422910784373, 0 0 Z"
    fill="#549b63"/><g>
    <circle cx="187.7" cy="125.1" r="29.05851384298876" fill="#cac6c0"/>
    <circle cx="203.5" cy="127.5" r="16.0" fill="#f6f1ea"/><circle cx="197.0" cy="138.1" r="16.0" fill="#f6f1ea"/><circle cx="178.4" cy="138.1" r="16.0" fill="#f6f1ea"/><circle cx="172.2" cy="128.8" r="16.0" fill="#f6f1ea"/><circle cx="175.9" cy="114.3" r="16.0" fill="#f6f1ea"/><circle cx="188.0" cy="109.1" r="16.0" fill="#f6f1ea"/><circle cx="201.7" cy="117.5" r="16.0" fill="#f6f1ea"/>
    <circle cx="187.7" cy="125.1" r="18.0" fill="#ffffff"/>
    <circle cx="187.7" cy="125.1" r="9.9" fill="#d8d4ce"/>
    <circle cx="183.34122292355167" cy="120.74122292355167" r="3.8" fill="#ffffff"/>
  </g><g>
    <circle cx="214.1" cy="132.2" r="31.485943370498717" fill="#cba4b1"/>
    <circle cx="231.2" cy="135.0" r="17.3" fill="#f7c8d8"/><circle cx="218.1" cy="149.1" r="17.3" fill="#f7c8d8"/><circle cx="208.9" cy="148.7" r="17.3" fill="#f7c8d8"/><circle cx="196.8" cy="131.6" r="17.3" fill="#f7c8d8"/><circle cx="202.4" cy="119.4" r="17.3" fill="#f7c8d8"/><circle cx="216.9" cy="115.1" r="17.3" fill="#f7c8d8"/><circle cx="225.8" cy="119.4" r="17.3" fill="#f7c8d8"/>
    <circle cx="214.1" cy="132.2" r="19.5" fill="#ffe0f2"/>
    <circle cx="214.1" cy="132.2" r="10.7" fill="#d9b0be"/>
    <circle cx="209.3771084944252" cy="127.47710849442518" r="4.1" fill="#ffffff"/>
  </g><g>
    <circle cx="163.8" cy="154.3" r="28.15299496985972" fill="#c4b8ab"/>
    <circle cx="179.0" cy="157.4" r="15.5" fill="#efe0d0"/><circle cx="168.3" cy="169.1" r="15.5" fill="#efe0d0"/><circle cx="155.5" cy="167.4" r="15.5" fill="#efe0d0"/><circle cx="148.3" cy="154.3" r="15.5" fill="#efe0d0"/><circle cx="152.3" cy="143.9" r="15.5" fill="#efe0d0"/><circle cx="165.6" cy="138.9" r="15.5" fill="#efe0d0"/><circle cx="178.0" cy="148.2" r="15.5" fill="#efe0d0"/>
    <circle cx="163.8" cy="154.3" r="17.5" fill="#fffbe9"/>
    <circle cx="163.8" cy="154.3" r="9.6" fill="#d2c5b7"/>
    <circle cx="159.57705075452105" cy="150.07705075452105" r="3.7" fill="#ffffff"/>
  </g><g>
    <circle cx="224.6" cy="156.6" r="32.56591539783403" fill="#cfc3c6"/>
    <circle cx="241.2" cy="163.4" r="17.9" fill="#fdeef2"/><circle cx="233.6" cy="172.1" r="17.9" fill="#fdeef2"/><circle cx="214.5" cy="171.4" r="17.9" fill="#fdeef2"/><circle cx="206.7" cy="156.3" r="17.9" fill="#fdeef2"/><circle cx="208.5" cy="148.7" r="17.9" fill="#fdeef2"/><circle cx="222.6" cy="138.8" r="17.9" fill="#fdeef2"/><circle cx="239.6" cy="146.9" r="17.9" fill="#fdeef2"/>
    <circle cx="224.6" cy="156.6" r="20.2" fill="#ffffff"/>
    <circle cx="224.6" cy="156.6" r="11.1" fill="#dfd1d5"/>
    <circle cx="219.7151126903249" cy="151.7151126903249" r="4.2" fill="#ffffff"/>
  </g><g>
    <circle cx="153" cy="182" r="26.576626596506685" fill="#cac6c0"/>
    <circle cx="167.2" cy="185.5" r="14.6" fill="#f6f1ea"/><circle cx="157.6" cy="195.9" r="14.6" fill="#f6f1ea"/><circle cx="147.5" cy="195.5" r="14.6" fill="#f6f1ea"/><circle cx="138.4" cy="183.1" r="14.6" fill="#f6f1ea"/><circle cx="142.9" cy="171.4" r="14.6" fill="#f6f1ea"/><circle cx="152.5" cy="167.4" r="14.6" fill="#f6f1ea"/><circle cx="165.4" cy="174.3" r="14.6" fill="#f6f1ea"/>
    <circle cx="153" cy="182" r="16.5" fill="#ffffff"/>
    <circle cx="153" cy="182" r="9.0" fill="#d8d4ce"/>
    <circle cx="149.013506010524" cy="178.013506010524" r="3.5" fill="#ffffff"/>
  </g><g>
    <circle cx="261.3" cy="182.8" r="30.326793829910457" fill="#cba4b1"/>
    <circle cx="276.1" cy="190.6" r="16.7" fill="#f7c8d8"/><circle cx="266.4" cy="198.7" r="16.7" fill="#f7c8d8"/><circle cx="256.5" cy="198.8" r="16.7" fill="#f7c8d8"/><circle cx="245.9" cy="189.3" r="16.7" fill="#f7c8d8"/><circle cx="248.9" cy="171.6" r="16.7" fill="#f7c8d8"/><circle cx="262.0" cy="166.1" r="16.7" fill="#f7c8d8"/><circle cx="275.2" cy="173.6" r="16.7" fill="#f7c8d8"/>
    <circle cx="261.3" cy="182.8" r="18.8" fill="#ffe0f2"/>
    <circle cx="261.3" cy="182.8" r="10.3" fill="#d9b0be"/>
    <circle cx="256.75098092551343" cy="178.25098092551343" r="3.9" fill="#ffffff"/>
  </g><g>
    <circle cx="200" cy="185" r="30.762132614385337" fill="#c4b8ab"/>
    <circle cx="215.7" cy="191.3" r="16.9" fill="#efe0d0"/><circle cx="207.7" cy="200.1" r="16.9" fill="#efe0d0"/><circle cx="191.5" cy="199.6" r="16.9" fill="#efe0d0"/><circle cx="184.6" cy="191.9" r="16.9" fill="#efe0d0"/><circle cx="185.3" cy="176.7" r="16.9" fill="#efe0d0"/><circle cx="203.0" cy="168.3" r="16.9" fill="#efe0d0"/><circle cx="213.6" cy="174.9" r="16.9" fill="#efe0d0"/>
    <circle cx="200" cy="185" r="19.1" fill="#fffbe9"/>
    <circle cx="200" cy="185" r="10.5" fill="#d2c5b7"/>
    <circle cx="195.3856801078422" cy="180.3856801078422" r="4.0" fill="#ffffff"/>
  </g><g>
    <circle cx="125.3" cy="211.1" r="22.365717670414597" fill="#cfc3c6"/>
    <circle cx="136.4" cy="216.4" r="12.3" fill="#fdeef2"/><circle cx="131.5" cy="221.7" r="12.3" fill="#fdeef2"/><circle cx="117.3" cy="220.5" r="12.3" fill="#fdeef2"/><circle cx="113.3" cy="213.8" r="12.3" fill="#fdeef2"/><circle cx="114.8" cy="204.6" r="12.3" fill="#fdeef2"/><circle cx="127.0" cy="198.9" r="12.3" fill="#fdeef2"/><circle cx="133.8" cy="202.3" r="12.3" fill="#fdeef2"/>
    <circle cx="125.3" cy="211.1" r="13.9" fill="#ffffff"/>
    <circle cx="125.3" cy="211.1" r="7.6" fill="#dfd1d5"/>
    <circle cx="121.9451423494378" cy="207.7451423494378" r="2.9" fill="#ffffff"/>
  </g><g>
    <circle cx="181.7" cy="230.7" r="27.958487221971154" fill="#cac6c0"/>
    <circle cx="196.1" cy="236.2" r="15.4" fill="#f6f1ea"/><circle cx="187.0" cy="245.1" r="15.4" fill="#f6f1ea"/><circle cx="174.0" cy="244.0" r="15.4" fill="#f6f1ea"/><circle cx="166.3" cy="230.3" r="15.4" fill="#f6f1ea"/><circle cx="169.8" cy="220.9" r="15.4" fill="#f6f1ea"/><circle cx="182.5" cy="215.3" r="15.4" fill="#f6f1ea"/><circle cx="192.3" cy="219.5" r="15.4" fill="#f6f1ea"/>
    <circle cx="181.7" cy="230.7" r="17.3" fill="#ffffff"/>
    <circle cx="181.7" cy="230.7" r="9.5" fill="#d8d4ce"/>
    <circle cx="177.50622691670432" cy="226.50622691670432" r="3.6" fill="#ffffff"/>
  </g><g>
    <circle cx="198.8" cy="237.4" r="24.43432470364496" fill="#cba4b1"/>
    <circle cx="211.9" cy="240.6" r="13.4" fill="#f7c8d8"/><circle cx="201.8" cy="250.5" r="13.4" fill="#f7c8d8"/><circle cx="190.9" cy="248.3" r="13.4" fill="#f7c8d8"/><circle cx="185.4" cy="237.9" r="13.4" fill="#f7c8d8"/><circle cx="190.8" cy="226.6" r="13.4" fill="#f7c8d8"/><circle cx="201.8" cy="224.3" r="13.4" fill="#f7c8d8"/><circle cx="210.0" cy="230.0" r="13.4" fill="#f7c8d8"/>
    <circle cx="198.8" cy="237.4" r="15.1" fill="#ffe0f2"/>
    <circle cx="198.8" cy="237.4" r="8.3" fill="#d9b0be"/>
    <circle cx="195.13485129445326" cy="233.73485129445325" r="3.2" fill="#ffffff"/>
  </g><g>
    <circle cx="239.3" cy="238.4" r="23.648437086958438" fill="#c4b8ab"/>
    <circle cx="252.3" cy="239.1" r="13.0" fill="#efe0d0"/><circle cx="244.6" cy="250.3" r="13.0" fill="#efe0d0"/><circle cx="235.2" cy="250.7" r="13.0" fill="#efe0d0"/><circle cx="227.2" cy="243.1" r="13.0" fill="#efe0d0"/><circle cx="229.0" cy="230.5" r="13.0" fill="#efe0d0"/><circle cx="239.9" cy="225.4" r="13.0" fill="#efe0d0"/><circle cx="249.2" cy="229.9" r="13.0" fill="#efe0d0"/>
    <circle cx="239.3" cy="238.4" r="14.7" fill="#fffbe9"/>
    <circle cx="239.3" cy="238.4" r="8.0" fill="#d2c5b7"/>
    <circle cx="235.75273443695625" cy="234.85273443695624" r="3.1" fill="#ffffff"/>
  </g><circle cx="315.2" cy="179.7" r="2.3" fill="#ffffff" opacity="0.36"/><circle cx="197.7" cy="138.4" r="3.6" fill="#ffffff" opacity="0.73"/><circle cx="239.4" cy="111.7" r="2.5" fill="#ffffff" opacity="0.51"/><circle cx="174.7" cy="108.8" r="3.8" fill="#ffffff" opacity="0.64"/><circle cx="205.0" cy="119.2" r="2.0" fill="#ffffff" opacity="0.40"/><circle cx="44.9" cy="116.7" r="2.6" fill="#ffffff" opacity="0.54"/><circle cx="46.8" cy="121.4" r="3.8" fill="#ffffff" opacity="0.60"/><circle cx="142.0" cy="122.7" r="3.4" fill="#ffffff" opacity="0.65"/><circle cx="313.6" cy="63.9" r="2.9" fill="#ffffff" opacity="0.67"/><circle cx="165.6" cy="170.5" r="2.7" fill="#ffffff" opacity="0.38"/>
</svg>