<svg xmlns="http://www.w3.org/2000/svg" viewBox="0 0 400 400">
  <defs>
    <linearGradient id="bg" x1="0" y1="0" x2="1" y2="1">
      <stop offset="0" stop-color="#eaf7e0"/><stop offset="1" stop-color="#fdf3c4"/>
    </linearGradient>
  </defs>
  <rect width="400" height="400" fill="url(#bg)"/>
  
  <path d="M140 240 L200 385 L260 240 Q200 270 140 240 Z" fill="#d9a066"/>
  <path d="M140 240 L200 385 L200 262 Q168 262 140 240 Z" fill="#b88857"/>
  <path d="M197 330 h6 l10 40 h-26 Z" fill="#987047"/><path transform="translate(168.61777279000108 120.60141735073609) rotate(248.95725220441818)"
    d="M0 0 C 25.502092484617606 -22.951883236155847, 45.903766472311695 -10.200836993847043, 51.00418496923521 0 C 45.903766472311695 10.200836993847043, 25.502092484617606 22.951883236155847, 0 0 Z"
    fill="#3e7d4f"/><path transform="translate(185.02733175928017 117.02003877435928) rotate(260.13589010573924)"
    d="M0 0 C 22.78488432848826 -20.506395895639436, 41.01279179127887 -9.113953731395304, 45.56976865697652 0 C 41.01279179127887 9.113953731395304, 22.78488432848826 20.506395895639436, 0 0 Z"
    fill="#549b63"/><path transform="translate(224.74173382733403 251.17751847770336) rotate(73.55551457963884)"
    d="M0 0 C 19.45815785857849 -17.51234207272064, 35.02468414544128 -7.7832631434313955, 38.91631571715698 0 C 35.02468414544128 7.7832631434313955, 19.45815785857849 17.51234207272064, 0 0 Z"
    fill="#2f6b41"/><path transform="translate(285.6653425445522 171.32115039088197) rotate(348.56569678522646)"
    d="M0 0 C 24.43937609065324 -21.995438481587918, 43.990876963175836 -9.775750436261298, 48.87875218130648 0 C 43.990876963175836 9.775750436261298, 24.43937609065324 21.995438481587918, 0 0 Z"
    fill="#3e7d4f"/><path transform="translate(129.5951558348949 225.8846608046656) rotate(143.66315541788939)"
    d="M0 0 C 27.973148895427585 -25.175834005884827, 50.351668011769654 -11.189259558171035, 55.94629779085517 0 C 50.351668011769654 11.189259558171035, 27.973148895427585 25.175834005884827, 0 0 Z"
    fill="#549b63"/><path transform="translate(204.23246858896485 253.91904595398228) rotate(87.22428523935379)"
    d="M0 0 C 24.707743064733222 -22.236968758259902, 44.473937516519804 -9.88309722589329, 49.415486129466444 0 C 44.473937516519804 9.88309722589329, 24.707743064733222 22.236968758259902, 0 0 Z"
    fill="#2f6b41"/><path transform="translate(267.1540687031912 229.16179920435343) rotate(39.79376390576363)"
    d="M0 0 C 18.471321379300207 -16.624189241370185, 33.24837848274037 -7.388528551720083, 36.942642758600414 0 C 33.24837848274037 7.388528551720083, 18.471321379300207 16.624189241370185, 0 0 Z"
    fill="#3e7d4f"/><path transform="translate(248.1422957671274 242.58873330702943) rotate(56.57622031867504)"
    d="M0 0 C 20.548067312454805 -18.493260581209324, 36.98652116241865 -8.219226924981923, 41.09613462490961 0 C 36.98652116241865 8.219226924981923, 20.548067312454805 18.493260581209324, 0 0 Z"
    fill="#549b63"/><g>
    <circle cx="194.6" cy="139.7" r="21.029328980483115" fill="#c9a214"/>
    <circle cx="206.1" cy="140.6" r="11.6" fill="#f5c518"/><circle cx="198.9" cy="150.4" r="11.6" fill="#f5c518"/><circle cx="188.4" cy="149.5" r="11.6" fill="#f5c518"/><circle cx="183.4" cy="142.4" r="11.6" fill="#f5c518"/><circle cx="184.2" cy="134.6" r="11.6" fill="#f5c518"/><circle cx="194.8" cy="128.1" r="11.6" fill="#f5c518"/><circle cx="204.3" cy="133.3" r="11.6" fill="#f5c518"/>
    <circle cx="194.6" cy="139.7" r="13.0" fill="#ffdd1b"/>
    <circle cx="194.6" cy="139.7" r="7.1" fill="#d8ad15"/>
    <circle cx="191.44560065292754" cy="136.54560065292753" r="2.7" fill="#ffff20"/>
  </g><g>
    <circle cx="159.9" cy="140.9" r="21.721943822223693" fill="#be6e26"/>
    <circle cx="171.3" cy="144.3" r="11.9" fill="#e8862e"/><circle cx="162.5" cy="152.6" r="11.9" fill="#e8862e"/><circle cx="156.2" cy="152.3" r="11.9" fill="#e8862e"/><circle cx="148.0" cy="140.4" r="11.9" fill="#e8862e"/><circle cx="149.2" cy="135.7" r="11.9" fill="#e8862e"/><circle cx="160.6" cy="129.0" r="11.9" fill="#e8862e"/><circle cx="167.9" cy="132.0" r="11.9" fill="#e8862e"/>
    <circle cx="159.9" cy="140.9" r="13.5" fill="#ff9634"/>
    <circle cx="159.9" cy="140.9" r="7.4" fill="#cc7628"/>
    <circle cx="156.64170842666644" cy="137.64170842666644" r="2.8" fill="#ffb53e"/>
  </g><g>
    <circle cx="228.4" cy="140.9" r="28.28495566546917" fill="#d1c7a5"/>
    <circle cx="243.9" cy="141.7" r="15.6" fill="#fff3c9"/><circle cx="237.3" cy="153.7" r="15.6" fill="#fff3c9"/><circle cx="222.5" cy="155.3" r="15.6" fill="#fff3c9"/><circle cx="214.3" cy="147.4" r="15.6" fill="#fff3c9"/><circle cx="215.0" cy="133.0" r="15.6" fill="#fff3c9"/><circle cx="228.8" cy="125.3" r="15.6" fill="#fff3c9"/><circle cx="242.2" cy="133.7" r="15.6" fill="#fff3c9"/>
    <circle cx="228.4" cy="140.9" r="17.5" fill="#ffffe1"/>
    <circle cx="228.4" cy="140.9" r="9.6" fill="#e0d6b1"/>
    <circle cx="224.15725665017962" cy="136.65725665017962" r="3.7" fill="#ffffff"/>
  </g><g>
    <circle cx="241" cy="155.6" r="22.050093377009034" fill="#c68a30"/>
    <circle cx="253.0" cy="157.1" r="12.1" fill="#f2a83b"/><circle cx="245.3" cy="166.9" r="12.1" fill="#f2a83b"/><circle cx="233.5" cy="165.1" r="12.1" fill="#f2a83b"/><circle cx="228.9" cy="155.7" r="12.1" fill="#f2a83b"/><circle cx="232.2" cy="147.2" r="12.1" fill="#f2a83b"/><circle cx="240.7" cy="143.5" r="12.1" fill="#f2a83b"/><circle cx="251.0" cy="148.7" r="12.1" fill="#f2a83b"/>
    <circle cx="241" cy="155.6" r="13.7" fill="#ffbc42"/>
    <circle cx="241" cy="155.6" r="7.5" fill="#d59434"/>
    <circle cx="237.69248599344866" cy="152.29248599344865" r="2.9" fill="#ffe350"/>
  </g><g>
    <circle cx="200" cy="185" r="25.451184172183275" fill="#c9a214"/>
    <circle cx="214.0" cy="185.9" r="14.0" fill="#f5c518"/><circle cx="208.7" cy="196.0" r="14.0" fill="#f5c518"/><circle cx="190.7" cy="195.5" r="14.0" fill="#f5c518"/><circle cx="186.8" cy="189.8" r="14.0" fill="#f5c518"/><circle cx="191.6" cy="173.8" r="14.0" fill="#f5c518"/><circle cx="198.3" cy="171.1" r="14.0" fill="#f5c518"/><circle cx="209.8" cy="175.0" r="14.0" fill="#f5c518"/>
    <circle cx="200" cy="185" r="15.8" fill="#ffdd1b"/>
    <circle cx="200" cy="185" r="8.7" fill="#d8ad15"/>
    <circle cx="196.18232237417251" cy="181.18232237417251" r="3.3" fill="#ffff20"/>
  </g><g>
    <circle cx="243" cy="186.1" r="25.142592137213796" fill="#be6e26"/>
    <circle cx="256.8" cy="186.5" r="13.8" fill="#e8862e"/><circle cx="247.5" cy="199.2" r="13.8" fill="#e8862e"/><circle cx="234.2" cy="196.8" r="13.8" fill="#e8862e"/><circle cx="229.7" cy="189.8" r="13.8" fill="#e8862e"/><circle cx="232.1" cy="177.6" r="13.8" fill="#e8862e"/><circle cx="245.1" cy="172.4" r="13.8" fill="#e8862e"/><circle cx="252.6" cy="176.1" r="13.8" fill="#e8862e"/>
    <circle cx="243" cy="186.1" r="15.6" fill="#ff9634"/>
    <circle cx="243" cy="186.1" r="8.5" fill="#cc7628"/>
    <circle cx="239.22861117941792" cy="182.32861117941792" r="3.3" fill="#ffb53e"/>
  </g><g>
    <circle cx="143.6" cy="194.6" r="26.291575162205845" fill="#d1c7a5"/>
    <circle cx="158.0" cy="195.2" r="14.5" fill="#fff3c9"/><circle cx="147.0" cy="208.6" r="14.5" fill="#fff3c9"/><circle cx="138.2" cy="208.0" r="14.5" fill="#fff3c9"/><circle cx="130.2" cy="200.0" r="14.5" fill="#fff3c9"/><circle cx="130.7" cy="188.0" r="14.5" fill="#fff3c9"/><circle cx="145.8" cy="180.3" r="14.5" fill="#fff3c9"/><circle cx="156.3" cy="187.6" r="14.5" fill="#fff3c9"/>
    <circle cx="143.6" cy="194.6" r="16.3" fill="#ffffe1"/>
    <circle cx="143.6" cy="194.6" r="8.9" fill="#e0d6b1"/>
    <circle cx="139.6562637256691" cy="190.6562637256691" r="3.4" fill="#ffffff"/>
  </g><g>
    <circle cx="159.7" cy="199.1" r="22.520721351727843" fill="#c68a30"/>
    <circle cx="172.0" cy="200.1" r="12.4" fill="#f2a83b"/><circle cx="166.0" cy="209.8" r="12.4" fill="#f2a83b"/><circle cx="155.2" cy="210.7" r="12.4" fill="#f2a83b"/><circle cx="147.3" cy="199.0" r="12.4" fill="#f2a83b"/><circle cx="149.7" cy="191.8" r="12.4" fill="#f2a83b"/><circle cx="162.6" cy="187.1" r="12.4" fill="#f2a83b"/><circle cx="169.4" cy="191.4" r="12.4" fill="#f2a83b"/>
    <circle cx="159.7" cy="199.1" r="14.0" fill="#ffbc42"/>
    <circle cx="159.7" cy="199.1" r="7.7" fill="#d59434"/>
    <circle cx="156.32189179724082" cy="195.72189179724083" r="2.9" fill="#ffe350"/>
  </g><g>
    <circle cx="209.1" cy="218.8" r="32.31244985340163" fill="#c9a214"/>
    <circle cx="226.8" cy="219.9" r="17.8" fill="#f5c518"/><circle cx="219.7" cy="233.1" r="17.8" fill="#f5c518"/><circle cx="204.3" cy="235.9" r="17.8" fill="#f5c518"/><circle cx="191.3" cy="218.7" r="17.8" fill="#f5c518"/><circle cx="194.4" cy="208.8" r="17.8" fill="#f5c518"/><circle cx="210.7" cy="201.1" r="17.8" fill="#f5c518"/><circle cx="224.5" cy="210.0" r="17.8" fill="#f5c518"/>
    <circle cx="209.1" cy="218.8" r="20.0" fill="#ffdd1b"/>
    <circle cx="209.1" cy="218.8" r="11.0" fill="#d8ad15"/>
    <circle cx="204.25313252198976" cy="213.95313252198977" r="4.2" fill="#ffff20"/>
  </g><g>
    <circle cx="267.3" cy="221.4" r="22.219913920387626" fill="#be6e26"/>
    <circle cx="278.6" cy="226.0" r="12.2" fill="#e8862e"/><circle cx="272.4" cy="232.5" r="12.2" fill="#e8862e"/><circle cx="261.6" cy="232.2" r="12.2" fill="#e8862e"/><circle cx="255.2" cy="222.9" r="12.2" fill="#e8862e"/><circle cx="259.5" cy="212.0" r="12.2" fill="#e8862e"/><circle cx="269.4" cy="209.4" r="12.2" fill="#e8862e"/><circle cx="276.3" cy="213.2" r="12.2" fill="#e8862e"/>
    <circle cx="267.3" cy="221.4" r="13.8" fill="#ff9634"/>
    <circle cx="267.3" cy="221.4" r="7.6" fill="#cc7628"/>
    <circle cx="263.9670129119419" cy="218.06701291194187" r="2.9" fill="#ffb53e"/>
  </g><g>
    <circle cx="170.4" cy="244.3" r="22.405692140571773" fill="#d1c7a5"/>
    <circle cx="182.3" cy="247.5" r="12.3" fill="#fff3c9"/><circle cx="175.6" cy="255.5" r="12.3" fill="#fff3c9"/><circle cx="167.4" cy="256.3" r="12.3" fill="#fff3c9"/><circle cx="158.6" cy="247.9" r="12.3" fill="#fff3c9"/><circle cx="160.7" cy="236.7" r="12.3" fill="#fff3c9"/><circle cx="171.6" cy="232.0" r="12.3" fill="#fff3c9"/><circle cx="178.2" cy="234.8" r="12.3" fill="#fff3c9"/>
    <circle cx="170.4" cy="244.3" r="13.9" fill="#ffffe1"/>
    <circle cx="170.4" cy="244.3" r="7.6" fill="#e0d6b1"/>
    <circle cx="167.03914617891425" cy="240.93914617891426" r="2.9" fill="#ffffff"/>
  </g><circle cx="153.3" cy="144.8" r="3.6" fill="#ffffff" opacity="0.61"/><circle cx="352.8" cy="179.4" r="2.6" fill="#ffffff" opacity="0.60"/><circle cx="111.8" cy="222.7" r="2.9" fill="#ffffff" opacity="0.66"/><circle cx="216.3" cy="103.6" r="3.9" fill="#ffffff" opacity="0.43"/><circle cx="172.0" cy="153.1" r="2.8" fill="#ffffff" opacity="0.53"/><circle cx="75.3" cy="69.7" r="2.6" fill="#ffffff" opacity="0.51"/><circle cx="124.7" cy="38.7" r="2.6" fill="#ffffff" opacity="0.35"/><circle cx="266.8" cy="53.4" r="1.9" fill="#ffffff" opacity="0.65"/><circle cx="135.9" cy="156.2" r="2.5" fill="#ffffff" opacity="0.41"/><circle cx="272.8" cy="148.2" r="2.3" fill="#ffffff" opacity="0.65"/>
</svg>