<svg xmlns="http://www.w3.org/2000/svg" viewBox="0 0 400 400">
  <defs>
    <linearGradient id="bg" x1="0" y1="0" x2="1" y2="1">
      <stop offset="0" stop-color="#fff0f0"/><stop offset="1" stop-color="#ffd0d8"/>
    </linearGradient>
  </defs>
  <rect width="400" height="400" fill="url(#bg)"/>
  <ellipse cx="200" cy="360" rx="115" ry="16" fill="rgba(0,0,0,0.12)"/><g>
    <circle cx="302.2" cy="155.1" r="16.88029953208752" fill="#a41831"/>
    <circle cx="311.2" cy="157.5" r="9.3" fill="#c81d3c"/><circle cx="307.0" cy="163.0" r="9.3" fill="#c81d3c"/><circle cx="299.7" cy="164.0" r="9.3" fill="#c81d3c"/><circle cx="292.9" cy="155.8" r="9.3" fill="#c81d3c"/><circle cx="294.5" cy="149.9" r="9.3" fill="#c81d3c"/><circle cx="301.1" cy="145.9" r="9.3" fill="#c81d3c"/><circle cx="309.8" cy="149.8" r="9.3" fill="#c81d3c"/>
    <circle cx="302.2" cy="155.1" r="10.5" fill="#e02043"/>
    <circle cx="302.2" cy="155.1" r="5.7" fill="#b01a35"/>
    <circle cx="299.66795507018685" cy="152.56795507018685" r="2.2" fill="#ff2751"/>
  </g><g>
    <circle cx="263.5" cy="173.1" r="16.997632905142382" fill="#b82b4b"/>
    <circle cx="272.1" cy="176.9" r="9.3" fill="#e0355c"/><circle cx="268.0" cy="181.3" r="9.3" fill="#e0355c"/><circle cx="258.6" cy="181.0" r="9.3" fill="#e0355c"/><circle cx="254.5" cy="175.6" r="9.3" fill="#e0355c"/><circle cx="255.5" cy="168.3" r="9.3" fill="#e0355c"/><circle cx="262.4" cy="163.8" r="9.3" fill="#e0355c"/><circle cx="269.8" cy="166.2" r="9.3" fill="#e0355c"/>
    <circle cx="263.5" cy="173.1" r="10.5" fill="#fb3b67"/>
    <circle cx="263.5" cy="173.1" r="5.8" fill="#c52f51"/>
    <circle cx="260.95035506422863" cy="170.55035506422863" r="2.2" fill="#ff487c"/>
  </g><g>
    <circle cx="111.6" cy="127.3" r="14.061718105105683" fill="#8a1027"/>
    <circle cx="119.3" cy="128.1" r="7.7" fill="#a8142f"/><circle cx="115.8" cy="133.8" r="7.7" fill="#a8142f"/><circle cx="109.7" cy="134.8" r="7.7" fill="#a8142f"/><circle cx="103.9" cy="127.6" r="7.7" fill="#a8142f"/><circle cx="105.5" cy="122.6" r="7.7" fill="#a8142f"/><circle cx="112.8" cy="119.7" r="7.7" fill="#a8142f"/><circle cx="117.5" cy="122.3" r="7.7" fill="#a8142f"/>
    <circle cx="111.6" cy="127.3" r="8.7" fill="#bc1635"/>
    <circle cx="111.6" cy="127.3" r="4.8" fill="#941229"/>
    <circle cx="109.49074228423414" cy="125.19074228423415" r="1.8" fill="#e31b3f"/>
  </g><g>
    <circle cx="182.5" cy="294" r="12.897175583522767" fill="#c55771"/>
    <circle cx="189.3" cy="296.0" r="7.1" fill="#f06a8a"/><circle cx="184.5" cy="300.8" r="7.1" fill="#f06a8a"/><circle cx="179.8" cy="300.5" r="7.1" fill="#f06a8a"/><circle cx="176.1" cy="297.1" r="7.1" fill="#f06a8a"/><circle cx="176.2" cy="290.7" r="7.1" fill="#f06a8a"/><circle cx="182.7" cy="286.9" r="7.1" fill="#f06a8a"/><circle cx="188.6" cy="290.4" r="7.1" fill="#f06a8a"/>
    <circle cx="182.5" cy="294" r="8.0" fill="#ff779b"/>
    <circle cx="182.5" cy="294" r="4.4" fill="#d35d79"/>
    <circle cx="180.56542366247157" cy="292.0654236624716" r="1.7" fill="#ff8fba"/>
  </g><g>
    <circle cx="196.8" cy="167.6" r="15.282012953422964" fill="#a41831"/>
    <circle cx="204.9" cy="170.0" r="8.4" fill="#c81d3c"/><circle cx="200.0" cy="175.4" r="8.4" fill="#c81d3c"/><circle cx="193.3" cy="175.3" r="8.4" fill="#c81d3c"/><circle cx="188.8" cy="170.1" r="8.4" fill="#c81d3c"/><circle cx="189.4" cy="163.6" r="8.4" fill="#c81d3c"/><circle cx="195.2" cy="159.4" r="8.4" fill="#c81d3c"/><circle cx="203.3" cy="162.2" r="8.4" fill="#c81d3c"/>
    <circle cx="196.8" cy="167.6" r="9.5" fill="#e02043"/>
    <circle cx="196.8" cy="167.6" r="5.2" fill="#b01a35"/>
    <circle cx="194.50769805698656" cy="165.30769805698654" r="2.0" fill="#ff2751"/>
  </g><g>
    <circle cx="265.4" cy="180.5" r="16.91117277997546" fill="#b82b4b"/>
    <circle cx="274.5" cy="182.4" r="9.3" fill="#e0355c"/><circle cx="269.9" cy="188.7" r="9.3" fill="#e0355c"/><circle cx="260.2" cy="188.2" r="9.3" fill="#e0355c"/><circle cx="256.6" cy="183.4" r="9.3" fill="#e0355c"/><circle cx="257.8" cy="175.1" r="9.3" fill="#e0355c"/><circle cx="263.5" cy="171.4" r="9.3" fill="#e0355c"/><circle cx="273.7" cy="176.4" r="9.3" fill="#e0355c"/>
    <circle cx="265.4" cy="180.5" r="10.5" fill="#fb3b67"/>
    <circle cx="265.4" cy="180.5" r="5.7" fill="#c52f51"/>
    <circle cx="262.86332408300365" cy="177.96332408300367" r="2.2" fill="#ff487c"/>
  </g><g>
    <circle cx="200" cy="173.3" r="13.10785570810549" fill="#8a1027"/>
    <circle cx="206.8" cy="175.8" r="7.2" fill="#a8142f"/><circle cx="203.4" cy="179.7" r="7.2" fill="#a8142f"/><circle cx="196.8" cy="179.8" r="7.2" fill="#a8142f"/><circle cx="192.8" cy="173.4" r="7.2" fill="#a8142f"/><circle cx="195.8" cy="167.5" r="7.2" fill="#a8142f"/><circle cx="198.5" cy="166.3" r="7.2" fill="#a8142f"/><circle cx="206.0" cy="169.3" r="7.2" fill="#a8142f"/>
    <circle cx="200" cy="173.3" r="8.1" fill="#bc1635"/>
    <circle cx="200" cy="173.3" r="4.5" fill="#941229"/>
    <circle cx="198.03382164378417" cy="171.33382164378418" r="1.7" fill="#e31b3f"/>
  </g><g>
    <circle cx="146.1" cy="119.7" r="15.511462069582194" fill="#c55771"/>
    <circle cx="154.6" cy="120.0" r="8.5" fill="#f06a8a"/><circle cx="148.5" cy="127.9" r="8.5" fill="#f06a8a"/><circle cx="144.0" cy="128.0" r="8.5" fill="#f06a8a"/><circle cx="137.6" cy="120.3" r="8.5" fill="#f06a8a"/><circle cx="138.9" cy="115.1" r="8.5" fill="#f06a8a"/><circle cx="144.4" cy="111.3" r="8.5" fill="#f06a8a"/><circle cx="152.8" cy="114.4" r="8.5" fill="#f06a8a"/>
    <circle cx="146.1" cy="119.7" r="9.6" fill="#ff779b"/>
    <circle cx="146.1" cy="119.7" r="5.3" fill="#d35d79"/>
    <circle cx="143.77328068956265" cy="117.37328068956268" r="2.0" fill="#ff8fba"/>
  </g><g>
    <circle cx="200.2" cy="166.5" r="13.509467150317505" fill="#a41831"/>
    <circle cx="206.9" cy="169.7" r="7.4" fill="#c81d3c"/><circle cx="201.5" cy="173.8" r="7.4" fill="#c81d3c"/><circle cx="198.0" cy="173.6" r="7.4" fill="#c81d3c"/><circle cx="193.2" cy="169.1" r="7.4" fill="#c81d3c"/><circle cx="194.8" cy="161.4" r="7.4" fill="#c81d3c"/><circle cx="199.2" cy="159.1" r="7.4" fill="#c81d3c"/><circle cx="205.3" cy="161.1" r="7.4" fill="#c81d3c"/>
    <circle cx="200.2" cy="166.5" r="8.4" fill="#e02043"/>
    <circle cx="200.2" cy="166.5" r="4.6" fill="#b01a35"/>
    <circle cx="198.17357992745235" cy="164.47357992745236" r="1.8" fill="#ff2751"/>
  </g><g>
    <circle cx="147" cy="123.8" r="12.788938166806474" fill="#b82b4b"/>
    <circle cx="154.0" cy="124.5" r="7.0" fill="#e0355c"/><circle cx="150.8" cy="129.7" r="7.0" fill="#e0355c"/><circle cx="144.7" cy="130.5" r="7.0" fill="#e0355c"/><circle cx="140.1" cy="125.2" r="7.0" fill="#e0355c"/><circle cx="142.2" cy="118.6" r="7.0" fill="#e0355c"/><circle cx="146.9" cy="116.8" r="7.0" fill="#e0355c"/><circle cx="153.2" cy="120.5" r="7.0" fill="#e0355c"/>
    <circle cx="147" cy="123.8" r="7.9" fill="#fb3b67"/>
    <circle cx="147" cy="123.8" r="4.3" fill="#c52f51"/>
    <circle cx="145.08165927497902" cy="121.88165927497903" r="1.7" fill="#ff487c"/>
  </g><g>
    <circle cx="199.9" cy="160.3" r="12.37634831154719" fill="#8a1027"/>
    <circle cx="205.9" cy="163.4" r="6.8" fill="#a8142f"/><circle cx="203.2" cy="166.2" r="6.8" fill="#a8142f"/><circle cx="197.0" cy="166.5" r="6.8" fill="#a8142f"/><circle cx="193.7" cy="163.1" r="6.8" fill="#a8142f"/><circle cx="195.4" cy="155.2" r="6.8" fill="#a8142f"/><circle cx="199.5" cy="153.5" r="6.8" fill="#a8142f"/><circle cx="205.3" cy="156.1" r="6.8" fill="#a8142f"/>
    <circle cx="199.9" cy="160.3" r="7.7" fill="#bc1635"/>
    <circle cx="199.9" cy="160.3" r="4.2" fill="#941229"/>
    <circle cx="198.04354775326792" cy="158.44354775326792" r="1.6" fill="#e31b3f"/>
  </g><g>
    <circle cx="142.5" cy="225" r="16.164032535627484" fill="#c55771"/>
    <circle cx="150.9" cy="227.9" r="8.9" fill="#f06a8a"/><circle cx="144.6" cy="233.6" r="8.9" fill="#f06a8a"/><circle cx="137.4" cy="232.3" r="8.9" fill="#f06a8a"/><circle cx="134.5" cy="228.8" r="8.9" fill="#f06a8a"/><circle cx="136.3" cy="218.6" r="8.9" fill="#f06a8a"/><circle cx="142.6" cy="216.1" r="8.9" fill="#f06a8a"/><circle cx="150.0" cy="220.2" r="8.9" fill="#f06a8a"/>
    <circle cx="142.5" cy="225" r="10.0" fill="#ff779b"/>
    <circle cx="142.5" cy="225" r="5.5" fill="#d35d79"/>
    <circle cx="140.07539511965587" cy="222.57539511965587" r="2.1" fill="#ff8fba"/>
  </g><g>
    <circle cx="239.6" cy="125.1" r="13.086499693337828" fill="#a41831"/>
    <circle cx="246.8" cy="125.2" r="7.2" fill="#c81d3c"/><circle cx="243.3" cy="131.3" r="7.2" fill="#c81d3c"/><circle cx="236.2" cy="131.4" r="7.2" fill="#c81d3c"/><circle cx="232.9" cy="127.8" r="7.2" fill="#c81d3c"/><circle cx="234.1" cy="120.4" r="7.2" fill="#c81d3c"/><circle cx="239.9" cy="117.9" r="7.2" fill="#c81d3c"/><circle cx="245.8" cy="121.4" r="7.2" fill="#c81d3c"/>
    <circle cx="239.6" cy="125.1" r="8.1" fill="#e02043"/>
    <circle cx="239.6" cy="125.1" r="4.4" fill="#b01a35"/>
    <circle cx="237.6370250459993" cy="123.13702504599932" r="1.7" fill="#ff2751"/>
  </g><g>
    <circle cx="180.2" cy="139.8" r="15.037999363150448" fill="#b82b4b"/>
    <circle cx="187.5" cy="143.7" r="8.3" fill="#e0355c"/><circle cx="185.4" cy="146.3" r="8.3" fill="#e0355c"/><circle cx="175.7" cy="146.7" r="8.3" fill="#e0355c"/><circle cx="171.9" cy="139.5" r="8.3" fill="#e0355c"/><circle cx="175.2" cy="133.2" r="8.3" fill="#e0355c"/><circle cx="180.5" cy="131.5" r="8.3" fill="#e0355c"/><circle cx="185.9" cy="133.8" r="8.3" fill="#e0355c"/>
    <circle cx="180.2" cy="139.8" r="9.3" fill="#fb3b67"/>
    <circle cx="180.2" cy="139.8" r="5.1" fill="#c52f51"/>
    <circle cx="177.9443000955274" cy="137.54430009552743" r="2.0" fill="#ff487c"/>
  </g><g>
    <circle cx="209.1" cy="252.8" r="14.981811835197732" fill="#8a1027"/>
    <circle cx="217.3" cy="253.8" r="8.2" fill="#a8142f"/><circle cx="212.9" cy="260.1" r="8.2" fill="#a8142f"/><circle cx="204.4" cy="259.6" r="8.2" fill="#a8142f"/><circle cx="201.5" cy="255.9" r="8.2" fill="#a8142f"/><circle cx="204.2" cy="246.2" r="8.2" fill="#a8142f"/><circle cx="209.0" cy="244.6" r="8.2" fill="#a8142f"/><circle cx="215.5" cy="247.7" r="8.2" fill="#a8142f"/>
    <circle cx="209.1" cy="252.8" r="9.3" fill="#bc1635"/>
    <circle cx="209.1" cy="252.8" r="5.1" fill="#941229"/>
    <circle cx="206.85272822472032" cy="250.55272822472034" r="1.9" fill="#e31b3f"/>
  </g><g>
    <circle cx="228.7" cy="278" r="16.28575076512061" fill="#c55771"/>
    <circle cx="237.6" cy="278.6" r="9.0" fill="#f06a8a"/><circle cx="233.6" cy="285.5" r="9.0" fill="#f06a8a"/><circle cx="223.1" cy="285.0" r="9.0" fill="#f06a8a"/><circle cx="220.4" cy="281.5" r="9.0" fill="#f06a8a"/><circle cx="222.8" cy="271.2" r="9.0" fill="#f06a8a"/><circle cx="231.1" cy="269.4" r="9.0" fill="#f06a8a"/><circle cx="236.7" cy="274.0" r="9.0" fill="#f06a8a"/>
    <circle cx="228.7" cy="278" r="10.1" fill="#ff779b"/>
    <circle cx="228.7" cy="278" r="5.5" fill="#d35d79"/>
    <circle cx="226.25713738523189" cy="275.5571373852319" r="2.1" fill="#ff8fba"/>
  </g><g>
    <circle cx="225.7" cy="153.9" r="16.593557765474543" fill="#a41831"/>
    <circle cx="234.0" cy="157.7" r="9.1" fill="#c81d3c"/><circle cx="230.0" cy="162.0" r="9.1" fill="#c81d3c"/><circle cx="223.4" cy="162.7" r="9.1" fill="#c81d3c"/><circle cx="216.7" cy="155.5" r="9.1" fill="#c81d3c"/><circle cx="218.8" cy="147.9" r="9.1" fill="#c81d3c"/><circle cx="225.3" cy="144.8" r="9.1" fill="#c81d3c"/><circle cx="232.6" cy="147.9" r="9.1" fill="#c81d3c"/>
    <circle cx="225.7" cy="153.9" r="10.3" fill="#e02043"/>
    <circle cx="225.7" cy="153.9" r="5.6" fill="#b01a35"/>
    <circle cx="223.2109663351788" cy="151.4109663351788" r="2.2" fill="#ff2751"/>
  </g><g>
    <circle cx="193.3" cy="147.3" r="16.967276604147628" fill="#b82b4b"/>
    <circle cx="202.6" cy="148.2" r="9.3" fill="#e0355c"/><circle cx="195.2" cy="156.4" r="9.3" fill="#e0355c"/><circle cx="190.9" cy="156.3" r="9.3" fill="#e0355c"/><circle cx="184.7" cy="151.0" r="9.3" fill="#e0355c"/><circle cx="185.8" cy="141.8" r="9.3" fill="#e0355c"/><circle cx="193.1" cy="138.0" r="9.3" fill="#e0355c"/><circle cx="201.3" cy="142.5" r="9.3" fill="#e0355c"/>
    <circle cx="193.3" cy="147.3" r="10.5" fill="#fb3b67"/>
    <circle cx="193.3" cy="147.3" r="5.8" fill="#c52f51"/>
    <circle cx="190.75490850937786" cy="144.75490850937786" r="2.2" fill="#ff487c"/>
  </g><g>
    <circle cx="221.7" cy="194" r="12.073226961540058" fill="#8a1027"/>
    <circle cx="228.3" cy="194.5" r="6.6" fill="#a8142f"/><circle cx="224.7" cy="199.9" r="6.6" fill="#a8142f"/><circle cx="217.8" cy="199.4" r="6.6" fill="#a8142f"/><circle cx="215.1" cy="194.7" r="6.6" fill="#a8142f"/><circle cx="217.6" cy="188.8" r="6.6" fill="#a8142f"/><circle cx="221.5" cy="187.4" r="6.6" fill="#a8142f"/><circle cx="227.2" cy="190.3" r="6.6" fill="#a8142f"/>
    <circle cx="221.7" cy="194" r="7.5" fill="#bc1635"/>
    <circle cx="221.7" cy="194" r="4.1" fill="#941229"/>
    <circle cx="219.88901595576897" cy="192.18901595576898" r="1.6" fill="#e31b3f"/>
  </g><g>
    <circle cx="243.9" cy="149.1" r="13.450990684097633" fill="#c55771"/>
    <circle cx="251.0" cy="151.1" r="7.4" fill="#f06a8a"/><circle cx="247.2" cy="155.7" r="7.4" fill="#f06a8a"/><circle cx="242.0" cy="156.2" r="7.4" fill="#f06a8a"/><circle cx="236.9" cy="151.4" r="7.4" fill="#f06a8a"/><circle cx="239.4" cy="143.2" r="7.4" fill="#f06a8a"/><circle cx="245.8" cy="141.9" r="7.4" fill="#f06a8a"/><circle cx="250.0" cy="144.8" r="7.4" fill="#f06a8a"/>
    <circle cx="243.9" cy="149.1" r="8.3" fill="#ff779b"/>
    <circle cx="243.9" cy="149.1" r="4.6" fill="#d35d79"/>
    <circle cx="241.88235139738535" cy="147.08235139738534" r="1.7" fill="#ff8fba"/>
  </g><g>
    <circle cx="136.1" cy="162.9" r="16.677721072221175" fill="#a41831"/>
    <circle cx="145.2" cy="164.3" r="9.2" fill="#c81d3c"/><circle cx="141.5" cy="170.3" r="9.2" fill="#c81d3c"/><circle cx="132.8" cy="171.5" r="9.2" fill="#c81d3c"/><circle cx="127.7" cy="166.6" r="9.2" fill="#c81d3c"/><circle cx="130.5" cy="155.6" r="9.2" fill="#c81d3c"/><circle cx="134.8" cy="153.8" r="9.2" fill="#c81d3c"/><circle cx="142.2" cy="156.1" r="9.2" fill="#c81d3c"/>
    <circle cx="136.1" cy="162.9" r="10.3" fill="#e02043"/>
    <circle cx="136.1" cy="162.9" r="5.7" fill="#b01a35"/>
    <circle cx="133.5983418391668" cy="160.39834183916682" r="2.2" fill="#ff2751"/>
  </g><g>
    <circle cx="139.1" cy="107.9" r="14.252895403653383" fill="#b82b4b"/>
    <circle cx="146.9" cy="108.0" r="7.8" fill="#e0355c"/><circle cx="142.3" cy="115.1" r="7.8" fill="#e0355c"/><circle cx="136.0" cy="115.1" r="7.8" fill="#e0355c"/><circle cx="131.4" cy="109.1" r="7.8" fill="#e0355c"/><circle cx="133.0" cy="103.0" r="7.8" fill="#e0355c"/><circle cx="140.2" cy="100.1" r="7.8" fill="#e0355c"/><circle cx="146.0" cy="104.2" r="7.8" fill="#e0355c"/>
    <circle cx="139.1" cy="107.9" r="8.8" fill="#fb3b67"/>
    <circle cx="139.1" cy="107.9" r="4.8" fill="#c52f51"/>
    <circle cx="136.96206568945198" cy="105.762065689452" r="1.9" fill="#ff487c"/>
  </g><g>
    <circle cx="264.5" cy="159.5" r="13.00344790960662" fill="#8a1027"/>
    <circle cx="271.5" cy="160.7" r="7.2" fill="#a8142f"/><circle cx="268.8" cy="165.2" r="7.2" fill="#a8142f"/><circle cx="261.6" cy="166.0" r="7.2" fill="#a8142f"/><circle cx="257.8" cy="161.9" r="7.2" fill="#a8142f"/><circle cx="259.4" cy="154.5" r="7.2" fill="#a8142f"/><circle cx="265.6" cy="152.4" r="7.2" fill="#a8142f"/><circle cx="270.1" cy="155.1" r="7.2" fill="#a8142f"/>
    <circle cx="264.5" cy="159.5" r="8.1" fill="#bc1635"/>
    <circle cx="264.5" cy="159.5" r="4.4" fill="#941229"/>
    <circle cx="262.549482813559" cy="157.549482813559" r="1.7" fill="#e31b3f"/>
  </g><g>
    <circle cx="110.3" cy="211.8" r="13.93923901882954" fill="#c55771"/>
    <circle cx="118.0" cy="212.2" r="7.7" fill="#f06a8a"/><circle cx="113.6" cy="218.7" r="7.7" fill="#f06a8a"/><circle cx="107.5" cy="218.9" r="7.7" fill="#f06a8a"/><circle cx="103.4" cy="215.1" r="7.7" fill="#f06a8a"/><circle cx="104.2" cy="207.1" r="7.7" fill="#f06a8a"/><circle cx="111.7" cy="204.3" r="7.7" fill="#f06a8a"/><circle cx="116.5" cy="207.3" r="7.7" fill="#f06a8a"/>
    <circle cx="110.3" cy="211.8" r="8.6" fill="#ff779b"/>
    <circle cx="110.3" cy="211.8" r="4.7" fill="#d35d79"/>
    <circle cx="108.20911414717557" cy="209.70911414717557" r="1.8" fill="#ff8fba"/>
  </g><g>
    <circle cx="234.5" cy="273.2" r="15.053208602359518" fill="#a41831"/>
    <circle cx="242.8" cy="273.7" r="8.3" fill="#c81d3c"/><circle cx="239.1" cy="280.1" r="8.3" fill="#c81d3c"/><circle cx="230.3" cy="280.4" r="8.3" fill="#c81d3c"/><circle cx="226.6" cy="275.7" r="8.3" fill="#c81d3c"/><circle cx="227.6" cy="268.6" r="8.3" fill="#c81d3c"/><circle cx="234.2" cy="264.9" r="8.3" fill="#c81d3c"/><circle cx="240.7" cy="267.7" r="8.3" fill="#c81d3c"/>
    <circle cx="234.5" cy="273.2" r="9.3" fill="#e02043"/>
    <circle cx="234.5" cy="273.2" r="5.1" fill="#b01a35"/>
    <circle cx="232.24201870964606" cy="270.94201870964605" r="2.0" fill="#ff2751"/>
  </g><g>
    <circle cx="251.3" cy="237.2" r="14.77652840479277" fill="#b82b4b"/>
    <circle cx="258.8" cy="240.4" r="8.1" fill="#e0355c"/><circle cx="254.4" cy="244.7" r="8.1" fill="#e0355c"/><circle cx="246.8" cy="243.9" r="8.1" fill="#e0355c"/><circle cx="243.5" cy="239.3" r="8.1" fill="#e0355c"/><circle cx="245.5" cy="231.5" r="8.1" fill="#e0355c"/><circle cx="249.5" cy="229.3" r="8.1" fill="#e0355c"/><circle cx="258.2" cy="232.9" r="8.1" fill="#e0355c"/>
    <circle cx="251.3" cy="237.2" r="9.2" fill="#fb3b67"/>
    <circle cx="251.3" cy="237.2" r="5.0" fill="#c52f51"/>
    <circle cx="249.08352073928108" cy="234.98352073928106" r="1.9" fill="#ff487c"/>
  </g><g>
    <circle cx="212.7" cy="221.8" r="16.568469941150397" fill="#8a1027"/>
    <circle cx="221.5" cy="224.2" r="9.1" fill="#a8142f"/><circle cx="214.8" cy="230.7" r="9.1" fill="#a8142f"/><circle cx="207.2" cy="229.1" r="9.1" fill="#a8142f"/><circle cx="203.6" cy="221.7" r="9.1" fill="#a8142f"/><circle cx="206.8" cy="214.8" r="9.1" fill="#a8142f"/><circle cx="212.8" cy="212.7" r="9.1" fill="#a8142f"/><circle cx="219.2" cy="215.4" r="9.1" fill="#a8142f"/>
    <circle cx="212.7" cy="221.8" r="10.3" fill="#bc1635"/>
    <circle cx="212.7" cy="221.8" r="5.6" fill="#941229"/>
    <circle cx="210.21472950882742" cy="219.31472950882744" r="2.2" fill="#e31b3f"/>
  </g><g>
    <circle cx="177.1" cy="279" r="13.16868548328057" fill="#c55771"/>
    <circle cx="184.2" cy="280.3" r="7.2" fill="#f06a8a"/><circle cx="178.6" cy="286.1" r="7.2" fill="#f06a8a"/><circle cx="175.3" cy="286.0" r="7.2" fill="#f06a8a"/><circle cx="169.9" cy="279.1" r="7.2" fill="#f06a8a"/><circle cx="171.8" cy="274.1" r="7.2" fill="#f06a8a"/><circle cx="177.7" cy="271.8" r="7.2" fill="#f06a8a"/><circle cx="182.4" cy="274.1" r="7.2" fill="#f06a8a"/>
    <circle cx="177.1" cy="279" r="8.2" fill="#ff779b"/>
    <circle cx="177.1" cy="279" r="4.5" fill="#d35d79"/>
    <circle cx="175.1246971775079" cy="277.0246971775079" r="1.7" fill="#ff8fba"/>
  </g><g>
    <circle cx="250.8" cy="137.3" r="14.722260477021337" fill="#a41831"/>
    <circle cx="258.7" cy="139.3" r="8.1" fill="#c81d3c"/><circle cx="255.5" cy="143.9" r="8.1" fill="#c81d3c"/><circle cx="247.2" cy="144.5" r="8.1" fill="#c81d3c"/><circle cx="243.4" cy="140.7" r="8.1" fill="#c81d3c"/><circle cx="244.9" cy="131.7" r="8.1" fill="#c81d3c"/><circle cx="250.2" cy="129.2" r="8.1" fill="#c81d3c"/><circle cx="256.4" cy="131.4" r="8.1" fill="#c81d3c"/>
    <circle cx="250.8" cy="137.3" r="9.1" fill="#e02043"/>
    <circle cx="250.8" cy="137.3" r="5.0" fill="#b01a35"/>
    <circle cx="248.5916609284468" cy="135.0916609284468" r="1.9" fill="#ff2751"/>
  </g><g>
    <circle cx="215.4" cy="152.1" r="14.625837958185002" fill="#b82b4b"/>
    <circle cx="223.4" cy="152.5" r="8.0" fill="#e0355c"/><circle cx="217.3" cy="159.9" r="8.0" fill="#e0355c"/><circle cx="210.9" cy="158.8" r="8.0" fill="#e0355c"/><circle cx="207.5" cy="153.3" r="8.0" fill="#e0355c"/><circle cx="209.0" cy="147.2" r="8.0" fill="#e0355c"/><circle cx="215.5" cy="144.1" r="8.0" fill="#e0355c"/><circle cx="221.9" cy="147.3" r="8.0" fill="#e0355c"/>
    <circle cx="215.4" cy="152.1" r="9.1" fill="#fb3b67"/>
    <circle cx="215.4" cy="152.1" r="5.0" fill="#c52f51"/>
    <circle cx="213.20612430627224" cy="149.90612430627223" r="1.9" fill="#ff487c"/>
  </g><g>
    <circle cx="200" cy="184.7" r="14.382776523008943" fill="#8a1027"/>
    <circle cx="207.7" cy="186.3" r="7.9" fill="#a8142f"/><circle cx="204.3" cy="191.4" r="7.9" fill="#a8142f"/><circle cx="195.0" cy="190.8" r="7.9" fill="#a8142f"/><circle cx="192.2" cy="186.3" r="7.9" fill="#a8142f"/><circle cx="195.0" cy="178.5" r="7.9" fill="#a8142f"/><circle cx="201.6" cy="176.9" r="7.9" fill="#a8142f"/><circle cx="206.6" cy="180.4" r="7.9" fill="#a8142f"/>
    <circle cx="200" cy="184.7" r="8.9" fill="#bc1635"/>
    <circle cx="200" cy="184.7" r="4.9" fill="#941229"/>
    <circle cx="197.84258352154865" cy="182.54258352154864" r="1.9" fill="#e31b3f"/>
  </g><g>
    <circle cx="217.5" cy="190.3" r="12.536600177874789" fill="#c55771"/>
    <circle cx="224.4" cy="190.8" r="6.9" fill="#f06a8a"/><circle cx="221.0" cy="196.2" r="6.9" fill="#f06a8a"/><circle cx="213.4" cy="195.9" r="6.9" fill="#f06a8a"/><circle cx="210.6" cy="190.5" r="6.9" fill="#f06a8a"/><circle cx="212.4" cy="185.6" r="6.9" fill="#f06a8a"/><circle cx="218.3" cy="183.5" r="6.9" fill="#f06a8a"/><circle cx="223.8" cy="187.4" r="6.9" fill="#f06a8a"/>
    <circle cx="217.5" cy="190.3" r="7.8" fill="#ff779b"/>
    <circle cx="217.5" cy="190.3" r="4.3" fill="#d35d79"/>
    <circle cx="215.61950997331877" cy="188.41950997331878" r="1.6" fill="#ff8fba"/>
  </g><g>
    <circle cx="196.6" cy="253.3" r="13.498807823518291" fill="#a41831"/>
    <circle cx="203.2" cy="256.7" r="7.4" fill="#c81d3c"/><circle cx="200.9" cy="259.4" r="7.4" fill="#c81d3c"/><circle cx="194.7" cy="260.5" r="7.4" fill="#c81d3c"/><circle cx="189.2" cy="253.2" r="7.4" fill="#c81d3c"/><circle cx="191.8" cy="247.6" r="7.4" fill="#c81d3c"/><circle cx="195.0" cy="246.1" r="7.4" fill="#c81d3c"/><circle cx="203.3" cy="250.0" r="7.4" fill="#c81d3c"/>
    <circle cx="196.6" cy="253.3" r="8.4" fill="#e02043"/>
    <circle cx="196.6" cy="253.3" r="4.6" fill="#b01a35"/>
    <circle cx="194.57517882647224" cy="251.27517882647226" r="1.8" fill="#ff2751"/>
  </g><g>
    <circle cx="170" cy="219.1" r="13.124970049131662" fill="#b82b4b"/>
    <circle cx="177.2" cy="219.8" r="7.2" fill="#e0355c"/><circle cx="172.1" cy="226.0" r="7.2" fill="#e0355c"/><circle cx="166.5" cy="225.4" r="7.2" fill="#e0355c"/><circle cx="162.9" cy="220.6" r="7.2" fill="#e0355c"/><circle cx="163.8" cy="215.3" r="7.2" fill="#e0355c"/><circle cx="171.1" cy="212.0" r="7.2" fill="#e0355c"/><circle cx="176.6" cy="216.3" r="7.2" fill="#e0355c"/>
    <circle cx="170" cy="219.1" r="8.1" fill="#fb3b67"/>
    <circle cx="170" cy="219.1" r="4.5" fill="#c52f51"/>
    <circle cx="168.03125449263024" cy="217.13125449263023" r="1.7" fill="#ff487c"/>
  </g><g>
    <circle cx="198.7" cy="237.7" r="15.87366452254355" fill="#8a1027"/>
    <circle cx="207.4" cy="238.8" r="8.7" fill="#a8142f"/><circle cx="203.4" cy="245.1" r="8.7" fill="#a8142f"/><circle cx="193.6" cy="244.8" r="8.7" fill="#a8142f"/><circle cx="190.0" cy="237.5" r="8.7" fill="#a8142f"/><circle cx="192.2" cy="231.9" r="8.7" fill="#a8142f"/><circle cx="197.7" cy="229.0" r="8.7" fill="#a8142f"/><circle cx="206.1" cy="233.0" r="8.7" fill="#a8142f"/>
    <circle cx="198.7" cy="237.7" r="9.8" fill="#bc1635"/>
    <circle cx="198.7" cy="237.7" r="5.4" fill="#941229"/>
    <circle cx="196.31895032161844" cy="235.31895032161844" r="2.1" fill="#e31b3f"/>
  </g><g>
    <circle cx="168.2" cy="242.9" r="15.776340996846557" fill="#c55771"/>
    <circle cx="176.0" cy="246.6" r="8.7" fill="#f06a8a"/><circle cx="171.6" cy="250.9" r="8.7" fill="#f06a8a"/><circle cx="163.3" cy="250.1" r="8.7" fill="#f06a8a"/><circle cx="159.9" cy="245.4" r="8.7" fill="#f06a8a"/><circle cx="160.8" cy="238.4" r="8.7" fill="#f06a8a"/><circle cx="170.6" cy="234.5" r="8.7" fill="#f06a8a"/><circle cx="175.6" cy="238.4" r="8.7" fill="#f06a8a"/>
    <circle cx="168.2" cy="242.9" r="9.8" fill="#ff779b"/>
    <circle cx="168.2" cy="242.9" r="5.4" fill="#d35d79"/>
    <circle cx="165.833548850473" cy="240.533548850473" r="2.1" fill="#ff8fba"/>
  </g><g>
    <circle cx="194.8" cy="202.1" r="16.19653858989477" fill="#a41831"/>
    <circle cx="203.1" cy="205.3" r="8.9" fill="#c81d3c"/><circle cx="197.0" cy="210.7" r="8.9" fill="#c81d3c"/><circle cx="191.6" cy="210.4" r="8.9" fill="#c81d3c"/><circle cx="186.2" cy="204.4" r="8.9" fill="#c81d3c"/><circle cx="188.7" cy="195.6" r="8.9" fill="#c81d3c"/><circle cx="194.1" cy="193.2" r="8.9" fill="#c81d3c"/><circle cx="200.5" cy="195.2" r="8.9" fill="#c81d3c"/>
    <circle cx="194.8" cy="202.1" r="10.0" fill="#e02043"/>
    <circle cx="194.8" cy="202.1" r="5.5" fill="#b01a35"/>
    <circle cx="192.37051921151578" cy="199.67051921151577" r="2.1" fill="#ff2751"/>
  </g><g>
    <circle cx="199.9" cy="160.2" r="12.94053896726109" fill="#b82b4b"/>
    <circle cx="207.0" cy="160.6" r="7.1" fill="#e0355c"/><circle cx="201.5" cy="167.1" r="7.1" fill="#e0355c"/><circle cx="197.4" cy="166.9" r="7.1" fill="#e0355c"/><circle cx="193.2" cy="162.7" r="7.1" fill="#e0355c"/><circle cx="195.2" cy="154.9" r="7.1" fill="#e0355c"/><circle cx="198.9" cy="153.2" r="7.1" fill="#e0355c"/><circle cx="205.1" cy="155.4" r="7.1" fill="#e0355c"/>
    <circle cx="199.9" cy="160.2" r="8.0" fill="#fb3b67"/>
    <circle cx="199.9" cy="160.2" r="4.4" fill="#c52f51"/>
    <circle cx="197.95891915491083" cy="158.2589191549108" r="1.7" fill="#ff487c"/>
  </g><g>
    <circle cx="208.3" cy="136.4" r="13.677214519586414" fill="#8a1027"/>
    <circle cx="215.4" cy="138.8" r="7.5" fill="#a8142f"/><circle cx="212.7" cy="142.5" r="7.5" fill="#a8142f"/><circle cx="205.5" cy="143.4" r="7.5" fill="#a8142f"/><circle cx="200.9" cy="137.8" r="7.5" fill="#a8142f"/><circle cx="201.6" cy="133.1" r="7.5" fill="#a8142f"/><circle cx="209.2" cy="128.9" r="7.5" fill="#a8142f"/><circle cx="214.4" cy="132.0" r="7.5" fill="#a8142f"/>
    <circle cx="208.3" cy="136.4" r="8.5" fill="#bc1635"/>
    <circle cx="208.3" cy="136.4" r="4.7" fill="#941229"/>
    <circle cx="206.24841782206204" cy="134.34841782206203" r="1.8" fill="#e31b3f"/>
  </g><g>
    <circle cx="205.8" cy="165.6" r="13.120963173452765" fill="#c55771"/>
    <circle cx="212.2" cy="168.9" r="7.2" fill="#f06a8a"/><circle cx="207.1" cy="172.7" r="7.2" fill="#f06a8a"/><circle cx="202.0" cy="171.7" r="7.2" fill="#f06a8a"/><circle cx="198.7" cy="166.7" r="7.2" fill="#f06a8a"/><circle cx="201.0" cy="160.2" r="7.2" fill="#f06a8a"/><circle cx="205.3" cy="158.4" r="7.2" fill="#f06a8a"/><circle cx="211.0" cy="160.6" r="7.2" fill="#f06a8a"/>
    <circle cx="205.8" cy="165.6" r="8.1" fill="#ff779b"/>
    <circle cx="205.8" cy="165.6" r="4.5" fill="#d35d79"/>
    <circle cx="203.83185552398209" cy="163.63185552398207" r="1.7" fill="#ff8fba"/>
  </g><g>
    <circle cx="138" cy="160.2" r="12.42358310194686" fill="#a41831"/>
    <circle cx="144.4" cy="162.5" r="6.8" fill="#c81d3c"/><circle cx="139.7" cy="166.8" r="6.8" fill="#c81d3c"/><circle cx="134.3" cy="166.0" r="6.8" fill="#c81d3c"/><circle cx="131.3" cy="161.7" r="6.8" fill="#c81d3c"/><circle cx="132.3" cy="156.5" r="6.8" fill="#c81d3c"/><circle cx="136.9" cy="153.4" r="6.8" fill="#c81d3c"/><circle cx="144.3" cy="157.5" r="6.8" fill="#c81d3c"/>
    <circle cx="138" cy="160.2" r="7.7" fill="#e02043"/>
    <circle cx="138" cy="160.2" r="4.2" fill="#b01a35"/>
    <circle cx="136.13646253470796" cy="158.33646253470795" r="1.6" fill="#ff2751"/>
  </g><g>
    <circle cx="273.5" cy="204.8" r="14.219499140046537" fill="#b82b4b"/>
    <circle cx="280.5" cy="208.4" r="7.8" fill="#e0355c"/><circle cx="276.6" cy="212.0" r="7.8" fill="#e0355c"/><circle cx="270.2" cy="211.9" r="7.8" fill="#e0355c"/><circle cx="265.7" cy="205.0" r="7.8" fill="#e0355c"/><circle cx="268.0" cy="199.3" r="7.8" fill="#e0355c"/><circle cx="273.8" cy="197.0" r="7.8" fill="#e0355c"/><circle cx="280.5" cy="201.2" r="7.8" fill="#e0355c"/>
    <circle cx="273.5" cy="204.8" r="8.8" fill="#fb3b67"/>
    <circle cx="273.5" cy="204.8" r="4.8" fill="#c52f51"/>
    <circle cx="271.367075128993" cy="202.66707512899302" r="1.8" fill="#ff487c"/>
  </g><g>
    <circle cx="265.6" cy="221.9" r="13.953770739492029" fill="#8a1027"/>
    <circle cx="273.0" cy="224.1" r="7.7" fill="#a8142f"/><circle cx="267.9" cy="229.2" r="7.7" fill="#a8142f"/><circle cx="263.7" cy="229.3" r="7.7" fill="#a8142f"/><circle cx="258.5" cy="224.9" r="7.7" fill="#a8142f"/><circle cx="260.6" cy="216.1" r="7.7" fill="#a8142f"/><circle cx="267.4" cy="214.4" r="7.7" fill="#a8142f"/><circle cx="272.7" cy="218.9" r="7.7" fill="#a8142f"/>
    <circle cx="265.6" cy="221.9" r="8.7" fill="#bc1635"/>
    <circle cx="265.6" cy="221.9" r="4.7" fill="#941229"/>
    <circle cx="263.5069343890762" cy="219.8069343890762" r="1.8" fill="#e31b3f"/>
  </g><g>
    <circle cx="237.5" cy="147.1" r="12.845010010525584" fill="#c55771"/>
    <circle cx="244.4" cy="148.5" r="7.1" fill="#f06a8a"/><circle cx="239.5" cy="153.9" r="7.1" fill="#f06a8a"/><circle cx="234.4" cy="153.4" r="7.1" fill="#f06a8a"/><circle cx="230.8" cy="149.4" r="7.1" fill="#f06a8a"/><circle cx="233.2" cy="141.5" r="7.1" fill="#f06a8a"/><circle cx="236.7" cy="140.1" r="7.1" fill="#f06a8a"/><circle cx="243.4" cy="143.2" r="7.1" fill="#f06a8a"/>
    <circle cx="237.5" cy="147.1" r="8.0" fill="#ff779b"/>
    <circle cx="237.5" cy="147.1" r="4.4" fill="#d35d79"/>
    <circle cx="235.57324849842115" cy="145.17324849842115" r="1.7" fill="#ff8fba"/>
  </g><g>
    <circle cx="229.6" cy="190.2" r="12.883698768448085" fill="#a41831"/>
    <circle cx="236.7" cy="190.3" r="7.1" fill="#c81d3c"/><circle cx="232.7" cy="196.6" r="7.1" fill="#c81d3c"/><circle cx="227.4" cy="196.9" r="7.1" fill="#c81d3c"/><circle cx="223.1" cy="193.0" r="7.1" fill="#c81d3c"/><circle cx="224.5" cy="185.3" r="7.1" fill="#c81d3c"/><circle cx="231.3" cy="183.3" r="7.1" fill="#c81d3c"/><circle cx="235.4" cy="186.1" r="7.1" fill="#c81d3c"/>
    <circle cx="229.6" cy="190.2" r="8.0" fill="#e02043"/>
    <circle cx="229.6" cy="190.2" r="4.4" fill="#b01a35"/>
    <circle cx="227.66744518473277" cy="188.26744518473276" r="1.7" fill="#ff2751"/>
  </g><g>
    <circle cx="185.1" cy="251.4" r="15.830761527642608" fill="#b82b4b"/>
    <circle cx="193.1" cy="254.8" r="8.7" fill="#e0355c"/><circle cx="190.0" cy="258.6" r="8.7" fill="#e0355c"/><circle cx="180.6" cy="258.9" r="8.7" fill="#e0355c"/><circle cx="176.7" cy="253.8" r="8.7" fill="#e0355c"/><circle cx="178.0" cy="246.4" r="8.7" fill="#e0355c"/><circle cx="183.2" cy="242.9" r="8.7" fill="#e0355c"/><circle cx="193.0" cy="247.8" r="8.7" fill="#e0355c"/>
    <circle cx="185.1" cy="251.4" r="9.8" fill="#fb3b67"/>
    <circle cx="185.1" cy="251.4" r="5.4" fill="#c52f51"/>
    <circle cx="182.7253857708536" cy="249.0253857708536" r="2.1" fill="#ff487c"/>
  </g>
      <circle cx="150.7" cy="223.0" r="1.5" fill="#ffffff" opacity="0.43"/><circle cx="185.2" cy="58.7" r="1.9" fill="#ffffff" opacity="0.56"/><circle cx="89.2" cy="137.1" r="3.1" fill="#ffffff" opacity="0.63"/><circle cx="160.6" cy="76.1" r="2.0" fill="#ffffff" opacity="0.45"/><circle cx="191.2" cy="244.7" r="2.1" fill="#ffffff" opacity="0.37"/><circle cx="267.6" cy="151.6" r="2.5" fill="#ffffff" opacity="0.60"/><circle cx="132.4" cy="256.1" r="2.4" fill="#ffffff" opacity="0.63"/><circle cx="339.2" cy="171.3" r="2.6" fill="#ffffff" opacity="0.35"/><circle cx="141.9" cy="59.2" r="3.1" fill="#ffffff" opacity="0.55"/><circle cx="299.4" cy="90.7" r="1.6" fill="#ffffff" opacity="0.54"/><circle cx="282.6" cy="88.7" r="3.5" fill="#ffffff" opacity="0.72"/><circle cx="307.1" cy="74.1" r="2.4" fill="#ffffff" opacity="0.51"/>
</svg>