<svg xmlns="http://www.w3.org/2000/svg" viewBox="0 0 160 160">
  <defs><clipPath id="c"><circle cx="80" cy="80" r="80"/></clipPath></defs>
  <g clip-path="url(#c)"><rect width="160" height="160" fill="#3c1430"/>
    <rect x="46" y="118" width="68" height="10" rx="4" fill="#6b4a2f"/>
    <path d="M52 118 v-44 a28 34 0 0 1 56 0 v44 Z" fill="rgba(255,255,255,0.2)" stroke="rgba(255,255,255,0.7)" stroke-width="2"/>
    <path d="M80 112 q-3 -18 0 -34" stroke="#3e7d4f" stroke-width="3.4" fill="none"/>
    <g>
    <circle cx="80" cy="70" r="13" fill="#b82b4b"/>
    <circle cx="86.9" cy="71.7" r="7.2" fill="#e0355c"/><circle cx="82.6" cy="76.7" r="7.2" fill="#e0355c"/><circle cx="75.9" cy="75.9" r="7.2" fill="#e0355c"/><circle cx="73.0" cy="71.5" r="7.2" fill="#e0355c"/><circle cx="75.1" cy="64.8" r="7.2" fill="#e0355c"/><circle cx="80.6" cy="62.9" r="7.2" fill="#e0355c"/><circle cx="86.5" cy="67.1" r="7.2" fill="#e0355c"/>
    <circle cx="80" cy="70" r="8.1" fill="#fb3b67"/>
    <circle cx="80" cy="70" r="4.4" fill="#c52f51"/>
    <circle cx="78.05" cy="68.05" r="1.7" fill="#ff487c"/>
  </g></g>
</svg>