<svg xmlns="http://www.w3.org/2000/svg" viewBox="0 0 160 160">
  <defs><clipPath id="c"><circle cx="80" cy="80" r="80"/></clipPath></defs>
  <g clip-path="url(#c)"><rect width="160" height="160" fill="#e7f5e1"/>
    <path d="M56 96 h48 l-7 40 h-34 Z" fill="#b06fd1"/>
    <path d="M80 96 q-4 -30 0 -48" stroke="#3e7d4f" stroke-width="4" fill="none"/>
    <path transform="translate(78 66) rotate(-150)"
    d="M0 0 C 13 -11.700000000000001, 23.400000000000002 -5.2, 26 0 C 23.400000000000002 5.2, 13 11.700000000000001, 0 0 Z"
    fill="#4c9160"/><path transform="translate(82 78) rotate(-30)"
    d="M0 0 C 13 -11.700000000000001, 23.400000000000002 -5.2, 26 0 C 23.400000000000002 5.2, 13 11.700000000000001, 0 0 Z"
    fill="#3a7a4d"/><path transform="translate(78 52) rotate(-120)"
    d="M0 0 C 11 -9.9, 19.8 -4.4, 22 0 C 19.8 4.4, 11 9.9, 0 0 Z"
    fill="#61a873"/></g>
</svg>