<svg xmlns="http://www.w3.org/2000/svg" viewBox="0 0 400 400">
  <defs>
    <linearGradient id="bg" x1="0" y1="0" x2="1" y2="1">
      <stop offset="0" stop-color="#fff1e0"/><stop offset="1" stop-color="#ffddb8"/>
    </linearGradient>
  </defs>
  <rect width="400" height="400" fill="url(#bg)"/>
  
    <ellipse cx="200" cy="345" rx="125" ry="20" fill="rgba(0,0,0,0.12)"/>
    <path d="M100 245 h200 l-25 95 h-150 Z" fill="#b97b3f"/>
    <path d="M100 245 h200 l-6 22 h-188 Z" fill="#a06430"/>
    <path d="M112 268 h176 M108 292 h182 M116 316 h166" stroke="#8a5527" stroke-width="7" fill="none"/>
    <path d="M135 245 a65 78 0 0 1 130 0" stroke="#a06430" stroke-width="10" fill="none"/>
    <path transform="translate(145.53021722024326 244.08963645424512) rotate(120.17403426580131)"
    d="M0 0 C 23.47553462954238 -21.127981166588143, 42.255962333176285 -9.390213851816952, 46.95106925908476 0 C 42.255962333176285 9.390213851816952, 23.47553462954238 21.127981166588143, 0 0 Z"
    fill="#3e7d4f"/><path transform="translate(176.12375459313103 250.97848476739944) rotate(91.66433533653617)"
    d="M0 0 C 19.88347400468774 -17.89512660421897, 35.79025320843794 -7.953389601875097, 39.76694800937548 0 C 35.79025320843794 7.953389601875097, 19.88347400468774 17.89512660421897, 0 0 Z"
    fill="#549b63"/><path transform="translate(218.27200406351005 239.87682836348526) rotate(51.434739204123616)"
    d="M0 0 C 26.462644044775516 -23.816379640297964, 47.63275928059593 -10.585057617910207, 52.92528808955103 0 C 47.63275928059593 10.585057617910207, 26.462644044775516 23.816379640297964, 0 0 Z"
    fill="#2f6b41"/><path transform="translate(226.23857965840466 233.9216496750954) rotate(41.69232901185751)"
    d="M0 0 C 20.580697594676167 -18.52262783520855, 37.0452556704171 -8.232279037870468, 41.16139518935233 0 C 37.0452556704171 8.232279037870468, 20.580697594676167 18.52262783520855, 0 0 Z"
    fill="#3e7d4f"/><path transform="translate(224.3065472523637 235.5601915820472) rotate(44.20747747644782)"
    d="M0 0 C 26.334781422279775 -23.7013032800518, 47.4026065601036 -10.53391256891191, 52.66956284455955 0 C 47.4026065601036 10.53391256891191, 26.334781422279775 23.7013032800518, 0 0 Z"
    fill="#549b63"/><path transform="translate(241.9730254168669 207.088226021949) rotate(7.9891066532582045)"
    d="M0 0 C 22.998011962976307 -20.698210766678677, 41.396421533357355 -9.199204785190522, 45.99602392595261 0 C 41.396421533357355 9.199204785190522, 22.998011962976307 20.698210766678677, 0 0 Z"
    fill="#2f6b41"/><path transform="translate(124.22066574748851 171.7445261030861) rotate(213.64385384134948)"
    d="M0 0 C 17.37745912792161 -15.63971321512945, 31.2794264302589 -6.950983651168645, 34.75491825584322 0 C 31.2794264302589 6.950983651168645, 17.37745912792161 15.63971321512945, 0 0 Z"
    fill="#3e7d4f"/><path transform="translate(235.7106238643019 177.08289804012193) rotate(333.2976948749274)"
    d="M0 0 C 18.948429748648778 -17.053586773783902, 34.107173547567804 -7.579371899459511, 37.896859497297555 0 C 34.107173547567804 7.579371899459511, 18.948429748648778 17.053586773783902, 0 0 Z"
    fill="#549b63"/><g>
    <circle cx="184.2" cy="157.7" r="27.67830586573109" fill="#bc5785"/>
    <circle cx="199.4" cy="157.9" r="15.2" fill="#e56aa2"/><circle cx="188.3" cy="172.4" r="15.2" fill="#e56aa2"/><circle cx="175.9" cy="170.5" r="15.2" fill="#e56aa2"/><circle cx="169.1" cy="159.8" r="15.2" fill="#e56aa2"/><circle cx="171.1" cy="150.0" r="15.2" fill="#e56aa2"/><circle cx="184.9" cy="142.5" r="15.2" fill="#e56aa2"/><circle cx="194.2" cy="146.2" r="15.2" fill="#e56aa2"/>
    <circle cx="184.2" cy="157.7" r="17.2" fill="#ff77b5"/>
    <circle cx="184.2" cy="157.7" r="9.4" fill="#ca5d8f"/>
    <circle cx="180.0482541201403" cy="153.5482541201403" r="3.6" fill="#ff8fdb"/>
  </g><g>
    <circle cx="137.8" cy="158" r="26.27466901484877" fill="#a41831"/>
    <circle cx="150.5" cy="164.8" r="14.5" fill="#c81d3c"/><circle cx="144.3" cy="170.9" r="14.5" fill="#c81d3c"/><circle cx="130.5" cy="170.5" r="14.5" fill="#c81d3c"/><circle cx="123.4" cy="159.7" r="14.5" fill="#c81d3c"/><circle cx="124.9" cy="151.5" r="14.5" fill="#c81d3c"/><circle cx="135.5" cy="143.7" r="14.5" fill="#c81d3c"/><circle cx="149.4" cy="149.3" r="14.5" fill="#c81d3c"/>
    <circle cx="137.8" cy="158" r="16.3" fill="#e02043"/>
    <circle cx="137.8" cy="158" r="8.9" fill="#b01a35"/>
    <circle cx="133.85879964777268" cy="154.05879964777267" r="3.4" fill="#ff2751"/>
  </g><g>
    <circle cx="121.1" cy="181.6" r="31.03569552861154" fill="#c9a214"/>
    <circle cx="137.3" cy="187.0" r="17.1" fill="#f5c518"/><circle cx="127.9" cy="197.2" r="17.1" fill="#f5c518"/><circle cx="113.2" cy="196.7" r="17.1" fill="#f5c518"/><circle cx="105.1" cy="187.5" r="17.1" fill="#f5c518"/><circle cx="105.8" cy="174.0" r="17.1" fill="#f5c518"/><circle cx="119.1" cy="164.6" r="17.1" fill="#f5c518"/><circle cx="135.8" cy="173.0" r="17.1" fill="#f5c518"/>
    <circle cx="121.1" cy="181.6" r="19.2" fill="#ffdd1b"/>
    <circle cx="121.1" cy="181.6" r="10.6" fill="#d8ad15"/>
    <circle cx="116.44464567070827" cy="176.94464567070827" r="4.0" fill="#ffff20"/>
  </g><g>
    <circle cx="209.1" cy="195.8" r="23.862329229246825" fill="#bc5785"/>
    <circle cx="221.9" cy="198.7" r="13.1" fill="#e56aa2"/><circle cx="211.9" cy="208.6" r="13.1" fill="#e56aa2"/><circle cx="204.5" cy="208.1" r="13.1" fill="#e56aa2"/><circle cx="196.5" cy="199.4" r="13.1" fill="#e56aa2"/><circle cx="200.5" cy="185.9" r="13.1" fill="#e56aa2"/><circle cx="210.9" cy="182.8" r="13.1" fill="#e56aa2"/><circle cx="221.0" cy="190.3" r="13.1" fill="#e56aa2"/>
    <circle cx="209.1" cy="195.8" r="14.8" fill="#ff77b5"/>
    <circle cx="209.1" cy="195.8" r="8.1" fill="#ca5d8f"/>
    <circle cx="205.52065061561296" cy="192.22065061561298" r="3.1" fill="#ff8fdb"/>
  </g><g>
    <circle cx="178" cy="200" r="31.94624912366271" fill="#a41831"/>
    <circle cx="194.3" cy="206.6" r="17.6" fill="#c81d3c"/><circle cx="186.2" cy="215.5" r="17.6" fill="#c81d3c"/><circle cx="167.0" cy="213.7" r="17.6" fill="#c81d3c"/><circle cx="160.9" cy="204.1" r="17.6" fill="#c81d3c"/><circle cx="162.4" cy="191.9" r="17.6" fill="#c81d3c"/><circle cx="177.5" cy="182.4" r="17.6" fill="#c81d3c"/><circle cx="191.0" cy="188.2" r="17.6" fill="#c81d3c"/>
    <circle cx="178" cy="200" r="19.8" fill="#e02043"/>
    <circle cx="178" cy="200" r="10.9" fill="#b01a35"/>
    <circle cx="173.2080626314506" cy="195.2080626314506" r="4.2" fill="#ff2751"/>
  </g><g>
    <circle cx="144.8" cy="204.5" r="28.16976733878255" fill="#c9a214"/>
    <circle cx="159.0" cy="210.8" r="15.5" fill="#f5c518"/><circle cx="152.8" cy="217.7" r="15.5" fill="#f5c518"/><circle cx="135.9" cy="217.1" r="15.5" fill="#f5c518"/><circle cx="130.7" cy="210.9" r="15.5" fill="#f5c518"/><circle cx="132.0" cy="195.7" r="15.5" fill="#f5c518"/><circle cx="145.7" cy="189.0" r="15.5" fill="#f5c518"/><circle cx="155.7" cy="193.5" r="15.5" fill="#f5c518"/>
    <circle cx="144.8" cy="204.5" r="17.5" fill="#ffdd1b"/>
    <circle cx="144.8" cy="204.5" r="9.6" fill="#d8ad15"/>
    <circle cx="140.57453489918262" cy="200.2745348991826" r="3.7" fill="#ffff20"/>
  </g><g>
    <circle cx="192.8" cy="229.1" r="20.623898116871715" fill="#bc5785"/>
    <circle cx="204.1" cy="230.4" r="11.3" fill="#e56aa2"/><circle cx="198.8" cy="238.7" r="11.3" fill="#e56aa2"/><circle cx="186.8" cy="238.7" r="11.3" fill="#e56aa2"/><circle cx="182.4" cy="233.6" r="11.3" fill="#e56aa2"/><circle cx="182.6" cy="224.2" r="11.3" fill="#e56aa2"/><circle cx="195.9" cy="218.2" r="11.3" fill="#e56aa2"/><circle cx="202.2" cy="222.7" r="11.3" fill="#e56aa2"/>
    <circle cx="192.8" cy="229.1" r="12.8" fill="#ff77b5"/>
    <circle cx="192.8" cy="229.1" r="7.0" fill="#ca5d8f"/>
    <circle cx="189.70641528246927" cy="226.00641528246925" r="2.7" fill="#ff8fdb"/>
  </g><g>
    <circle cx="173.8" cy="236" r="32.27247672947124" fill="#a41831"/>
    <circle cx="190.5" cy="242.0" r="17.7" fill="#c81d3c"/><circle cx="182.9" cy="251.2" r="17.7" fill="#c81d3c"/><circle cx="166.9" cy="252.4" r="17.7" fill="#c81d3c"/><circle cx="156.6" cy="240.3" r="17.7" fill="#c81d3c"/><circle cx="158.3" cy="227.3" r="17.7" fill="#c81d3c"/><circle cx="171.3" cy="218.4" r="17.7" fill="#c81d3c"/><circle cx="185.2" cy="222.4" r="17.7" fill="#c81d3c"/>
    <circle cx="173.8" cy="236" r="20.0" fill="#e02043"/>
    <circle cx="173.8" cy="236" r="11.0" fill="#b01a35"/>
    <circle cx="168.95912849057933" cy="231.15912849057932" r="4.2" fill="#ff2751"/>
  </g>
    <rect x="238" y="180" width="52" height="62" rx="8" fill="#7c1f3a"/>
    <rect x="238" y="180" width="52" height="20" rx="8" fill="#9c2d4d"/>
    <text x="264" y="222" font-size="26" text-anchor="middle">🍫</text>
    <circle cx="164.3" cy="158.9" r="1.9" fill="#ffffff" opacity="0.44"/><circle cx="62.8" cy="140.2" r="2.5" fill="#ffffff" opacity="0.55"/><circle cx="134.2" cy="171.4" r="3.4" fill="#ffffff" opacity="0.37"/><circle cx="311.3" cy="64.9" r="3.2" fill="#ffffff" opacity="0.71"/><circle cx="80.7" cy="82.8" r="2.8" fill="#ffffff" opacity="0.72"/><circle cx="247.2" cy="199.0" r="1.9" fill="#ffffff" opacity="0.46"/><circle cx="108.7" cy="135.9" r="2.5" fill="#ffffff" opacity="0.56"/><circle cx="251.3" cy="82.6" r="2.4" fill="#ffffff" opacity="0.75"/>
</svg>