<svg xmlns="http://www.w3.org/2000/svg" viewBox="0 0 600 600">
  <defs>
    <linearGradient id="goldH" x1="0" y1="0" x2="0" y2="1">
      <stop offset="0" stop-color="#f5d97a"/><stop offset="1" stop-color="#c9971c"/>
    </linearGradient>
    <radialGradient id="heroBg" cx="0.5" cy="0.5" r="0.5">
      <stop offset="0" stop-color="#fff2f4"/><stop offset="0.75" stop-color="#fbe3e8"/><stop offset="1" stop-color="#f6d3db"/>
    </radialGradient>
    <clipPath id="round"><circle cx="300" cy="300" r="300"/></clipPath>
  </defs>
  <g clip-path="url(#round)">
    <rect width="600" height="600" fill="url(#heroBg)"/>
    <path d="M300 300 L506 274 L532 300 L558 326 Z" fill="#e6c25a" opacity="0.9"/><path d="M300 300 L483 375 L509 401 L535 427 Z" fill="#e6c25a" opacity="0.9"/><path d="M300 300 L419 455 L445 481 L471 507 Z" fill="#e6c25a" opacity="0.9"/><path d="M300 300 L326 500 L352 526 L378 552 Z" fill="#e6c25a" opacity="0.9"/><path d="M300 300 L222 500 L248 526 L274 552 Z" fill="#e6c25a" opacity="0.9"/><path d="M300 300 L129 455 L155 481 L181 507 Z" fill="#e6c25a" opacity="0.9"/><path d="M300 300 L65 375 L91 401 L117 427 Z" fill="#e6c25a" opacity="0.9"/><path d="M300 300 L42 274 L68 300 L94 326 Z" fill="#e6c25a" opacity="0.9"/><path d="M300 300 L65 173 L91 199 L117 225 Z" fill="#e6c25a" opacity="0.9"/><path d="M300 300 L129 93 L155 119 L181 145 Z" fill="#e6c25a" opacity="0.9"/><path d="M300 300 L222 48 L248 74 L274 100 Z" fill="#e6c25a" opacity="0.9"/><path d="M300 300 L326 48 L352 74 L378 100 Z" fill="#e6c25a" opacity="0.9"/><path d="M300 300 L419 93 L445 119 L471 145 Z" fill="#e6c25a" opacity="0.9"/><path d="M300 300 L483 173 L509 199 L535 225 Z" fill="#e6c25a" opacity="0.9"/><circle cx="505.0" cy="335.2" r="46" fill="#fdf9f3"/><circle cx="480.6" cy="403.2" r="46" fill="#fdf9f3"/><circle cx="434.4" cy="458.7" r="46" fill="#fdf9f3"/><circle cx="372.0" cy="495.1" r="46" fill="#fdf9f3"/><circle cx="300.9" cy="508.0" r="46" fill="#fdf9f3"/><circle cx="229.7" cy="495.8" r="46" fill="#fdf9f3"/><circle cx="167.0" cy="459.9" r="46" fill="#fdf9f3"/><circle cx="120.3" cy="404.8" r="46" fill="#fdf9f3"/><circle cx="95.3" cy="337.0" r="46" fill="#fdf9f3"/><circle cx="95.0" cy="264.8" r="46" fill="#fdf9f3"/><circle cx="119.4" cy="196.8" r="46" fill="#fdf9f3"/><circle cx="165.6" cy="141.3" r="46" fill="#fdf9f3"/><circle cx="228.0" cy="104.9" r="46" fill="#fdf9f3"/><circle cx="299.1" cy="92.0" r="46" fill="#fdf9f3"/><circle cx="370.3" cy="104.2" r="46" fill="#fdf9f3"/><circle cx="433.0" cy="140.1" r="46" fill="#fdf9f3"/><circle cx="479.7" cy="195.2" r="46" fill="#fdf9f3"/><circle cx="504.7" cy="263.0" r="46" fill="#fdf9f3"/><circle cx="300" cy="300" r="205" fill="#fffdf9"/><circle cx="240.8" cy="162.7" r="2.9" fill="#fff" stroke="#eee6d8" stroke-width="0.6"/><circle cx="434.6" cy="428.6" r="3.6" fill="#fff" stroke="#eee6d8" stroke-width="0.6"/><circle cx="298.1" cy="490.7" r="4.4" fill="#fff" stroke="#eee6d8" stroke-width="0.6"/><circle cx="328.2" cy="113.7" r="5.3" fill="#fff" stroke="#eee6d8" stroke-width="0.6"/><circle cx="423.9" cy="442.7" r="4.2" fill="#fff" stroke="#eee6d8" stroke-width="0.6"/><circle cx="463.2" cy="222.2" r="2.5" fill="#fff" stroke="#eee6d8" stroke-width="0.6"/><circle cx="470.9" cy="210.1" r="5.7" fill="#fff" stroke="#eee6d8" stroke-width="0.6"/><circle cx="422.7" cy="418.0" r="2.4" fill="#fff" stroke="#eee6d8" stroke-width="0.6"/><circle cx="338.0" cy="122.7" r="4.5" fill="#fff" stroke="#eee6d8" stroke-width="0.6"/><circle cx="280.4" cy="153.0" r="4.2" fill="#fff" stroke="#eee6d8" stroke-width="0.6"/><circle cx="464.1" cy="327.6" r="4.6" fill="#fff" stroke="#eee6d8" stroke-width="0.6"/><circle cx="150.6" cy="340.3" r="2.4" fill="#fff" stroke="#eee6d8" stroke-width="0.6"/><circle cx="203.1" cy="159.7" r="4.6" fill="#fff" stroke="#eee6d8" stroke-width="0.6"/><circle cx="139.7" cy="368.6" r="5.6" fill="#fff" stroke="#eee6d8" stroke-width="0.6"/><circle cx="196.1" cy="182.9" r="5.0" fill="#fff" stroke="#eee6d8" stroke-width="0.6"/><circle cx="499.3" cy="267.4" r="5.6" fill="#fff" stroke="#eee6d8" stroke-width="0.6"/><circle cx="439.2" cy="453.9" r="4.4" fill="#fff" stroke="#eee6d8" stroke-width="0.6"/><circle cx="324.5" cy="495.5" r="3.3" fill="#fff" stroke="#eee6d8" stroke-width="0.6"/><circle cx="229.2" cy="115.9" r="3.0" fill="#fff" stroke="#eee6d8" stroke-width="0.6"/><circle cx="266.3" cy="457.2" r="4.4" fill="#fff" stroke="#eee6d8" stroke-width="0.6"/><circle cx="98.0" cy="289.6" r="2.9" fill="#fff" stroke="#eee6d8" stroke-width="0.6"/><circle cx="138.2" cy="303.3" r="2.6" fill="#fff" stroke="#eee6d8" stroke-width="0.6"/><circle cx="323.7" cy="480.7" r="4.7" fill="#fff" stroke="#eee6d8" stroke-width="0.6"/><circle cx="170.9" cy="433.7" r="4.9" fill="#fff" stroke="#eee6d8" stroke-width="0.6"/><circle cx="363.8" cy="106.4" r="5.0" fill="#fff" stroke="#eee6d8" stroke-width="0.6"/><circle cx="149.7" cy="184.2" r="5.1" fill="#fff" stroke="#eee6d8" stroke-width="0.6"/><circle cx="367.8" cy="133.2" r="2.6" fill="#fff" stroke="#eee6d8" stroke-width="0.6"/><circle cx="309.5" cy="491.3" r="4.0" fill="#fff" stroke="#eee6d8" stroke-width="0.6"/><circle cx="383.7" cy="442.7" r="5.1" fill="#fff" stroke="#eee6d8" stroke-width="0.6"/><circle cx="271.3" cy="153.0" r="4.8" fill="#fff" stroke="#eee6d8" stroke-width="0.6"/><circle cx="113.6" cy="353.0" r="3.8" fill="#fff" stroke="#eee6d8" stroke-width="0.6"/><circle cx="429.0" cy="172.3" r="2.5" fill="#fff" stroke="#eee6d8" stroke-width="0.6"/><circle cx="136.2" cy="408.7" r="4.2" fill="#fff" stroke="#eee6d8" stroke-width="0.6"/><circle cx="251.9" cy="451.6" r="4.8" fill="#fff" stroke="#eee6d8" stroke-width="0.6"/><circle cx="379.7" cy="143.0" r="3.7" fill="#fff" stroke="#eee6d8" stroke-width="0.6"/><circle cx="446.3" cy="434.5" r="5.3" fill="#fff" stroke="#eee6d8" stroke-width="0.6"/><circle cx="349.9" cy="155.6" r="4.5" fill="#fff" stroke="#eee6d8" stroke-width="0.6"/><circle cx="229.0" cy="491.6" r="2.5" fill="#fff" stroke="#eee6d8" stroke-width="0.6"/><circle cx="150.3" cy="184.5" r="3.9" fill="#fff" stroke="#eee6d8" stroke-width="0.6"/><circle cx="168.5" cy="378.9" r="2.8" fill="#fff" stroke="#eee6d8" stroke-width="0.6"/><circle cx="222.6" cy="429.3" r="5.1" fill="#fff" stroke="#eee6d8" stroke-width="0.6"/><circle cx="312.4" cy="142.6" r="4.4" fill="#fff" stroke="#eee6d8" stroke-width="0.6"/><circle cx="464.4" cy="291.0" r="2.4" fill="#fff" stroke="#eee6d8" stroke-width="0.6"/><circle cx="381.6" cy="438.0" r="4.4" fill="#fff" stroke="#eee6d8" stroke-width="0.6"/><circle cx="482.0" cy="351.8" r="2.8" fill="#fff" stroke="#eee6d8" stroke-width="0.6"/><circle cx="144.2" cy="348.3" r="5.5" fill="#fff" stroke="#eee6d8" stroke-width="0.6"/><circle cx="246.9" cy="444.5" r="2.5" fill="#fff" stroke="#eee6d8" stroke-width="0.6"/><circle cx="183.4" cy="408.3" r="5.7" fill="#fff" stroke="#eee6d8" stroke-width="0.6"/><circle cx="130.3" cy="282.6" r="4.2" fill="#fff" stroke="#eee6d8" stroke-width="0.6"/><circle cx="455.1" cy="422.4" r="2.7" fill="#fff" stroke="#eee6d8" stroke-width="0.6"/><circle cx="386.0" cy="139.7" r="4.0" fill="#fff" stroke="#eee6d8" stroke-width="0.6"/><circle cx="451.1" cy="308.9" r="3.2" fill="#fff" stroke="#eee6d8" stroke-width="0.6"/><circle cx="149.4" cy="314.3" r="2.8" fill="#fff" stroke="#eee6d8" stroke-width="0.6"/><circle cx="197.3" cy="175.1" r="3.4" fill="#fff" stroke="#eee6d8" stroke-width="0.6"/><circle cx="152.6" cy="379.7" r="4.1" fill="#fff" stroke="#eee6d8" stroke-width="0.6"/><circle cx="349.1" cy="499.1" r="4.2" fill="#fff" stroke="#eee6d8" stroke-width="0.6"/><circle cx="149.6" cy="218.4" r="3.3" fill="#fff" stroke="#eee6d8" stroke-width="0.6"/><circle cx="199.6" cy="421.5" r="2.5" fill="#fff" stroke="#eee6d8" stroke-width="0.6"/><circle cx="421.0" cy="168.8" r="3.9" fill="#fff" stroke="#eee6d8" stroke-width="0.6"/><circle cx="241.6" cy="450.1" r="3.8" fill="#fff" stroke="#eee6d8" stroke-width="0.6"/><circle cx="457.7" cy="226.8" r="3.9" fill="#fff" stroke="#eee6d8" stroke-width="0.6"/><circle cx="491.0" cy="215.0" r="4.6" fill="#fff" stroke="#eee6d8" stroke-width="0.6"/><circle cx="466.8" cy="323.2" r="5.1" fill="#fff" stroke="#eee6d8" stroke-width="0.6"/><circle cx="107.5" cy="365.4" r="3.0" fill="#fff" stroke="#eee6d8" stroke-width="0.6"/><circle cx="446.1" cy="442.7" r="4.9" fill="#fff" stroke="#eee6d8" stroke-width="0.6"/><circle cx="123.8" cy="385.9" r="5.0" fill="#fff" stroke="#eee6d8" stroke-width="0.6"/><circle cx="173.8" cy="426.0" r="5.4" fill="#fff" stroke="#eee6d8" stroke-width="0.6"/><circle cx="464.5" cy="349.0" r="4.1" fill="#fff" stroke="#eee6d8" stroke-width="0.6"/><circle cx="460.0" cy="269.2" r="5.5" fill="#fff" stroke="#eee6d8" stroke-width="0.6"/><circle cx="213.1" cy="465.7" r="4.1" fill="#fff" stroke="#eee6d8" stroke-width="0.6"/><circle cx="117.2" cy="287.0" r="5.3" fill="#fff" stroke="#eee6d8" stroke-width="0.6"/><circle cx="234.8" cy="444.6" r="3.4" fill="#fff" stroke="#eee6d8" stroke-width="0.6"/><circle cx="381.8" cy="482.4" r="5.4" fill="#fff" stroke="#eee6d8" stroke-width="0.6"/><circle cx="189.0" cy="200.1" r="4.5" fill="#fff" stroke="#eee6d8" stroke-width="0.6"/><circle cx="326.1" cy="487.4" r="2.6" fill="#fff" stroke="#eee6d8" stroke-width="0.6"/><circle cx="141.8" cy="429.5" r="4.2" fill="#fff" stroke="#eee6d8" stroke-width="0.6"/><circle cx="352.2" cy="139.6" r="4.4" fill="#fff" stroke="#eee6d8" stroke-width="0.6"/><circle cx="148.8" cy="274.1" r="3.3" fill="#fff" stroke="#eee6d8" stroke-width="0.6"/><circle cx="214.5" cy="425.0" r="4.7" fill="#fff" stroke="#eee6d8" stroke-width="0.6"/><circle cx="153.0" cy="176.0" r="4.4" fill="#fff" stroke="#eee6d8" stroke-width="0.6"/><circle cx="105.6" cy="284.4" r="2.3" fill="#fff" stroke="#eee6d8" stroke-width="0.6"/><circle cx="376.7" cy="480.1" r="2.5" fill="#fff" stroke="#eee6d8" stroke-width="0.6"/><circle cx="171.0" cy="385.7" r="5.1" fill="#fff" stroke="#eee6d8" stroke-width="0.6"/><circle cx="268.0" cy="453.0" r="5.1" fill="#fff" stroke="#eee6d8" stroke-width="0.6"/><circle cx="442.1" cy="215.2" r="2.8" fill="#fff" stroke="#eee6d8" stroke-width="0.6"/><circle cx="108.2" cy="341.8" r="2.3" fill="#fff" stroke="#eee6d8" stroke-width="0.6"/><circle cx="464.1" cy="181.1" r="4.8" fill="#fff" stroke="#eee6d8" stroke-width="0.6"/><circle cx="124.2" cy="354.9" r="5.1" fill="#fff" stroke="#eee6d8" stroke-width="0.6"/><circle cx="149.3" cy="188.6" r="3.1" fill="#fff" stroke="#eee6d8" stroke-width="0.6"/><circle cx="146.4" cy="230.2" r="3.6" fill="#fff" stroke="#eee6d8" stroke-width="0.6"/><path transform="translate(460.4965301731018 349.647394719105) rotate(17.188733853924695)"
    d="M0 0 C 21.97056880639866 -19.773511925758793, 39.54702385151759 -8.788227522559465, 43.94113761279732 0 C 39.54702385151759 8.788227522559465, 21.97056880639866 19.773511925758793, 0 0 Z"
    fill="#3e7d4f"/><path transform="translate(400.6624140176177 434.5030795340602) rotate(53.1887338539247)"
    d="M0 0 C 19.51937888469547 -17.567440996225923, 35.134881992451845 -7.807751553878188, 39.03875776939094 0 C 35.134881992451845 7.807751553878188, 19.51937888469547 17.567440996225923, 0 0 Z"
    fill="#2f6b41"/><path transform="translate(302.37867709701754 467.9831595585347) rotate(89.1887338539247)"
    d="M0 0 C 21.214675842784345 -19.09320825850591, 38.18641651701182 -8.485870337113738, 42.42935168556869 0 C 38.18641651701182 8.485870337113738, 21.214675842784345 19.09320825850591, 0 0 Z"
    fill="#3e7d4f"/><path transform="translate(203.1863663736176 437.29938216924575) rotate(125.18873385392469)"
    d="M0 0 C 17.603001482551917 -15.842701334296725, 31.68540266859345 -7.0412005930207675, 35.206002965103835 0 C 31.68540266859345 7.0412005930207675, 17.603001482551917 15.842701334296725, 0 0 Z"
    fill="#2f6b41"/><path transform="translate(140.97357312111598 354.17190742566623) rotate(161.18873385392467)"
    d="M0 0 C 19.646272361511365 -17.68164512536023, 35.36329025072046 -7.858508944604546, 39.29254472302273 0 C 35.36329025072046 7.858508944604546, 19.646272361511365 17.68164512536023, 0 0 Z"
    fill="#3e7d4f"/><path transform="translate(139.50346982689817 250.352605280895) rotate(197.1887338539247)"
    d="M0 0 C 15.075667292112485 -13.568100562901236, 27.136201125802472 -6.030266916844994, 30.15133458422497 0 C 27.136201125802472 6.030266916844994, 15.075667292112485 13.568100562901236, 0 0 Z"
    fill="#2f6b41"/><path transform="translate(199.33758598238222 165.49692046593987) rotate(233.18873385392467)"
    d="M0 0 C 16.416473977267742 -14.774826579540969, 29.549653159081938 -6.566589590907097, 32.832947954535484 0 C 29.549653159081938 6.566589590907097, 16.416473977267742 14.774826579540969, 0 0 Z"
    fill="#3e7d4f"/><path transform="translate(297.6213229029824 132.01684044146532) rotate(269.1887338539247)"
    d="M0 0 C 18.280700812814757 -16.452630731533283, 32.905261463066566 -7.312280325125903, 36.561401625629514 0 C 32.905261463066566 7.312280325125903, 18.280700812814757 16.452630731533283, 0 0 Z"
    fill="#2f6b41"/><path transform="translate(396.8136336263824 162.70061783075425) rotate(305.1887338539247)"
    d="M0 0 C 21.563833944499493 -19.407450550049543, 38.814901100099085 -8.625533577799798, 43.127667888998985 0 C 38.814901100099085 8.625533577799798, 21.563833944499493 19.407450550049543, 0 0 Z"
    fill="#3e7d4f"/><path transform="translate(459.026426878884 245.82809257433377) rotate(341.1887338539247)"
    d="M0 0 C 16.730692353565246 -15.057623118208722, 30.115246236417445 -6.6922769414260985, 33.46138470713049 0 C 30.115246236417445 6.6922769414260985, 16.730692353565246 15.057623118208722, 0 0 Z"
    fill="#2f6b41"/><g>
    <circle cx="428" cy="300" r="34.4982944810763" fill="#8a1027"/>
    <circle cx="445.3" cy="307.8" r="19.0" fill="#a8142f"/><circle cx="439.3" cy="315.3" r="19.0" fill="#a8142f"/><circle cx="418.5" cy="316.4" r="19.0" fill="#a8142f"/><circle cx="410.6" cy="307.5" r="19.0" fill="#a8142f"/><circle cx="411.0" cy="291.5" r="19.0" fill="#a8142f"/><circle cx="428.0" cy="281.0" r="19.0" fill="#a8142f"/><circle cx="440.3" cy="285.5" r="19.0" fill="#a8142f"/>
    <circle cx="428" cy="300" r="21.4" fill="#bc1635"/>
    <circle cx="428" cy="300" r="11.7" fill="#941229"/>
    <circle cx="422.82525582783853" cy="294.82525582783853" r="4.5" fill="#e31b3f"/>
  </g><g>
    <circle cx="407.7" cy="369.2" r="37.31342200515792" fill="#a41831"/>
    <circle cx="427.8" cy="373.4" r="20.5" fill="#c81d3c"/><circle cx="419.9" cy="385.7" r="20.5" fill="#c81d3c"/><circle cx="398.0" cy="387.3" r="20.5" fill="#c81d3c"/><circle cx="387.3" cy="371.6" r="20.5" fill="#c81d3c"/><circle cx="390.3" cy="358.3" r="20.5" fill="#c81d3c"/><circle cx="407.2" cy="348.7" r="20.5" fill="#c81d3c"/><circle cx="423.5" cy="356.1" r="20.5" fill="#c81d3c"/>
    <circle cx="407.7" cy="369.2" r="23.1" fill="#e02043"/>
    <circle cx="407.7" cy="369.2" r="12.7" fill="#b01a35"/>
    <circle cx="402.1029866992263" cy="363.6029866992263" r="4.9" fill="#ff2751"/>
  </g><g>
    <circle cx="353.2" cy="416.4" r="35.902438764227554" fill="#750c1f"/>
    <circle cx="371.1" cy="424.8" r="19.7" fill="#8f0f26"/><circle cx="360.8" cy="434.6" r="19.7" fill="#8f0f26"/><circle cx="345.3" cy="434.5" r="19.7" fill="#8f0f26"/><circle cx="334.0" cy="421.1" r="19.7" fill="#8f0f26"/><circle cx="337.0" cy="405.1" r="19.7" fill="#8f0f26"/><circle cx="354.6" cy="396.7" r="19.7" fill="#8f0f26"/><circle cx="370.7" cy="407.2" r="19.7" fill="#8f0f26"/>
    <circle cx="353.2" cy="416.4" r="22.3" fill="#a0112b"/>
    <circle cx="353.2" cy="416.4" r="12.2" fill="#7e0d21"/>
    <circle cx="347.81463418536583" cy="411.0146341853658" r="4.7" fill="#c11433"/>
  </g><g>
    <circle cx="281.8" cy="426.7" r="36.90886579430662" fill="#b2203a"/>
    <circle cx="302.1" cy="428.0" r="20.3" fill="#d92747"/><circle cx="287.7" cy="446.1" r="20.3" fill="#d92747"/><circle cx="271.1" cy="444.0" r="20.3" fill="#d92747"/><circle cx="261.6" cy="428.4" r="20.3" fill="#d92747"/><circle cx="267.1" cy="412.7" r="20.3" fill="#d92747"/><circle cx="281.2" cy="406.4" r="20.3" fill="#d92747"/><circle cx="296.5" cy="412.7" r="20.3" fill="#d92747"/>
    <circle cx="281.8" cy="426.7" r="22.9" fill="#f32c50"/>
    <circle cx="281.8" cy="426.7" r="12.5" fill="#bf223e"/>
    <circle cx="276.263670130854" cy="421.163670130854" r="4.8" fill="#ff3560"/>
  </g><g>
    <circle cx="216.2" cy="396.7" r="36.6392402255442" fill="#8a1027"/>
    <circle cx="236.1" cy="399.7" r="20.2" fill="#a8142f"/><circle cx="228.0" cy="413.0" r="20.2" fill="#a8142f"/><circle cx="209.4" cy="415.7" r="20.2" fill="#a8142f"/><circle cx="196.0" cy="396.7" r="20.2" fill="#a8142f"/><circle cx="200.8" cy="383.8" r="20.2" fill="#a8142f"/><circle cx="215.4" cy="376.6" r="20.2" fill="#a8142f"/><circle cx="229.5" cy="381.6" r="20.2" fill="#a8142f"/>
    <circle cx="216.2" cy="396.7" r="22.7" fill="#bc1635"/>
    <circle cx="216.2" cy="396.7" r="12.5" fill="#941229"/>
    <circle cx="210.70411396616836" cy="391.20411396616834" r="4.8" fill="#e31b3f"/>
  </g><g>
    <circle cx="177.2" cy="336.1" r="37.690745489438996" fill="#a41831"/>
    <circle cx="196.0" cy="344.8" r="20.7" fill="#c81d3c"/><circle cx="187.8" cy="353.9" r="20.7" fill="#c81d3c"/><circle cx="164.8" cy="352.7" r="20.7" fill="#c81d3c"/><circle cx="156.8" cy="339.9" r="20.7" fill="#c81d3c"/><circle cx="159.0" cy="326.1" r="20.7" fill="#c81d3c"/><circle cx="174.9" cy="315.5" r="20.7" fill="#c81d3c"/><circle cx="191.2" cy="320.8" r="20.7" fill="#c81d3c"/>
    <circle cx="177.2" cy="336.1" r="23.4" fill="#e02043"/>
    <circle cx="177.2" cy="336.1" r="12.8" fill="#b01a35"/>
    <circle cx="171.54638817658414" cy="330.44638817658415" r="4.9" fill="#ff2751"/>
  </g><g>
    <circle cx="177.2" cy="263.9" r="37.19147725356743" fill="#750c1f"/>
    <circle cx="197.0" cy="268.8" r="20.5" fill="#8f0f26"/><circle cx="183.4" cy="283.4" r="20.5" fill="#8f0f26"/><circle cx="163.8" cy="279.3" r="20.5" fill="#8f0f26"/><circle cx="158.7" cy="272.7" r="20.5" fill="#8f0f26"/><circle cx="162.2" cy="250.0" r="20.5" fill="#8f0f26"/><circle cx="175.7" cy="243.5" r="20.5" fill="#8f0f26"/><circle cx="193.4" cy="251.4" r="20.5" fill="#8f0f26"/>
    <circle cx="177.2" cy="263.9" r="23.1" fill="#a0112b"/>
    <circle cx="177.2" cy="263.9" r="12.6" fill="#7e0d21"/>
    <circle cx="171.62127841196488" cy="258.32127841196484" r="4.8" fill="#c11433"/>
  </g><g>
    <circle cx="216.2" cy="203.3" r="35.10085759079084" fill="#b2203a"/>
    <circle cx="235.5" cy="204.4" r="19.3" fill="#d92747"/><circle cx="220.6" cy="222.1" r="19.3" fill="#d92747"/><circle cx="209.4" cy="221.4" r="19.3" fill="#d92747"/><circle cx="198.0" cy="209.8" r="19.3" fill="#d92747"/><circle cx="204.3" cy="188.1" r="19.3" fill="#d92747"/><circle cx="215.2" cy="184.0" r="19.3" fill="#d92747"/><circle cx="232.2" cy="192.5" r="19.3" fill="#d92747"/>
    <circle cx="216.2" cy="203.3" r="21.8" fill="#f32c50"/>
    <circle cx="216.2" cy="203.3" r="11.9" fill="#bf223e"/>
    <circle cx="210.93487136138137" cy="198.0348713613814" r="4.6" fill="#ff3560"/>
  </g><g>
    <circle cx="281.8" cy="173.3" r="38.36637096805498" fill="#8a1027"/>
    <circle cx="301.3" cy="181.3" r="21.1" fill="#a8142f"/><circle cx="290.9" cy="192.3" r="21.1" fill="#a8142f"/><circle cx="269.2" cy="190.2" r="21.1" fill="#a8142f"/><circle cx="261.2" cy="177.7" r="21.1" fill="#a8142f"/><circle cx="264.4" cy="161.4" r="21.1" fill="#a8142f"/><circle cx="282.3" cy="152.2" r="21.1" fill="#a8142f"/><circle cx="301.1" cy="164.7" r="21.1" fill="#a8142f"/>
    <circle cx="281.8" cy="173.3" r="23.8" fill="#bc1635"/>
    <circle cx="281.8" cy="173.3" r="13.0" fill="#941229"/>
    <circle cx="276.04504435479174" cy="167.54504435479177" r="5.0" fill="#e31b3f"/>
  </g><g>
    <circle cx="353.2" cy="183.6" r="35.313325428636745" fill="#a41831"/>
    <circle cx="372.4" cy="186.5" r="19.4" fill="#c81d3c"/><circle cx="365.0" cy="199.0" r="19.4" fill="#c81d3c"/><circle cx="342.8" cy="200.0" r="19.4" fill="#c81d3c"/><circle cx="334.2" cy="187.4" r="19.4" fill="#c81d3c"/><circle cx="339.2" cy="170.1" r="19.4" fill="#c81d3c"/><circle cx="358.3" cy="164.9" r="19.4" fill="#c81d3c"/><circle cx="366.9" cy="169.8" r="19.4" fill="#c81d3c"/>
    <circle cx="353.2" cy="183.6" r="21.9" fill="#e02043"/>
    <circle cx="353.2" cy="183.6" r="12.0" fill="#b01a35"/>
    <circle cx="347.90300118570445" cy="178.3030011857045" r="4.6" fill="#ff2751"/>
  </g><g>
    <circle cx="407.7" cy="230.8" r="34.686809226172045" fill="#750c1f"/>
    <circle cx="426.4" cy="234.5" r="19.1" fill="#8f0f26"/><circle cx="413.7" cy="248.9" r="19.1" fill="#8f0f26"/><circle cx="396.2" cy="246.0" r="19.1" fill="#8f0f26"/><circle cx="389.2" cy="235.6" r="19.1" fill="#8f0f26"/><circle cx="392.4" cy="219.4" r="19.1" fill="#8f0f26"/><circle cx="404.5" cy="212.0" r="19.1" fill="#8f0f26"/><circle cx="423.5" cy="220.1" r="19.1" fill="#8f0f26"/>
    <circle cx="407.7" cy="230.8" r="21.5" fill="#a0112b"/>
    <circle cx="407.7" cy="230.8" r="11.8" fill="#7e0d21"/>
    <circle cx="402.49697861607416" cy="225.5969786160742" r="4.5" fill="#c11433"/>
  </g><g>
    <circle cx="371.4" cy="326.1" r="37.53754431405105" fill="#8a1027"/>
    <circle cx="391.5" cy="330.8" r="20.6" fill="#a8142f"/><circle cx="382.2" cy="343.7" r="20.6" fill="#a8142f"/><circle cx="366.6" cy="346.2" r="20.6" fill="#a8142f"/><circle cx="350.8" cy="325.2" r="20.6" fill="#a8142f"/><circle cx="355.4" cy="313.0" r="20.6" fill="#a8142f"/><circle cx="366.9" cy="305.9" r="20.6" fill="#a8142f"/><circle cx="390.0" cy="317.2" r="20.6" fill="#a8142f"/>
    <circle cx="371.4" cy="326.1" r="23.3" fill="#bc1635"/>
    <circle cx="371.4" cy="326.1" r="12.8" fill="#941229"/>
    <circle cx="365.76936835289234" cy="320.4693683528924" r="4.9" fill="#e31b3f"/>
  </g><g>
    <circle cx="332.1" cy="368.9" r="36.767772543476894" fill="#a41831"/>
    <circle cx="351.7" cy="373.8" r="20.2" fill="#c81d3c"/><circle cx="341.3" cy="386.9" r="20.2" fill="#c81d3c"/><circle cx="322.7" cy="386.8" r="20.2" fill="#c81d3c"/><circle cx="311.9" cy="370.1" r="20.2" fill="#c81d3c"/><circle cx="314.7" cy="358.6" r="20.2" fill="#c81d3c"/><circle cx="334.9" cy="348.9" r="20.2" fill="#c81d3c"/><circle cx="349.5" cy="358.5" r="20.2" fill="#c81d3c"/>
    <circle cx="332.1" cy="368.9" r="22.8" fill="#e02043"/>
    <circle cx="332.1" cy="368.9" r="12.5" fill="#b01a35"/>
    <circle cx="326.5848341184785" cy="363.38483411847847" r="4.8" fill="#ff2751"/>
  </g><g>
    <circle cx="273.9" cy="371.4" r="40.30237630731426" fill="#750c1f"/>
    <circle cx="294.4" cy="379.8" r="22.2" fill="#8f0f26"/><circle cx="278.3" cy="393.1" r="22.2" fill="#8f0f26"/><circle cx="261.4" cy="389.7" r="22.2" fill="#8f0f26"/><circle cx="252.7" cy="377.8" r="22.2" fill="#8f0f26"/><circle cx="260.6" cy="353.7" r="22.2" fill="#8f0f26"/><circle cx="269.8" cy="349.6" r="22.2" fill="#8f0f26"/><circle cx="291.1" cy="357.5" r="22.2" fill="#8f0f26"/>
    <circle cx="273.9" cy="371.4" r="25.0" fill="#a0112b"/>
    <circle cx="273.9" cy="371.4" r="13.7" fill="#7e0d21"/>
    <circle cx="267.85464355390286" cy="365.35464355390286" r="5.2" fill="#c11433"/>
  </g><g>
    <circle cx="231.1" cy="332.1" r="36.27021637419239" fill="#b2203a"/>
    <circle cx="251.0" cy="333.4" r="19.9" fill="#d92747"/><circle cx="239.9" cy="350.0" r="19.9" fill="#d92747"/><circle cx="220.3" cy="348.9" r="19.9" fill="#d92747"/><circle cx="211.3" cy="334.8" r="19.9" fill="#d92747"/><circle cx="217.4" cy="317.6" r="19.9" fill="#d92747"/><circle cx="236.0" cy="312.8" r="19.9" fill="#d92747"/><circle cx="247.2" cy="320.3" r="19.9" fill="#d92747"/>
    <circle cx="231.1" cy="332.1" r="22.5" fill="#f32c50"/>
    <circle cx="231.1" cy="332.1" r="12.3" fill="#bf223e"/>
    <circle cx="225.65946754387113" cy="326.6594675438712" r="4.7" fill="#ff3560"/>
  </g><g>
    <circle cx="228.6" cy="273.9" r="39.80039724288508" fill="#8a1027"/>
    <circle cx="248.4" cy="283.3" r="21.9" fill="#a8142f"/><circle cx="235.5" cy="294.7" r="21.9" fill="#a8142f"/><circle cx="214.9" cy="291.0" r="21.9" fill="#a8142f"/><circle cx="207.1" cy="277.9" r="21.9" fill="#a8142f"/><circle cx="214.1" cy="257.5" r="21.9" fill="#a8142f"/><circle cx="234.4" cy="252.8" r="21.9" fill="#a8142f"/><circle cx="248.0" cy="263.8" r="21.9" fill="#a8142f"/>
    <circle cx="228.6" cy="273.9" r="24.7" fill="#bc1635"/>
    <circle cx="228.6" cy="273.9" r="13.5" fill="#941229"/>
    <circle cx="222.62994041356723" cy="267.92994041356724" r="5.2" fill="#e31b3f"/>
  </g><g>
    <circle cx="267.9" cy="231.1" r="40.30607205838896" fill="#a41831"/>
    <circle cx="288.1" cy="240.2" r="22.2" fill="#c81d3c"/><circle cx="272.6" cy="252.8" r="22.2" fill="#c81d3c"/><circle cx="262.0" cy="252.5" r="22.2" fill="#c81d3c"/><circle cx="246.5" cy="236.8" r="22.2" fill="#c81d3c"/><circle cx="253.2" cy="214.5" r="22.2" fill="#c81d3c"/><circle cx="273.1" cy="209.6" r="22.2" fill="#c81d3c"/><circle cx="284.1" cy="215.9" r="22.2" fill="#c81d3c"/>
    <circle cx="267.9" cy="231.1" r="25.0" fill="#e02043"/>
    <circle cx="267.9" cy="231.1" r="13.7" fill="#b01a35"/>
    <circle cx="261.85408919124166" cy="225.05408919124164" r="5.2" fill="#ff2751"/>
  </g><g>
    <circle cx="326.1" cy="228.6" r="36.011037236545235" fill="#750c1f"/>
    <circle cx="343.5" cy="238.0" r="19.8" fill="#8f0f26"/><circle cx="334.4" cy="246.6" r="19.8" fill="#8f0f26"/><circle cx="314.8" cy="244.9" r="19.8" fill="#8f0f26"/><circle cx="306.6" cy="232.2" r="19.8" fill="#8f0f26"/><circle cx="311.1" cy="215.7" r="19.8" fill="#8f0f26"/><circle cx="327.3" cy="208.8" r="19.8" fill="#8f0f26"/><circle cx="344.3" cy="220.7" r="19.8" fill="#8f0f26"/>
    <circle cx="326.1" cy="228.6" r="22.3" fill="#a0112b"/>
    <circle cx="326.1" cy="228.6" r="12.2" fill="#7e0d21"/>
    <circle cx="320.69834441451826" cy="223.1983444145182" r="4.7" fill="#c11433"/>
  </g><g>
    <circle cx="368.9" cy="267.9" r="40.91827476071194" fill="#b2203a"/>
    <circle cx="389.9" cy="276.0" r="22.5" fill="#d92747"/><circle cx="374.2" cy="289.8" r="22.5" fill="#d92747"/><circle cx="354.7" cy="285.4" r="22.5" fill="#d92747"/><circle cx="346.8" cy="272.1" r="22.5" fill="#d92747"/><circle cx="352.5" cy="252.5" r="22.5" fill="#d92747"/><circle cx="370.8" cy="245.5" r="22.5" fill="#d92747"/><circle cx="387.5" cy="255.3" r="22.5" fill="#d92747"/>
    <circle cx="368.9" cy="267.9" r="25.4" fill="#f32c50"/>
    <circle cx="368.9" cy="267.9" r="13.9" fill="#bf223e"/>
    <circle cx="362.7622587858932" cy="261.7622587858932" r="5.3" fill="#ff3560"/>
  </g><g>
    <circle cx="323.7" cy="324.4" r="35.389984304551035" fill="#8a1027"/>
    <circle cx="343.2" cy="325.0" r="19.5" fill="#a8142f"/><circle cx="327.7" cy="343.5" r="19.5" fill="#a8142f"/><circle cx="312.6" cy="340.4" r="19.5" fill="#a8142f"/><circle cx="304.3" cy="325.9" r="19.5" fill="#a8142f"/><circle cx="308.6" cy="312.1" r="19.5" fill="#a8142f"/><circle cx="321.8" cy="305.0" r="19.5" fill="#a8142f"/><circle cx="338.1" cy="311.3" r="19.5" fill="#a8142f"/>
    <circle cx="323.7" cy="324.4" r="21.9" fill="#bc1635"/>
    <circle cx="323.7" cy="324.4" r="12.0" fill="#941229"/>
    <circle cx="318.3915023543173" cy="319.0915023543173" r="4.6" fill="#e31b3f"/>
  </g><g>
    <circle cx="275.6" cy="323.7" r="38.63187069632113" fill="#a41831"/>
    <circle cx="296.1" cy="329.5" r="21.2" fill="#c81d3c"/><circle cx="282.4" cy="343.8" r="21.2" fill="#c81d3c"/><circle cx="269.2" cy="344.0" r="21.2" fill="#c81d3c"/><circle cx="255.0" cy="329.0" r="21.2" fill="#c81d3c"/><circle cx="260.7" cy="308.5" r="21.2" fill="#c81d3c"/><circle cx="275.4" cy="302.5" r="21.2" fill="#c81d3c"/><circle cx="293.4" cy="312.0" r="21.2" fill="#c81d3c"/>
    <circle cx="275.6" cy="323.7" r="24.0" fill="#e02043"/>
    <circle cx="275.6" cy="323.7" r="13.1" fill="#b01a35"/>
    <circle cx="269.80521939555183" cy="317.9052193955518" r="5.0" fill="#ff2751"/>
  </g><g>
    <circle cx="276.3" cy="275.6" r="38.79472168604843" fill="#750c1f"/>
    <circle cx="297.5" cy="277.6" r="21.3" fill="#8f0f26"/><circle cx="289.0" cy="292.8" r="21.3" fill="#8f0f26"/><circle cx="263.4" cy="292.6" r="21.3" fill="#8f0f26"/><circle cx="255.0" cy="276.0" r="21.3" fill="#8f0f26"/><circle cx="260.0" cy="261.8" r="21.3" fill="#8f0f26"/><circle cx="273.0" cy="254.5" r="21.3" fill="#8f0f26"/><circle cx="295.1" cy="265.5" r="21.3" fill="#8f0f26"/>
    <circle cx="276.3" cy="275.6" r="24.1" fill="#a0112b"/>
    <circle cx="276.3" cy="275.6" r="13.2" fill="#7e0d21"/>
    <circle cx="270.4807917470927" cy="269.78079174709274" r="5.0" fill="#c11433"/>
  </g><g>
    <circle cx="324.4" cy="276.3" r="36.43256357265636" fill="#b2203a"/>
    <circle cx="344.2" cy="279.4" r="20.0" fill="#d92747"/><circle cx="330.2" cy="295.5" r="20.0" fill="#d92747"/><circle cx="311.1" cy="291.3" r="20.0" fill="#d92747"/><circle cx="304.6" cy="279.4" r="20.0" fill="#d92747"/><circle cx="311.1" cy="261.3" r="20.0" fill="#d92747"/><circle cx="329.6" cy="256.9" r="20.0" fill="#d92747"/><circle cx="342.6" cy="268.0" r="20.0" fill="#d92747"/>
    <circle cx="324.4" cy="276.3" r="22.6" fill="#f32c50"/>
    <circle cx="324.4" cy="276.3" r="12.4" fill="#bf223e"/>
    <circle cx="318.9351154641015" cy="270.83511546410153" r="4.7" fill="#ff3560"/>
  </g><g transform="translate(300 268)">
    <path d="M-46 26 h92 v14 a8 8 0 0 1 -8 8 h-76 a8 8 0 0 1 -8 -8 Z" fill="url(#goldH)"/>
    <path d="M-46 26 L-34 -18 L-17 14 L0 -30 L17 14 L34 -18 L46 26 Z" fill="url(#goldH)"/>
    <circle cx="-34" cy="-22" r="7" fill="#fdf6ec" stroke="#c9a75a" stroke-width="1.4"/>
    <circle cx="0" cy="-35" r="8" fill="#fdf6ec" stroke="#c9a75a" stroke-width="1.4"/>
    <circle cx="34" cy="-22" r="7" fill="#fdf6ec" stroke="#c9a75a" stroke-width="1.4"/>
    <circle cx="-20" cy="33" r="4.6" fill="#fdf6ec"/><circle cx="0" cy="33" r="4.6" fill="#fdf6ec"/><circle cx="20" cy="33" r="4.6" fill="#fdf6ec"/>
    <circle cx="0" cy="8" r="6" fill="#e75e79"/>
  </g><circle cx="191.8" cy="330.6" r="3.9" fill="#fdf6ec" stroke="#d8c9a8" stroke-width="0.8"/><circle cx="180.6" cy="213.0" r="3.0" fill="#fdf6ec" stroke="#d8c9a8" stroke-width="0.8"/><circle cx="214.7" cy="359.9" r="4.3" fill="#fdf6ec" stroke="#d8c9a8" stroke-width="0.8"/><circle cx="345.4" cy="250.2" r="2.8" fill="#fdf6ec" stroke="#d8c9a8" stroke-width="0.8"/><circle cx="370.7" cy="190.4" r="4.3" fill="#fdf6ec" stroke="#d8c9a8" stroke-width="0.8"/><circle cx="344.1" cy="361.9" r="4.1" fill="#fdf6ec" stroke="#d8c9a8" stroke-width="0.8"/><circle cx="289.7" cy="156.4" r="4.1" fill="#fdf6ec" stroke="#d8c9a8" stroke-width="0.8"/><circle cx="170.6" cy="270.7" r="4.2" fill="#fdf6ec" stroke="#d8c9a8" stroke-width="0.8"/><circle cx="295.5" cy="169.2" r="3.7" fill="#fdf6ec" stroke="#d8c9a8" stroke-width="0.8"/><circle cx="178.7" cy="272.3" r="2.7" fill="#fdf6ec" stroke="#d8c9a8" stroke-width="0.8"/><circle cx="241.0" cy="310.1" r="3.9" fill="#fdf6ec" stroke="#d8c9a8" stroke-width="0.8"/><circle cx="280.7" cy="199.0" r="3.9" fill="#fdf6ec" stroke="#d8c9a8" stroke-width="0.8"/><circle cx="237.4" cy="427.6" r="3.8" fill="#fdf6ec" stroke="#d8c9a8" stroke-width="0.8"/><circle cx="451.8" cy="274.5" r="3.8" fill="#fdf6ec" stroke="#d8c9a8" stroke-width="0.8"/><circle cx="170.6" cy="266.4" r="4.5" fill="#fdf6ec" stroke="#d8c9a8" stroke-width="0.8"/><circle cx="202.3" cy="249.0" r="3.7" fill="#fdf6ec" stroke="#d8c9a8" stroke-width="0.8"/>
  </g>
</svg>