<svg xmlns="http://www.w3.org/2000/svg" viewBox="0 0 200 200">
  <defs>
    <linearGradient id="gold" x1="0" y1="0" x2="1" y2="1">
      <stop offset="0" stop-color="#f5d97a"/><stop offset="0.5" stop-color="#d4a017"/><stop offset="1" stop-color="#b8860b"/>
    </linearGradient>
  </defs>
  <circle cx="100" cy="100" r="100" fill="#0d0b0c"/>
  <path d="M100.0 17.0L102.2 22.9L108.6 23.2L103.6 27.2L105.3 33.3L100.0 29.8L94.7 33.3L96.4 27.2L91.4 23.2L97.8 22.9Z" fill="url(#gold)"/><path d="M122.9 20.6L125.1 26.6L131.4 26.8L126.5 30.8L128.2 36.9L122.9 33.4L117.6 36.9L119.3 30.8L114.3 26.8L120.6 26.6Z" fill="url(#gold)"/><path d="M143.5 31.1L145.7 37.1L152.1 37.4L147.1 41.3L148.8 47.4L143.5 43.9L138.2 47.4L139.9 41.3L134.9 37.4L141.3 37.1Z" fill="url(#gold)"/><path d="M159.9 47.5L162.1 53.4L168.4 53.7L163.5 57.7L165.2 63.8L159.9 60.3L154.6 63.8L156.3 57.7L151.3 53.7L157.6 53.4Z" fill="url(#gold)"/><path d="M170.4 68.1L172.6 74.1L178.9 74.4L174.0 78.3L175.7 84.4L170.4 80.9L165.1 84.4L166.8 78.3L161.8 74.4L168.2 74.1Z" fill="url(#gold)"/><path d="M174.0 91.0L176.2 96.9L182.6 97.2L177.6 101.2L179.3 107.3L174.0 103.8L168.7 107.3L170.4 101.2L165.4 97.2L171.8 96.9Z" fill="url(#gold)"/><path d="M170.4 113.9L172.6 119.8L178.9 120.1L174.0 124.0L175.7 130.1L170.4 126.6L165.1 130.1L166.8 124.0L161.8 120.1L168.2 119.8Z" fill="url(#gold)"/><path d="M159.9 134.5L162.1 140.4L168.4 140.7L163.5 144.7L165.2 150.8L159.9 147.3L154.6 150.8L156.3 144.7L151.3 140.7L157.6 140.4Z" fill="url(#gold)"/><path d="M143.5 150.9L145.7 156.8L152.1 157.1L147.1 161.0L148.8 167.1L143.5 163.6L138.2 167.1L139.9 161.0L134.9 157.1L141.3 156.8Z" fill="url(#gold)"/><path d="M122.9 161.4L125.1 167.3L131.4 167.6L126.5 171.5L128.2 177.7L122.9 174.2L117.6 177.7L119.3 171.5L114.3 167.6L120.6 167.3Z" fill="url(#gold)"/><path d="M100.0 165.0L102.2 170.9L108.6 171.2L103.6 175.2L105.3 181.3L100.0 177.8L94.7 181.3L96.4 175.2L91.4 171.2L97.8 170.9Z" fill="url(#gold)"/><path d="M77.1 161.4L79.4 167.3L85.7 167.6L80.7 171.5L82.4 177.7L77.1 174.2L71.8 177.7L73.5 171.5L68.6 167.6L74.9 167.3Z" fill="url(#gold)"/><path d="M56.5 150.9L58.7 156.8L65.1 157.1L60.1 161.0L61.8 167.1L56.5 163.6L51.2 167.1L52.9 161.0L47.9 157.1L54.3 156.8Z" fill="url(#gold)"/><path d="M40.1 134.5L42.4 140.4L48.7 140.7L43.7 144.7L45.4 150.8L40.1 147.3L34.8 150.8L36.5 144.7L31.6 140.7L37.9 140.4Z" fill="url(#gold)"/><path d="M29.6 113.9L31.8 119.8L38.2 120.1L33.2 124.0L34.9 130.1L29.6 126.6L24.3 130.1L26.0 124.0L21.1 120.1L27.4 119.8Z" fill="url(#gold)"/><path d="M26.0 91.0L28.2 96.9L34.6 97.2L29.6 101.2L31.3 107.3L26.0 103.8L20.7 107.3L22.4 101.2L17.4 97.2L23.8 96.9Z" fill="url(#gold)"/><path d="M29.6 68.1L31.8 74.1L38.2 74.4L33.2 78.3L34.9 84.4L29.6 80.9L24.3 84.4L26.0 78.3L21.1 74.4L27.4 74.1Z" fill="url(#gold)"/><path d="M40.1 47.5L42.4 53.4L48.7 53.7L43.7 57.7L45.4 63.8L40.1 60.3L34.8 63.8L36.5 57.7L31.6 53.7L37.9 53.4Z" fill="url(#gold)"/><path d="M56.5 31.1L58.7 37.1L65.1 37.4L60.1 41.3L61.8 47.4L56.5 43.9L51.2 47.4L52.9 41.3L47.9 37.4L54.3 37.1Z" fill="url(#gold)"/><path d="M77.1 20.6L79.4 26.6L85.7 26.8L80.7 30.8L82.4 36.9L77.1 33.4L71.8 36.9L73.5 30.8L68.6 26.8L74.9 26.6Z" fill="url(#gold)"/>
  <text x="100" y="112" text-anchor="middle" font-family="'Great Vibes','Brush Script MT','Segoe Script',cursive"
        font-size="44" font-style="italic" fill="url(#gold)">La Rosa</text>
</svg>