<svg xmlns="http://www.w3.org/2000/svg" viewBox="0 0 400 400">
  <defs>
    <linearGradient id="bg" x1="0" y1="0" x2="1" y2="1">
      <stop offset="0" stop-color="#fff0f6"/><stop offset="1" stop-color="#ffd6e8"/>
    </linearGradient>
  </defs>
  <rect width="400" height="400" fill="url(#bg)"/>
  
    <ellipse cx="200" cy="330" rx="120" ry="26" fill="rgba(0,0,0,0.12)"/>
    <path d="M105 235 h190 v80 a95 24 0 0 1 -190 0 Z" fill="#8c3b5c"/>
    <ellipse cx="200" cy="235" rx="95" ry="24" fill="#af4a73"/>
    <rect x="188" y="228" width="24" height="94" fill="#d2598a" opacity="0.5"/>
    <path transform="translate(262.6133166783216 150.99234935060542) rotate(325.4730248171836)"
    d="M0 0 C 24.15051995590329 -21.735467960312963, 43.47093592062593 -9.660207982361317, 48.30103991180658 0 C 43.47093592062593 9.660207982361317, 24.15051995590329 21.735467960312963, 0 0 Z"
    fill="#3e7d4f"/><path transform="translate(253.9982531323517 227.22163025616425) rotate(44.724117536097765)"
    d="M0 0 C 20.46056430716999 -18.41450787645299, 36.82901575290598 -8.184225722867996, 40.92112861433998 0 C 36.82901575290598 8.184225722867996, 20.46056430716999 18.41450787645299, 0 0 Z"
    fill="#549b63"/><path transform="translate(258.33470055022735 146.5415067020591) rotate(320.13544706627727)"
    d="M0 0 C 21.560126138618216 -19.404113524756394, 38.80822704951279 -8.624050455447287, 43.12025227723643 0 C 38.80822704951279 8.624050455447287, 21.560126138618216 19.404113524756394, 0 0 Z"
    fill="#2f6b41"/><path transform="translate(150.106823716308 230.26012737936247) rotate(131.0326627548784)"
    d="M0 0 C 26.55071967164986 -23.895647704484873, 47.791295408969745 -10.620287868659943, 53.10143934329972 0 C 47.791295408969745 10.620287868659943, 26.55071967164986 23.895647704484873, 0 0 Z"
    fill="#3e7d4f"/><path transform="translate(227.26452267895428 128.9938342903836) rotate(291.0230635665357)"
    d="M0 0 C 24.196194431977347 -21.77657498877961, 43.55314997755922 -9.67847777279094, 48.39238886395469 0 C 43.55314997755922 9.67847777279094, 24.196194431977347 21.77657498877961, 0 0 Z"
    fill="#549b63"/><path transform="translate(139.25475286543437 221.05756262383153) rotate(143.0613610893488)"
    d="M0 0 C 27.84657858684659 -25.061920728161933, 50.123841456323866 -11.138631434738636, 55.69315717369318 0 C 50.123841456323866 11.138631434738636, 27.84657858684659 25.061920728161933, 0 0 Z"
    fill="#2f6b41"/><path transform="translate(162.20982605736145 237.05681212289062) rotate(119.81750984676182)"
    d="M0 0 C 22.546823115320876 -20.29214080378879, 40.58428160757758 -9.01872924612835, 45.09364623064175 0 C 40.58428160757758 9.01872924612835, 22.546823115320876 20.29214080378879, 0 0 Z"
    fill="#3e7d4f"/><path transform="translate(235.8264048786797 132.08483085047084) rotate(298.1252161692828)"
    d="M0 0 C 19.526025770697743 -17.57342319362797, 35.14684638725594 -7.810410308279097, 39.052051541395485 0 C 35.14684638725594 7.810410308279097, 19.526025770697743 17.57342319362797, 0 0 Z"
    fill="#549b63"/><g>
    <circle cx="183.4" cy="139.7" r="29.74132463010028" fill="#c889a0"/>
    <circle cx="199.7" cy="141.6" r="16.4" fill="#f4a7c3"/><circle cx="193.0" cy="152.9" r="16.4" fill="#f4a7c3"/><circle cx="174.5" cy="153.4" r="16.4" fill="#f4a7c3"/><circle cx="167.7" cy="144.3" r="16.4" fill="#f4a7c3"/><circle cx="172.8" cy="127.2" r="16.4" fill="#f4a7c3"/><circle cx="181.7" cy="123.4" r="16.4" fill="#f4a7c3"/><circle cx="193.9" cy="127.2" r="16.4" fill="#f4a7c3"/>
    <circle cx="183.4" cy="139.7" r="18.4" fill="#ffbbda"/>
    <circle cx="183.4" cy="139.7" r="10.1" fill="#d793ac"/>
    <circle cx="178.93880130548496" cy="135.23880130548494" r="3.9" fill="#ffe1ff"/>
  </g><g>
    <circle cx="220.3" cy="150.6" r="26.550473175011575" fill="#af2a6c"/>
    <circle cx="234.9" cy="151.5" r="14.6" fill="#d63384"/><circle cx="225.9" cy="164.1" r="14.6" fill="#d63384"/><circle cx="212.7" cy="163.1" r="14.6" fill="#d63384"/><circle cx="205.8" cy="152.4" r="14.6" fill="#d63384"/><circle cx="207.9" cy="142.9" r="14.6" fill="#d63384"/><circle cx="220.5" cy="136.0" r="14.6" fill="#d63384"/><circle cx="231.9" cy="141.7" r="14.6" fill="#d63384"/>
    <circle cx="220.3" cy="150.6" r="16.5" fill="#f03994"/>
    <circle cx="220.3" cy="150.6" r="9.0" fill="#bc2d74"/>
    <circle cx="216.31742902374828" cy="146.61742902374826" r="3.5" fill="#ff45b2"/>
  </g><g>
    <circle cx="178.9" cy="160.7" r="25.599064436275512" fill="#cba4b1"/>
    <circle cx="192.0" cy="165.9" r="14.1" fill="#f7c8d8"/><circle cx="185.2" cy="173.3" r="14.1" fill="#f7c8d8"/><circle cx="172.6" cy="173.3" r="14.1" fill="#f7c8d8"/><circle cx="164.8" cy="161.3" r="14.1" fill="#f7c8d8"/><circle cx="168.4" cy="151.3" r="14.1" fill="#f7c8d8"/><circle cx="182.1" cy="147.0" r="14.1" fill="#f7c8d8"/><circle cx="189.8" cy="151.8" r="14.1" fill="#f7c8d8"/>
    <circle cx="178.9" cy="160.7" r="15.9" fill="#ffe0f2"/>
    <circle cx="178.9" cy="160.7" r="8.7" fill="#d9b0be"/>
    <circle cx="175.06014033455867" cy="156.86014033455865" r="3.3" fill="#ffffff"/>
  </g><g>
    <circle cx="240.7" cy="174.3" r="33.35547847440466" fill="#bc5785"/>
    <circle cx="258.7" cy="178.0" r="18.3" fill="#e56aa2"/><circle cx="247.7" cy="191.3" r="18.3" fill="#e56aa2"/><circle cx="235.2" cy="191.8" r="18.3" fill="#e56aa2"/><circle cx="222.4" cy="175.0" r="18.3" fill="#e56aa2"/><circle cx="227.3" cy="161.8" r="18.3" fill="#e56aa2"/><circle cx="242.3" cy="156.0" r="18.3" fill="#e56aa2"/><circle cx="252.5" cy="160.3" r="18.3" fill="#e56aa2"/>
    <circle cx="240.7" cy="174.3" r="20.7" fill="#ff77b5"/>
    <circle cx="240.7" cy="174.3" r="11.3" fill="#ca5d8f"/>
    <circle cx="235.6966782288393" cy="169.2966782288393" r="4.3" fill="#ff8fdb"/>
  </g><g>
    <circle cx="160.9" cy="179.1" r="27.38910048082471" fill="#c889a0"/>
    <circle cx="175.9" cy="180.0" r="15.1" fill="#f4a7c3"/><circle cx="165.7" cy="193.4" r="15.1" fill="#f4a7c3"/><circle cx="155.3" cy="193.1" r="15.1" fill="#f4a7c3"/><circle cx="146.8" cy="184.5" r="15.1" fill="#f4a7c3"/><circle cx="150.4" cy="168.3" r="15.1" fill="#f4a7c3"/><circle cx="158.6" cy="164.2" r="15.1" fill="#f4a7c3"/><circle cx="174.2" cy="172.1" r="15.1" fill="#f4a7c3"/>
    <circle cx="160.9" cy="179.1" r="17.0" fill="#ffbbda"/>
    <circle cx="160.9" cy="179.1" r="9.3" fill="#d793ac"/>
    <circle cx="156.7916349278763" cy="174.99163492787628" r="3.6" fill="#ffe1ff"/>
  </g><g>
    <circle cx="200" cy="185" r="21.157321569975466" fill="#af2a6c"/>
    <circle cx="211.5" cy="186.5" r="11.6" fill="#d63384"/><circle cx="202.3" cy="196.4" r="11.6" fill="#d63384"/><circle cx="196.0" cy="195.9" r="11.6" fill="#d63384"/><circle cx="189.2" cy="189.2" r="11.6" fill="#d63384"/><circle cx="190.3" cy="178.5" r="11.6" fill="#d63384"/><circle cx="200.8" cy="173.4" r="11.6" fill="#d63384"/><circle cx="210.1" cy="179.2" r="11.6" fill="#d63384"/>
    <circle cx="200" cy="185" r="13.1" fill="#f03994"/>
    <circle cx="200" cy="185" r="7.2" fill="#bc2d74"/>
    <circle cx="196.8264017645037" cy="181.8264017645037" r="2.8" fill="#ff45b2"/>
  </g><g>
    <circle cx="146.8" cy="187" r="27.335505344439298" fill="#cba4b1"/>
    <circle cx="161.0" cy="191.9" r="15.0" fill="#f7c8d8"/><circle cx="154.3" cy="200.0" r="15.0" fill="#f7c8d8"/><circle cx="139.2" cy="200.0" r="15.0" fill="#f7c8d8"/><circle cx="133.0" cy="193.1" r="15.0" fill="#f7c8d8"/><circle cx="133.7" cy="179.7" r="15.0" fill="#f7c8d8"/><circle cx="146.1" cy="172.0" r="15.0" fill="#f7c8d8"/><circle cx="156.5" cy="175.5" r="15.0" fill="#f7c8d8"/>
    <circle cx="146.8" cy="187" r="16.9" fill="#ffe0f2"/>
    <circle cx="146.8" cy="187" r="9.3" fill="#d9b0be"/>
    <circle cx="142.69967419833412" cy="182.8996741983341" r="3.6" fill="#ffffff"/>
  </g><g>
    <circle cx="184.3" cy="221.1" r="30.575248405337334" fill="#bc5785"/>
    <circle cx="200.6" cy="225.1" r="16.8" fill="#e56aa2"/><circle cx="193.9" cy="234.9" r="16.8" fill="#e56aa2"/><circle cx="178.1" cy="236.7" r="16.8" fill="#e56aa2"/><circle cx="168.3" cy="226.2" r="16.8" fill="#e56aa2"/><circle cx="171.4" cy="210.3" r="16.8" fill="#e56aa2"/><circle cx="184.0" cy="204.3" r="16.8" fill="#e56aa2"/><circle cx="195.2" cy="208.3" r="16.8" fill="#e56aa2"/>
    <circle cx="184.3" cy="221.1" r="19.0" fill="#ff77b5"/>
    <circle cx="184.3" cy="221.1" r="10.4" fill="#ca5d8f"/>
    <circle cx="179.71371273919942" cy="216.5137127391994" r="4.0" fill="#ff8fdb"/>
  </g><g>
    <circle cx="168.3" cy="236.3" r="30.312286518514156" fill="#c889a0"/>
    <circle cx="184.5" cy="240.1" r="16.7" fill="#f4a7c3"/><circle cx="178.7" cy="249.3" r="16.7" fill="#f4a7c3"/><circle cx="163.8" cy="252.3" r="16.7" fill="#f4a7c3"/><circle cx="151.8" cy="238.7" r="16.7" fill="#f4a7c3"/><circle cx="154.0" cy="227.7" r="16.7" fill="#f4a7c3"/><circle cx="167.4" cy="219.7" r="16.7" fill="#f4a7c3"/><circle cx="181.8" cy="226.5" r="16.7" fill="#f4a7c3"/>
    <circle cx="168.3" cy="236.3" r="18.8" fill="#ffbbda"/>
    <circle cx="168.3" cy="236.3" r="10.3" fill="#d793ac"/>
    <circle cx="163.7531570222229" cy="231.7531570222229" r="3.9" fill="#ffe1ff"/>
  </g><g>
    <circle cx="245" cy="237.6" r="25.719951507169753" fill="#af2a6c"/>
    <circle cx="257.8" cy="243.6" r="14.1" fill="#d63384"/><circle cx="252.6" cy="249.5" r="14.1" fill="#d63384"/><circle cx="237.8" cy="249.8" r="14.1" fill="#d63384"/><circle cx="230.9" cy="238.2" r="14.1" fill="#d63384"/><circle cx="236.0" cy="226.7" r="14.1" fill="#d63384"/><circle cx="248.4" cy="223.9" r="14.1" fill="#d63384"/><circle cx="254.3" cy="226.9" r="14.1" fill="#d63384"/>
    <circle cx="245" cy="237.6" r="15.9" fill="#f03994"/>
    <circle cx="245" cy="237.6" r="8.7" fill="#bc2d74"/>
    <circle cx="241.14200727392455" cy="233.74200727392454" r="3.3" fill="#ff45b2"/>
  </g>
    <circle cx="239.4" cy="186.8" r="3.4" fill="#ffffff" opacity="0.40"/><circle cx="185.3" cy="78.5" r="2.0" fill="#ffffff" opacity="0.42"/><circle cx="160.9" cy="199.6" r="1.9" fill="#ffffff" opacity="0.69"/><circle cx="267.0" cy="68.0" r="3.1" fill="#ffffff" opacity="0.74"/><circle cx="184.5" cy="122.5" r="3.4" fill="#ffffff" opacity="0.57"/><circle cx="285.1" cy="155.6" r="3.5" fill="#ffffff" opacity="0.69"/><circle cx="276.5" cy="50.4" r="1.7" fill="#ffffff" opacity="0.52"/><circle cx="186.2" cy="154.0" r="3.3" fill="#ffffff" opacity="0.42"/>
</svg>