<svg xmlns="http://www.w3.org/2000/svg" viewBox="0 0 400 400">
  <defs>
    <linearGradient id="bg" x1="0" y1="0" x2="1" y2="1">
      <stop offset="0" stop-color="#fff8dc"/><stop offset="1" stop-color="#ffe8b3"/>
    </linearGradient>
  </defs>
  <rect width="400" height="400" fill="url(#bg)"/>
  
  <path d="M140 240 L200 385 L260 240 Q200 270 140 240 Z" fill="#d9a066"/>
  <path d="M140 240 L200 385 L200 262 Q168 262 140 240 Z" fill="#b88857"/>
  <path d="M197 330 h6 l10 40 h-26 Z" fill="#987047"/><path transform="translate(208.61376094762673 253.66407655141722) rotate(84.34399743564427)"
    d="M0 0 C 25.517358009004965 -22.96562220810447, 45.93124441620894 -10.206943203601988, 51.03471601800993 0 C 45.93124441620894 10.206943203601988, 25.517358009004965 22.96562220810447, 0 0 Z"
    fill="#3e7d4f"/><path transform="translate(196.91973648536725 116.04286540133475) rotate(267.9802899900824)"
    d="M0 0 C 20.848253533476964 -18.763428180129267, 37.526856360258535 -8.339301413390785, 41.69650706695393 0 C 37.526856360258535 8.339301413390785, 20.848253533476964 18.763428180129267, 0 0 Z"
    fill="#549b63"/><path transform="translate(261.3904374739386 234.11246046483905) rotate(45.37950114347041)"
    d="M0 0 C 25.181567923165858 -22.663411130849273, 45.326822261698545 -10.072627169266344, 50.363135846331716 0 C 45.326822261698545 10.072627169266344, 25.181567923165858 22.663411130849273, 0 0 Z"
    fill="#2f6b41"/><path transform="translate(227.22673176768578 250.56656219917838) rotate(71.8492235429585)"
    d="M0 0 C 24.937384678050876 -22.443646210245788, 44.887292420491576 -9.97495387122035, 49.87476935610175 0 C 44.887292420491576 9.97495387122035, 24.937384678050876 22.443646210245788, 0 0 Z"
    fill="#3e7d4f"/><path transform="translate(142.34359642965973 236.85645816943696) rotate(131.27579645253718)"
    d="M0 0 C 27.743667353177443 -24.969300617859698, 49.938601235719396 -11.097466941270978, 55.487334706354886 0 C 49.938601235719396 11.097466941270978, 27.743667353177443 24.969300617859698, 0 0 Z"
    fill="#549b63"/><path transform="translate(278.132115173846 215.92210883543004) rotate(26.62482767365873)"
    d="M0 0 C 23.084417165024206 -20.775975448521788, 41.551950897043575 -9.233766866009683, 46.16883433004841 0 C 41.551950897043575 9.233766866009683, 23.084417165024206 20.775975448521788, 0 0 Z"
    fill="#2f6b41"/><path transform="translate(112.77194754649734 180.67393883992304) rotate(183.59460465610027)"
    d="M0 0 C 19.74835384194739 -17.773518457752655, 35.54703691550531 -7.899341536778957, 39.49670768389478 0 C 35.54703691550531 7.899341536778957, 19.74835384194739 17.773518457752655, 0 0 Z"
    fill="#3e7d4f"/><path transform="translate(150.3002072631116 128.24188989992285) rotate(235.3440334461629)"
    d="M0 0 C 27.596277732867748 -24.836649959580974, 49.67329991916195 -11.0385110931471, 55.192555465735495 0 C 49.67329991916195 11.0385110931471, 27.596277732867748 24.836649959580974, 0 0 Z"
    fill="#549b63"/><g>
    <circle cx="224.5" cy="115.5" r="27.082487914245576" fill="#c9a214"/>
    <circle cx="238.6" cy="120.3" r="14.9" fill="#f5c518"/><circle cx="227.4" cy="130.1" r="14.9" fill="#f5c518"/><circle cx="219.0" cy="129.4" r="14.9" fill="#f5c518"/><circle cx="210.8" cy="121.4" r="14.9" fill="#f5c518"/><circle cx="212.2" cy="107.1" r="14.9" fill="#f5c518"/><circle cx="221.6" cy="100.9" r="14.9" fill="#f5c518"/><circle cx="237.2" cy="107.7" r="14.9" fill="#f5c518"/>
    <circle cx="224.5" cy="115.5" r="16.8" fill="#ffdd1b"/>
    <circle cx="224.5" cy="115.5" r="9.2" fill="#d8ad15"/>
    <circle cx="220.43762681286316" cy="111.43762681286316" r="3.5" fill="#ffff20"/>
  </g><g>
    <circle cx="160" cy="126.2" r="21.2523050471209" fill="#ab2b24"/>
    <circle cx="170.5" cy="131.3" r="11.7" fill="#d0342c"/><circle cx="164.1" cy="137.2" r="11.7" fill="#d0342c"/><circle cx="155.5" cy="137.0" r="11.7" fill="#d0342c"/><circle cx="148.4" cy="127.3" r="11.7" fill="#d0342c"/><circle cx="151.1" cy="118.7" r="11.7" fill="#d0342c"/><circle cx="157.8" cy="114.7" r="11.7" fill="#d0342c"/><circle cx="170.5" cy="121.1" r="11.7" fill="#d0342c"/>
    <circle cx="160" cy="126.2" r="13.2" fill="#e93a31"/>
    <circle cx="160" cy="126.2" r="7.2" fill="#b72e27"/>
    <circle cx="156.81215424293185" cy="123.01215424293187" r="2.8" fill="#ff463b"/>
  </g><g>
    <circle cx="134.4" cy="156.4" r="23.874484685715288" fill="#c4688f"/>
    <circle cx="147.2" cy="159.2" r="13.1" fill="#ef7fae"/><circle cx="138.6" cy="168.8" r="13.1" fill="#ef7fae"/><circle cx="127.8" cy="167.8" r="13.1" fill="#ef7fae"/><circle cx="121.3" cy="156.3" r="13.1" fill="#ef7fae"/><circle cx="124.0" cy="148.4" r="13.1" fill="#ef7fae"/><circle cx="135.7" cy="143.3" r="13.1" fill="#ef7fae"/><circle cx="145.0" cy="148.7" r="13.1" fill="#ef7fae"/>
    <circle cx="134.4" cy="156.4" r="14.8" fill="#ff8ec3"/>
    <circle cx="134.4" cy="156.4" r="8.1" fill="#d27099"/>
    <circle cx="130.81882729714272" cy="152.81882729714272" r="3.1" fill="#ffabeb"/>
  </g><g>
    <circle cx="235.2" cy="158.1" r="23.028389494866133" fill="#be6e26"/>
    <circle cx="247.8" cy="159.2" r="12.7" fill="#e8862e"/><circle cx="241.0" cy="169.4" r="12.7" fill="#e8862e"/><circle cx="227.8" cy="168.4" r="12.7" fill="#e8862e"/><circle cx="223.0" cy="161.5" r="12.7" fill="#e8862e"/><circle cx="224.4" cy="151.4" r="12.7" fill="#e8862e"/><circle cx="237.8" cy="145.7" r="12.7" fill="#e8862e"/><circle cx="244.0" cy="149.0" r="12.7" fill="#e8862e"/>
    <circle cx="235.2" cy="158.1" r="14.3" fill="#ff9634"/>
    <circle cx="235.2" cy="158.1" r="7.8" fill="#cc7628"/>
    <circle cx="231.74574157577007" cy="154.64574157577007" r="3.0" fill="#ffb53e"/>
  </g><g>
    <circle cx="156.3" cy="169.8" r="32.42454614164308" fill="#c9a214"/>
    <circle cx="172.0" cy="178.3" r="17.8" fill="#f5c518"/><circle cx="166.9" cy="184.1" r="17.8" fill="#f5c518"/><circle cx="151.7" cy="187.0" r="17.8" fill="#f5c518"/><circle cx="139.3" cy="175.2" r="17.8" fill="#f5c518"/><circle cx="141.3" cy="160.1" r="17.8" fill="#f5c518"/><circle cx="155.5" cy="152.0" r="17.8" fill="#f5c518"/><circle cx="169.9" cy="158.3" r="17.8" fill="#f5c518"/>
    <circle cx="156.3" cy="169.8" r="20.1" fill="#ffdd1b"/>
    <circle cx="156.3" cy="169.8" r="11.0" fill="#d8ad15"/>
    <circle cx="151.43631807875354" cy="164.93631807875354" r="4.2" fill="#ffff20"/>
  </g><g>
    <circle cx="259.5" cy="176.3" r="29.128313331864774" fill="#ab2b24"/>
    <circle cx="274.0" cy="183.0" r="16.0" fill="#d0342c"/><circle cx="266.4" cy="190.8" r="16.0" fill="#d0342c"/><circle cx="251.8" cy="190.4" r="16.0" fill="#d0342c"/><circle cx="244.0" cy="180.4" r="16.0" fill="#d0342c"/><circle cx="247.5" cy="165.7" r="16.0" fill="#d0342c"/><circle cx="259.1" cy="160.3" r="16.0" fill="#d0342c"/><circle cx="273.9" cy="169.3" r="16.0" fill="#d0342c"/>
    <circle cx="259.5" cy="176.3" r="18.1" fill="#e93a31"/>
    <circle cx="259.5" cy="176.3" r="9.9" fill="#b72e27"/>
    <circle cx="255.1307530002203" cy="171.9307530002203" r="3.8" fill="#ff463b"/>
  </g><g>
    <circle cx="200" cy="185" r="28.454537639860064" fill="#c4688f"/>
    <circle cx="215.5" cy="186.8" r="15.6" fill="#ef7fae"/><circle cx="209.5" cy="197.4" r="15.6" fill="#ef7fae"/><circle cx="191.0" cy="197.8" r="15.6" fill="#ef7fae"/><circle cx="184.4" cy="184.4" r="15.6" fill="#ef7fae"/><circle cx="186.7" cy="176.8" r="15.6" fill="#ef7fae"/><circle cx="203.0" cy="169.6" r="15.6" fill="#ef7fae"/><circle cx="213.7" cy="177.5" r="15.6" fill="#ef7fae"/>
    <circle cx="200" cy="185" r="17.6" fill="#ff8ec3"/>
    <circle cx="200" cy="185" r="9.7" fill="#d27099"/>
    <circle cx="195.73181935402098" cy="180.73181935402098" r="3.7" fill="#ffabeb"/>
  </g><g>
    <circle cx="138.8" cy="200.7" r="20.839504938106984" fill="#be6e26"/>
    <circle cx="150.2" cy="201.9" r="11.5" fill="#e8862e"/><circle cx="142.7" cy="211.5" r="11.5" fill="#e8862e"/><circle cx="133.8" cy="211.0" r="11.5" fill="#e8862e"/><circle cx="128.4" cy="205.6" r="11.5" fill="#e8862e"/><circle cx="130.2" cy="193.2" r="11.5" fill="#e8862e"/><circle cx="141.5" cy="189.6" r="11.5" fill="#e8862e"/><circle cx="147.7" cy="193.5" r="11.5" fill="#e8862e"/>
    <circle cx="138.8" cy="200.7" r="12.9" fill="#ff9634"/>
    <circle cx="138.8" cy="200.7" r="7.1" fill="#cc7628"/>
    <circle cx="135.67407425928397" cy="197.57407425928395" r="2.7" fill="#ffb53e"/>
  </g><g>
    <circle cx="238.6" cy="215" r="22.909917222335935" fill="#c9a214"/>
    <circle cx="251.1" cy="216.8" r="12.6" fill="#f5c518"/><circle cx="241.0" cy="227.4" r="12.6" fill="#f5c518"/><circle cx="235.1" cy="227.1" r="12.6" fill="#f5c518"/><circle cx="226.1" cy="216.7" r="12.6" fill="#f5c518"/><circle cx="230.0" cy="205.8" r="12.6" fill="#f5c518"/><circle cx="239.5" cy="202.4" r="12.6" fill="#f5c518"/><circle cx="248.8" cy="207.5" r="12.6" fill="#f5c518"/>
    <circle cx="238.6" cy="215" r="14.2" fill="#ffdd1b"/>
    <circle cx="238.6" cy="215" r="7.8" fill="#d8ad15"/>
    <circle cx="235.1635124166496" cy="211.56351241664962" r="3.0" fill="#ffff20"/>
  </g><g>
    <circle cx="202.4" cy="219.1" r="23.21616546995938" fill="#ab2b24"/>
    <circle cx="213.8" cy="224.8" r="12.8" fill="#d0342c"/><circle cx="208.2" cy="230.5" r="12.8" fill="#d0342c"/><circle cx="197.2" cy="230.8" r="12.8" fill="#d0342c"/><circle cx="190.2" cy="222.8" r="12.8" fill="#d0342c"/><circle cx="192.8" cy="210.7" r="12.8" fill="#d0342c"/><circle cx="200.1" cy="206.5" r="12.8" fill="#d0342c"/><circle cx="212.5" cy="211.2" r="12.8" fill="#d0342c"/>
    <circle cx="202.4" cy="219.1" r="14.4" fill="#e93a31"/>
    <circle cx="202.4" cy="219.1" r="7.9" fill="#b72e27"/>
    <circle cx="198.9175751795061" cy="215.61757517950608" r="3.0" fill="#ff463b"/>
  </g><g>
    <circle cx="189.5" cy="227.2" r="28.093334012664855" fill="#c4688f"/>
    <circle cx="204.9" cy="228.8" r="15.5" fill="#ef7fae"/><circle cx="194.0" cy="242.0" r="15.5" fill="#ef7fae"/><circle cx="182.8" cy="241.1" r="15.5" fill="#ef7fae"/><circle cx="174.9" cy="232.2" r="15.5" fill="#ef7fae"/><circle cx="176.0" cy="219.6" r="15.5" fill="#ef7fae"/><circle cx="190.8" cy="211.8" r="15.5" fill="#ef7fae"/><circle cx="201.3" cy="217.2" r="15.5" fill="#ef7fae"/>
    <circle cx="189.5" cy="227.2" r="17.4" fill="#ff8ec3"/>
    <circle cx="189.5" cy="227.2" r="9.6" fill="#d27099"/>
    <circle cx="185.28599989810027" cy="222.98599989810026" r="3.7" fill="#ffabeb"/>
  </g><circle cx="299.4" cy="50.5" r="2.1" fill="#ffffff" opacity="0.68"/><circle cx="301.3" cy="97.4" r="2.3" fill="#ffffff" opacity="0.39"/><circle cx="65.1" cy="75.4" r="1.8" fill="#ffffff" opacity="0.73"/><circle cx="200.6" cy="95.7" r="2.1" fill="#ffffff" opacity="0.39"/><circle cx="125.4" cy="91.9" r="3.7" fill="#ffffff" opacity="0.63"/><circle cx="159.5" cy="54.4" r="2.0" fill="#ffffff" opacity="0.59"/><circle cx="56.2" cy="74.3" r="3.3" fill="#ffffff" opacity="0.45"/><circle cx="113.7" cy="94.0" r="2.3" fill="#ffffff" opacity="0.68"/><circle cx="296.1" cy="64.3" r="1.8" fill="#ffffff" opacity="0.65"/><circle cx="167.5" cy="78.5" r="1.8" fill="#ffffff" opacity="0.54"/>
</svg>