<svg xmlns="http://www.w3.org/2000/svg" viewBox="0 0 400 400">
  <defs>
    <linearGradient id="bg" x1="0" y1="0" x2="1" y2="1">
      <stop offset="0" stop-color="#f0f6ff"/><stop offset="1" stop-color="#e8e3fa"/>
    </linearGradient>
  </defs>
  <rect width="400" height="400" fill="url(#bg)"/>
  
  <path d="M140 240 L200 385 L260 240 Q200 270 140 240 Z" fill="#e7cba9"/>
  <path d="M140 240 L200 385 L200 262 Q168 262 140 240 Z" fill="#c4ad90"/>
  <path d="M197 330 h6 l10 40 h-26 Z" fill="#a28e76"/><circle cx="140.8" cy="180.6" r="11.8" fill="#ffffff" opacity="0.76"/><circle cx="183.4" cy="103.8" r="5.7" fill="#f7c8d8" opacity="0.91"/><circle cx="152.7" cy="203.9" r="11.6" fill="#e8e3fa" opacity="0.84"/><circle cx="182.0" cy="136.0" r="8.4" fill="#dcecfa" opacity="0.95"/><circle cx="146.9" cy="196.1" r="10.6" fill="#ffffff" opacity="0.91"/><circle cx="189.3" cy="111.2" r="7.1" fill="#f7c8d8" opacity="0.76"/><circle cx="166.0" cy="238.1" r="7.5" fill="#e8e3fa" opacity="0.77"/><circle cx="246.4" cy="219.0" r="7.8" fill="#dcecfa" opacity="0.80"/><circle cx="131.2" cy="138.4" r="12.2" fill="#ffffff" opacity="0.77"/><circle cx="247.1" cy="194.1" r="6.6" fill="#f7c8d8" opacity="0.81"/><circle cx="221.9" cy="225.8" r="12.6" fill="#e8e3fa" opacity="0.77"/><circle cx="202.8" cy="248.0" r="7.8" fill="#dcecfa" opacity="1.00"/><circle cx="156.0" cy="148.7" r="8.8" fill="#ffffff" opacity="0.86"/><circle cx="159.7" cy="238.9" r="10.7" fill="#f7c8d8" opacity="0.88"/><circle cx="159.7" cy="108.0" r="10.0" fill="#e8e3fa" opacity="0.84"/><circle cx="228.2" cy="132.7" r="9.9" fill="#dcecfa" opacity="0.88"/><circle cx="175.5" cy="105.2" r="10.2" fill="#ffffff" opacity="0.85"/><circle cx="125.8" cy="210.8" r="8.0" fill="#f7c8d8" opacity="0.75"/><circle cx="207.1" cy="106.8" r="7.8" fill="#e8e3fa" opacity="0.79"/><circle cx="275.9" cy="202.1" r="8.5" fill="#dcecfa" opacity="0.82"/><circle cx="234.4" cy="194.2" r="13.6" fill="#ffffff" opacity="0.91"/><circle cx="179.6" cy="183.3" r="7.6" fill="#f7c8d8" opacity="0.97"/><circle cx="130.6" cy="212.1" r="10.8" fill="#e8e3fa" opacity="0.91"/><circle cx="185.4" cy="179.5" r="5.1" fill="#dcecfa" opacity="0.91"/><circle cx="144.9" cy="125.1" r="6.8" fill="#ffffff" opacity="0.75"/><circle cx="162.8" cy="139.3" r="8.6" fill="#f7c8d8" opacity="0.97"/><circle cx="164.8" cy="106.7" r="10.4" fill="#e8e3fa" opacity="0.97"/><circle cx="210.0" cy="242.6" r="12.7" fill="#dcecfa" opacity="0.84"/><circle cx="266.7" cy="164.2" r="5.8" fill="#ffffff" opacity="0.80"/><circle cx="171.0" cy="187.3" r="9.2" fill="#f7c8d8" opacity="0.76"/><circle cx="255.0" cy="162.1" r="9.0" fill="#e8e3fa" opacity="0.99"/><circle cx="238.3" cy="197.3" r="8.5" fill="#dcecfa" opacity="0.84"/><circle cx="275.7" cy="187.9" r="10.2" fill="#ffffff" opacity="0.81"/><circle cx="287.5" cy="148.5" r="9.5" fill="#f7c8d8" opacity="0.91"/><circle cx="209.6" cy="245.9" r="8.6" fill="#e8e3fa" opacity="0.93"/><circle cx="117.3" cy="158.1" r="7.5" fill="#dcecfa" opacity="0.86"/><circle cx="237.2" cy="128.1" r="11.5" fill="#ffffff" opacity="0.96"/><circle cx="244.6" cy="186.4" r="6.6" fill="#f7c8d8" opacity="0.86"/><circle cx="183.3" cy="190.4" r="6.3" fill="#e8e3fa" opacity="0.96"/><circle cx="230.5" cy="104.4" r="10.1" fill="#dcecfa" opacity="0.84"/><circle cx="147.0" cy="230.3" r="8.4" fill="#ffffff" opacity="0.93"/><circle cx="145.5" cy="168.1" r="5.4" fill="#f7c8d8" opacity="0.86"/><circle cx="152.2" cy="170.5" r="11.6" fill="#e8e3fa" opacity="0.86"/><circle cx="251.7" cy="171.7" r="6.4" fill="#dcecfa" opacity="0.78"/><circle cx="159.5" cy="109.1" r="11.7" fill="#ffffff" opacity="0.82"/><circle cx="133.8" cy="176.3" r="9.1" fill="#f7c8d8" opacity="0.99"/><circle cx="141.3" cy="233.1" r="9.7" fill="#e8e3fa" opacity="1.00"/><circle cx="290.6" cy="191.0" r="9.2" fill="#dcecfa" opacity="0.77"/><circle cx="243.8" cy="218.5" r="11.3" fill="#ffffff" opacity="0.97"/><circle cx="289.8" cy="152.4" r="10.9" fill="#f7c8d8" opacity="0.91"/><circle cx="125.1" cy="144.0" r="9.8" fill="#e8e3fa" opacity="0.82"/><circle cx="176.4" cy="125.7" r="13.3" fill="#dcecfa" opacity="0.85"/><circle cx="166.6" cy="153.0" r="9.4" fill="#ffffff" opacity="0.88"/><circle cx="157.0" cy="117.6" r="10.8" fill="#f7c8d8" opacity="0.96"/><circle cx="115.9" cy="142.8" r="7.3" fill="#e8e3fa" opacity="0.84"/><circle cx="292.8" cy="172.6" r="5.4" fill="#dcecfa" opacity="0.91"/><circle cx="176.2" cy="184.0" r="13.1" fill="#ffffff" opacity="0.85"/><circle cx="230.1" cy="161.9" r="12.4" fill="#f7c8d8" opacity="0.96"/><circle cx="224.5" cy="153.5" r="13.6" fill="#e8e3fa" opacity="0.82"/><circle cx="266.7" cy="157.6" r="13.0" fill="#dcecfa" opacity="0.97"/><circle cx="258.5" cy="195.5" r="1.6" fill="#ffffff" opacity="0.44"/><circle cx="180.3" cy="87.0" r="3.8" fill="#ffffff" opacity="0.67"/><circle cx="287.3" cy="177.4" r="2.9" fill="#ffffff" opacity="0.48"/><circle cx="159.4" cy="130.6" r="2.5" fill="#ffffff" opacity="0.48"/><circle cx="105.5" cy="166.8" r="1.7" fill="#ffffff" opacity="0.46"/><circle cx="187.4" cy="80.2" r="3.9" fill="#ffffff" opacity="0.35"/><circle cx="233.2" cy="167.4" r="3.8" fill="#ffffff" opacity="0.67"/><circle cx="306.7" cy="204.8" r="1.5" fill="#ffffff" opacity="0.48"/><circle cx="168.7" cy="160.1" r="1.6" fill="#ffffff" opacity="0.67"/><circle cx="233.7" cy="142.0" r="4.0" fill="#ffffff" opacity="0.53"/>
</svg>