<svg xmlns="http://www.w3.org/2000/svg" viewBox="0 0 400 400">
  <defs>
    <linearGradient id="bg" x1="0" y1="0" x2="1" y2="1">
      <stop offset="0" stop-color="#fff0e6"/><stop offset="1" stop-color="#ffdcc8"/>
    </linearGradient>
  </defs>
  <rect width="400" height="400" fill="url(#bg)"/>
  
    <ellipse cx="200" cy="352" rx="115" ry="18" fill="rgba(0,0,0,0.12)"/>
    <!-- corps -->
    <ellipse cx="200" cy="272" rx="86" ry="78" fill="#d9b38c"/>
    <ellipse cx="200" cy="285" rx="52" ry="55" fill="#ffd3a5"/>
    <!-- pattes -->
    <ellipse cx="130" cy="320" rx="30" ry="24" fill="#d9b38c"/><ellipse cx="270" cy="320" rx="30" ry="24" fill="#d9b38c"/>
    <ellipse cx="130" cy="322" rx="16" ry="12" fill="#ffe0af"/><ellipse cx="270" cy="322" rx="16" ry="12" fill="#ffe0af"/>
    <ellipse cx="118" cy="235" rx="26" ry="34" transform="rotate(20 118 235)" fill="#d9b38c"/>
    <ellipse cx="282" cy="235" rx="26" ry="34" transform="rotate(-20 282 235)" fill="#d9b38c"/>
    <!-- tête -->
    <circle cx="145" cy="120" r="27" fill="#d9b38c"/><circle cx="255" cy="120" r="27" fill="#d9b38c"/>
    <circle cx="145" cy="120" r="14" fill="#ffe0af"/><circle cx="255" cy="120" r="14" fill="#ffe0af"/>
    <circle cx="200" cy="150" r="62" fill="#d9b38c"/>
    <ellipse cx="200" cy="172" rx="30" ry="24" fill="#ffdaab"/>
    <circle cx="178" cy="138" r="7" fill="#3d2314"/><circle cx="222" cy="138" r="7" fill="#3d2314"/>
    <circle cx="180" cy="136" r="2.2" fill="#fff"/><circle cx="224" cy="136" r="2.2" fill="#fff"/>
    <ellipse cx="200" cy="165" rx="10" ry="8" fill="#3d2314"/>
    <path d="M200 173 v8 M200 181 q-9 8 -18 2 M200 181 q9 8 18 2" stroke="#3d2314" stroke-width="3.4" fill="none" stroke-linecap="round"/>
    <!-- nœud papillon -->
    <path d="M200 208 l-30 -14 v28 Z" fill="#c81d3c"/><path d="M200 208 l30 -14 v28 Z" fill="#c81d3c"/>
    <circle cx="200" cy="208" r="8" fill="#a01730"/>
    <!-- petites roses -->
    <g>
    <circle cx="120" cy="330" r="20" fill="#a41831"/>
    <circle cx="131.0" cy="330.8" r="11.0" fill="#c81d3c"/><circle cx="124.5" cy="340.0" r="11.0" fill="#c81d3c"/><circle cx="114.4" cy="339.5" r="11.0" fill="#c81d3c"/><circle cx="109.9" cy="334.5" r="11.0" fill="#c81d3c"/><circle cx="113.0" cy="321.5" r="11.0" fill="#c81d3c"/><circle cx="122.5" cy="319.3" r="11.0" fill="#c81d3c"/><circle cx="128.1" cy="322.6" r="11.0" fill="#c81d3c"/>
    <circle cx="120" cy="330" r="12.4" fill="#e02043"/>
    <circle cx="120" cy="330" r="6.8" fill="#b01a35"/>
    <circle cx="117" cy="327" r="2.6" fill="#ff2751"/>
  </g><g>
    <circle cx="285" cy="335" r="17" fill="#bc5785"/>
    <circle cx="293.8" cy="338.3" r="9.4" fill="#e56aa2"/><circle cx="286.8" cy="344.2" r="9.4" fill="#e56aa2"/><circle cx="281.2" cy="343.5" r="9.4" fill="#e56aa2"/><circle cx="275.7" cy="335.7" r="9.4" fill="#e56aa2"/><circle cx="279.1" cy="327.7" r="9.4" fill="#e56aa2"/><circle cx="285.5" cy="325.7" r="9.4" fill="#e56aa2"/><circle cx="293.6" cy="331.3" r="9.4" fill="#e56aa2"/>
    <circle cx="285" cy="335" r="10.5" fill="#ff77b5"/>
    <circle cx="285" cy="335" r="5.8" fill="#ca5d8f"/>
    <circle cx="282.45" cy="332.45" r="2.2" fill="#ff8fdb"/>
  </g>
    <circle cx="242.0" cy="170.0" r="1.6" fill="#ffffff" opacity="0.36"/><circle cx="171.0" cy="136.7" r="3.1" fill="#ffffff" opacity="0.55"/><circle cx="211.7" cy="175.3" r="3.9" fill="#ffffff" opacity="0.48"/><circle cx="335.2" cy="113.7" r="3.4" fill="#ffffff" opacity="0.38"/><circle cx="164.1" cy="80.0" r="2.1" fill="#ffffff" opacity="0.46"/><circle cx="119.8" cy="106.5" r="2.2" fill="#ffffff" opacity="0.71"/><circle cx="277.9" cy="110.5" r="2.8" fill="#ffffff" opacity="0.56"/><circle cx="197.4" cy="161.6" r="2.4" fill="#ffffff" opacity="0.43"/>
</svg>