<svg xmlns="http://www.w3.org/2000/svg" viewBox="0 0 400 400">
  <defs>
    <linearGradient id="bg" x1="0" y1="0" x2="1" y2="1">
      <stop offset="0" stop-color="#fceef5"/><stop offset="1" stop-color="#f3d6ea"/>
    </linearGradient>
  </defs>
  <rect width="400" height="400" fill="url(#bg)"/>
  
    <ellipse cx="200" cy="352" rx="115" ry="16" fill="rgba(0,0,0,0.12)"/>
    <g>
    <circle cx="120" cy="300" r="26" fill="#af2a6c"/>
    <circle cx="134.0" cy="303.0" r="14.3" fill="#d63384"/><circle cx="127.6" cy="312.1" r="14.3" fill="#d63384"/><circle cx="114.4" cy="313.1" r="14.3" fill="#d63384"/><circle cx="106.4" cy="304.5" r="14.3" fill="#d63384"/><circle cx="111.5" cy="288.5" r="14.3" fill="#d63384"/><circle cx="119.7" cy="285.7" r="14.3" fill="#d63384"/><circle cx="130.1" cy="289.9" r="14.3" fill="#d63384"/>
    <circle cx="120" cy="300" r="16.1" fill="#f03994"/>
    <circle cx="120" cy="300" r="8.8" fill="#bc2d74"/>
    <circle cx="116.1" cy="296.1" r="3.4" fill="#ff45b2"/>
  </g><g>
    <circle cx="286" cy="310" r="23" fill="#bc5785"/>
    <circle cx="298.1" cy="313.7" r="12.7" fill="#e56aa2"/><circle cx="292.6" cy="320.8" r="12.7" fill="#e56aa2"/><circle cx="279.0" cy="320.5" r="12.7" fill="#e56aa2"/><circle cx="273.8" cy="313.4" r="12.7" fill="#e56aa2"/><circle cx="276.8" cy="301.3" r="12.7" fill="#e56aa2"/><circle cx="286.1" cy="297.4" r="12.7" fill="#e56aa2"/><circle cx="297.6" cy="304.9" r="12.7" fill="#e56aa2"/>
    <circle cx="286" cy="310" r="14.3" fill="#ff77b5"/>
    <circle cx="286" cy="310" r="7.8" fill="#ca5d8f"/>
    <circle cx="282.55" cy="306.55" r="3.0" fill="#ff8fdb"/>
  </g>
    <path transform="translate(140 320) rotate(-30)"
    d="M0 0 C 20 -18, 36 -8, 40 0 C 36 8, 20 18, 0 0 Z"
    fill="#3e7d4f"/><path transform="translate(258 328) rotate(-150)"
    d="M0 0 C 20 -18, 36 -8, 40 0 C 36 8, 20 18, 0 0 Z"
    fill="#2f6b41"/>
    <!-- flacon -->
    <rect x="150" y="170" width="100" height="150" rx="20" fill="#d63384" opacity="0.85"/>
    <rect x="150" y="170" width="100" height="150" rx="20" fill="url(#bg)" opacity="0.25"/>
    <rect x="162" y="182" width="30" height="90" rx="14" fill="#ffffff" opacity="0.35"/>
    <rect x="176" y="140" width="48" height="34" rx="6" fill="#d4a017"/>
    <rect x="186" y="118" width="28" height="26" rx="8" fill="#fec01c"/>
    <ellipse cx="200" cy="245" rx="34" ry="22" fill="#fdf6ec" opacity="0.92"/>
    <text x="200" y="251" font-size="15" text-anchor="middle" fill="#7c1f3a" font-family="Georgia,serif" font-style="italic">La Rosa</text>
    <!-- brume -->
    <g fill="#fff" opacity="0.7">
      <circle cx="248" cy="120" r="4"/><circle cx="262" cy="108" r="3"/><circle cx="274" cy="96" r="2.4"/>
    </g>
    <circle cx="208.2" cy="71.4" r="2.8" fill="#ffffff" opacity="0.66"/><circle cx="217.7" cy="84.6" r="2.4" fill="#ffffff" opacity="0.46"/><circle cx="168.8" cy="94.0" r="3.8" fill="#ffffff" opacity="0.62"/><circle cx="241.2" cy="183.7" r="3.4" fill="#ffffff" opacity="0.36"/><circle cx="158.4" cy="89.7" r="2.0" fill="#ffffff" opacity="0.73"/><circle cx="137.1" cy="111.7" r="2.7" fill="#ffffff" opacity="0.63"/><circle cx="222.5" cy="145.8" r="2.4" fill="#ffffff" opacity="0.72"/><circle cx="324.2" cy="62.0" r="3.4" fill="#ffffff" opacity="0.51"/><circle cx="124.1" cy="177.8" r="2.1" fill="#ffffff" opacity="0.39"/><circle cx="324.3" cy="168.5" r="3.2" fill="#ffffff" opacity="0.67"/>
</svg>