<svg xmlns="http://www.w3.org/2000/svg" viewBox="0 0 160 160">
  <defs><clipPath id="c"><circle cx="80" cy="80" r="80"/></clipPath></defs>
  <g clip-path="url(#c)"><rect width="160" height="160" fill="#fde7f1"/>
    <path d="M40 78 h80 v34 a40 12 0 0 1 -80 0 Z" fill="#8c3b5c"/>
    <ellipse cx="80" cy="78" rx="40" ry="11" fill="#a94f74"/>
    <g>
    <circle cx="62" cy="62" r="12" fill="#c889a0"/>
    <circle cx="68.6" cy="62.7" r="6.6" fill="#f4a7c3"/><circle cx="65.8" cy="67.4" r="6.6" fill="#f4a7c3"/><circle cx="59.9" cy="68.2" r="6.6" fill="#f4a7c3"/><circle cx="55.9" cy="64.5" r="6.6" fill="#f4a7c3"/><circle cx="56.4" cy="58.6" r="6.6" fill="#f4a7c3"/><circle cx="62.0" cy="55.4" r="6.6" fill="#f4a7c3"/><circle cx="67.1" cy="57.8" r="6.6" fill="#f4a7c3"/>
    <circle cx="62" cy="62" r="7.4" fill="#ffbbda"/>
    <circle cx="62" cy="62" r="4.1" fill="#d793ac"/>
    <circle cx="60.2" cy="60.2" r="1.6" fill="#ffe1ff"/>
  </g><g>
    <circle cx="97" cy="62" r="12" fill="#af2a6c"/>
    <circle cx="103.3" cy="63.8" r="6.6" fill="#d63384"/><circle cx="99.7" cy="68.0" r="6.6" fill="#d63384"/><circle cx="92.8" cy="67.1" r="6.6" fill="#d63384"/><circle cx="90.6" cy="63.7" r="6.6" fill="#d63384"/><circle cx="91.2" cy="58.8" r="6.6" fill="#d63384"/><circle cx="98.3" cy="55.5" r="6.6" fill="#d63384"/><circle cx="101.3" cy="57.0" r="6.6" fill="#d63384"/>
    <circle cx="97" cy="62" r="7.4" fill="#f03994"/>
    <circle cx="97" cy="62" r="4.1" fill="#bc2d74"/>
    <circle cx="95.2" cy="60.2" r="1.6" fill="#ff45b2"/>
  </g><g>
    <circle cx="80" cy="50" r="13" fill="#bc5785"/>
    <circle cx="86.8" cy="52.3" r="7.2" fill="#e56aa2"/><circle cx="82.3" cy="56.8" r="7.2" fill="#e56aa2"/><circle cx="77.3" cy="56.6" r="7.2" fill="#e56aa2"/><circle cx="72.9" cy="50.2" r="7.2" fill="#e56aa2"/><circle cx="73.6" cy="46.8" r="7.2" fill="#e56aa2"/><circle cx="81.9" cy="43.1" r="7.2" fill="#e56aa2"/><circle cx="84.7" cy="44.6" r="7.2" fill="#e56aa2"/>
    <circle cx="80" cy="50" r="8.1" fill="#ff77b5"/>
    <circle cx="80" cy="50" r="4.4" fill="#ca5d8f"/>
    <circle cx="78.05" cy="48.05" r="1.7" fill="#ff8fdb"/>
  </g></g>
</svg>